<?xml version="1.0" encoding="utf-8" standalone="no"?>
<!DOCTYPE svg PUBLIC "-//W3C//DTD SVG 1.1//EN"
  "http://www.w3.org/Graphics/SVG/1.1/DTD/svg11.dtd">
<svg xmlns:xlink="http://www.w3.org/1999/xlink" width="712.44875pt" height="352.36625pt" viewBox="0 0 712.44875 352.36625" xmlns="http://www.w3.org/2000/svg" version="1.1">
 <metadata>
  <rdf:RDF xmlns:dc="http://purl.org/dc/elements/1.1/" xmlns:cc="http://creativecommons.org/ns#" xmlns:rdf="http://www.w3.org/1999/02/22-rdf-syntax-ns#">
   <cc:Work>
    <dc:type rdf:resource="http://purl.org/dc/dcmitype/StillImage"/>
    <dc:date>2025-12-29T09:31:15.598589</dc:date>
    <dc:format>image/svg+xml</dc:format>
    <dc:creator>
     <cc:Agent>
      <dc:title>Matplotlib v3.10.8, https://matplotlib.org/</dc:title>
     </cc:Agent>
    </dc:creator>
   </cc:Work>
  </rdf:RDF>
 </metadata>
 <defs>
  <style type="text/css">*{stroke-linejoin: round; stroke-linecap: butt}</style>
 </defs>
 <g id="figure_1">
  <g id="patch_1">
   <path d="M 0 352.36625 
L 712.44875 352.36625 
L 712.44875 0 
L 0 0 
z
" style="fill: #ffffff"/>
  </g>
  <g id="axes_1">
   <g id="patch_2">
    <path d="M 41.18125 314.76625 
L 705.24875 314.76625 
L 705.24875 22.57125 
L 41.18125 22.57125 
z
" style="fill: #ffffff"/>
   </g>
   <g id="matplotlib.axis_1">
    <g id="xtick_1">
     <g id="line2d_1">
      <defs>
       <path id="me8c92725dd" d="M 0 0 
L 0 3.5 
" style="stroke: #000000; stroke-width: 0.8"/>
      </defs>
      <g>
       <use xlink:href="#me8c92725dd" x="71.366136" y="314.76625" style="stroke: #000000; stroke-width: 0.8"/>
      </g>
     </g>
     <g id="text_1">
      <!-- 2000 -->
      <g transform="translate(58.225511 329.425625) scale(0.1 -0.1)">
       <defs>
        <path id="HiraginoSansGB-W3-32" d="M 3027 38 
C 3347 38 3558 26 3814 0 
L 3814 538 
C 3571 506 3354 493 3034 493 
L 992 493 
C 1069 800 1158 973 1357 1235 
C 1568 1504 1773 1683 2278 2022 
C 3008 2509 3174 2630 3366 2848 
C 3616 3123 3744 3430 3744 3757 
C 3744 4512 3123 4998 2157 4998 
C 1594 4998 1158 4832 870 4506 
C 659 4269 563 4045 467 3584 
L 1005 3494 
C 1050 3814 1107 3968 1229 4141 
C 1421 4416 1734 4557 2157 4557 
C 2810 4557 3219 4243 3219 3757 
C 3219 3366 3008 3085 2374 2656 
C 1632 2150 1619 2144 1395 1952 
C 992 1606 723 1254 563 851 
C 467 608 448 512 378 6 
C 582 32 678 38 1082 38 
L 3027 38 
z
" transform="scale(0.015625)"/>
        <path id="HiraginoSansGB-W3-30" d="M 2099 -58 
C 2688 -58 3136 166 3456 614 
C 3738 1005 3904 1690 3904 2464 
C 3904 2995 3821 3507 3661 3949 
C 3584 4160 3456 4358 3277 4538 
C 2989 4838 2579 4992 2106 4992 
C 1472 4992 979 4723 672 4205 
C 448 3834 301 3142 301 2464 
C 301 1939 384 1434 544 986 
C 621 768 755 570 928 397 
C 1229 96 1626 -58 2099 -58 
z
M 2099 4550 
C 2547 4550 2893 4352 3104 3968 
C 3270 3667 3392 3034 3392 2477 
C 3392 2003 3328 1581 3194 1184 
C 3136 998 3034 832 2893 685 
C 2701 486 2426 384 2106 384 
C 1670 384 1338 570 1114 941 
C 941 1242 813 1869 813 2464 
C 813 2931 877 3366 1011 3757 
C 1062 3917 1165 4077 1299 4224 
C 1504 4442 1766 4550 2099 4550 
z
" transform="scale(0.015625)"/>
       </defs>
       <use xlink:href="#HiraginoSansGB-W3-32"/>
       <use xlink:href="#HiraginoSansGB-W3-30" transform="translate(65.699997 0)"/>
       <use xlink:href="#HiraginoSansGB-W3-30" transform="translate(131.399994 0)"/>
       <use xlink:href="#HiraginoSansGB-W3-30" transform="translate(197.099991 0)"/>
      </g>
     </g>
    </g>
    <g id="xtick_2">
     <g id="line2d_2">
      <g>
       <use xlink:href="#me8c92725dd" x="208.570165" y="314.76625" style="stroke: #000000; stroke-width: 0.8"/>
      </g>
     </g>
     <g id="text_2">
      <!-- 2005 -->
      <g transform="translate(195.42954 329.425625) scale(0.1 -0.1)">
       <defs>
        <path id="HiraginoSansGB-W3-35" d="M 1261 4461 
L 2765 4461 
C 3066 4461 3270 4448 3514 4410 
L 3514 4954 
C 3258 4915 3110 4902 2765 4902 
L 1446 4902 
C 1069 4902 966 4909 768 4934 
C 781 4774 781 4749 781 4659 
C 781 4538 774 4461 762 4275 
L 621 2829 
C 595 2554 576 2419 525 2170 
L 1005 2125 
C 1075 2298 1146 2387 1299 2509 
C 1530 2688 1811 2778 2138 2778 
C 2816 2778 3258 2317 3258 1613 
C 3258 877 2778 390 2061 390 
C 1690 390 1370 525 1152 768 
C 1056 877 1011 960 947 1139 
L 422 986 
C 576 678 666 544 826 384 
C 1133 96 1549 -51 2048 -51 
C 3104 -51 3776 608 3776 1638 
C 3776 2112 3635 2490 3347 2765 
C 3059 3046 2662 3200 2195 3200 
C 1754 3200 1382 3053 1075 2758 
C 1114 2931 1114 2931 1126 3046 
L 1261 4461 
z
" transform="scale(0.015625)"/>
       </defs>
       <use xlink:href="#HiraginoSansGB-W3-32"/>
       <use xlink:href="#HiraginoSansGB-W3-30" transform="translate(65.699997 0)"/>
       <use xlink:href="#HiraginoSansGB-W3-30" transform="translate(131.399994 0)"/>
       <use xlink:href="#HiraginoSansGB-W3-35" transform="translate(197.099991 0)"/>
      </g>
     </g>
    </g>
    <g id="xtick_3">
     <g id="line2d_3">
      <g>
       <use xlink:href="#me8c92725dd" x="345.774194" y="314.76625" style="stroke: #000000; stroke-width: 0.8"/>
      </g>
     </g>
     <g id="text_3">
      <!-- 2010 -->
      <g transform="translate(332.633569 329.425625) scale(0.1 -0.1)">
       <defs>
        <path id="HiraginoSansGB-W3-31" d="M 1030 4429 
C 1216 4454 1382 4467 1587 4467 
L 1933 4467 
L 1933 762 
C 1933 467 1920 262 1882 38 
L 2490 38 
C 2451 275 2438 461 2438 762 
L 2438 3872 
C 2438 4218 2458 4544 2496 4934 
C 2285 4909 2182 4902 1965 4902 
L 1562 4902 
C 1318 4902 1197 4909 1030 4934 
L 1030 4429 
z
" transform="scale(0.015625)"/>
       </defs>
       <use xlink:href="#HiraginoSansGB-W3-32"/>
       <use xlink:href="#HiraginoSansGB-W3-30" transform="translate(65.699997 0)"/>
       <use xlink:href="#HiraginoSansGB-W3-31" transform="translate(131.399994 0)"/>
       <use xlink:href="#HiraginoSansGB-W3-30" transform="translate(197.099991 0)"/>
      </g>
     </g>
    </g>
    <g id="xtick_4">
     <g id="line2d_4">
      <g>
       <use xlink:href="#me8c92725dd" x="482.978223" y="314.76625" style="stroke: #000000; stroke-width: 0.8"/>
      </g>
     </g>
     <g id="text_4">
      <!-- 2015 -->
      <g transform="translate(469.837598 329.425625) scale(0.1 -0.1)">
       <use xlink:href="#HiraginoSansGB-W3-32"/>
       <use xlink:href="#HiraginoSansGB-W3-30" transform="translate(65.699997 0)"/>
       <use xlink:href="#HiraginoSansGB-W3-31" transform="translate(131.399994 0)"/>
       <use xlink:href="#HiraginoSansGB-W3-35" transform="translate(197.099991 0)"/>
      </g>
     </g>
    </g>
    <g id="xtick_5">
     <g id="line2d_5">
      <g>
       <use xlink:href="#me8c92725dd" x="620.182252" y="314.76625" style="stroke: #000000; stroke-width: 0.8"/>
      </g>
     </g>
     <g id="text_5">
      <!-- 2020 -->
      <g transform="translate(607.041627 329.425625) scale(0.1 -0.1)">
       <use xlink:href="#HiraginoSansGB-W3-32"/>
       <use xlink:href="#HiraginoSansGB-W3-30" transform="translate(65.699997 0)"/>
       <use xlink:href="#HiraginoSansGB-W3-32" transform="translate(131.399994 0)"/>
       <use xlink:href="#HiraginoSansGB-W3-30" transform="translate(197.099991 0)"/>
      </g>
     </g>
    </g>
    <g id="text_6">
     <!-- Year -->
     <g transform="translate(361.810312 343.125625) scale(0.1 -0.1)">
      <defs>
       <path id="HiraginoSansGB-W3-59" d="M 2509 38 
C 2470 269 2458 448 2458 755 
L 2458 2074 
L 3930 4346 
C 4096 4614 4224 4794 4320 4902 
L 3616 4902 
C 3571 4749 3494 4608 3315 4314 
L 2208 2534 
L 1101 4314 
C 902 4627 838 4749 787 4902 
L 90 4902 
C 218 4736 326 4582 474 4346 
L 1946 2080 
L 1946 755 
C 1946 461 1933 275 1894 38 
L 2509 38 
z
" transform="scale(0.015625)"/>
       <path id="HiraginoSansGB-W3-65" d="M 3475 1690 
C 3462 1862 3437 2112 3430 2182 
C 3302 3040 2707 3571 1882 3571 
C 922 3571 294 2854 294 1760 
C 294 653 928 -51 1933 -51 
C 2400 -51 2790 102 3091 397 
C 3238 544 3322 659 3443 928 
L 2995 1107 
C 2816 614 2458 358 1939 358 
C 1555 358 1242 512 1037 794 
C 864 1024 800 1261 781 1690 
L 3475 1690 
z
M 800 2093 
C 838 2336 870 2451 960 2611 
C 1152 2970 1478 3168 1869 3168 
C 2176 3168 2426 3072 2624 2880 
C 2829 2682 2925 2451 2963 2093 
L 800 2093 
z
" transform="scale(0.015625)"/>
       <path id="HiraginoSansGB-W3-61" d="M 2733 38 
L 3251 38 
C 3213 294 3200 454 3200 742 
L 3200 2541 
C 3200 3232 2765 3590 1920 3590 
C 1440 3590 1056 3469 794 3226 
C 634 3085 550 2950 435 2656 
L 934 2547 
C 998 2739 1050 2829 1133 2918 
C 1312 3104 1574 3194 1926 3194 
C 2458 3194 2733 2970 2733 2534 
L 2733 2163 
C 1946 2144 1638 2106 1261 1997 
C 666 1830 346 1459 346 947 
C 346 339 774 -26 1478 -26 
C 1696 -26 1926 19 2144 102 
C 2362 186 2483 269 2733 493 
L 2733 38 
z
M 2733 1370 
C 2733 1114 2682 979 2534 819 
C 2285 544 1882 365 1510 365 
C 1094 365 832 589 832 941 
C 832 1248 992 1466 1318 1600 
C 1606 1722 1971 1766 2733 1786 
L 2733 1370 
z
" transform="scale(0.015625)"/>
       <path id="HiraginoSansGB-W3-72" d="M 2669 3488 
C 2400 3533 2291 3546 2099 3546 
C 1792 3546 1574 3482 1331 3322 
C 1197 3232 1101 3130 979 2931 
C 986 2976 986 3072 986 3123 
L 986 3488 
L 454 3488 
C 486 3258 499 3085 499 2765 
L 499 762 
C 499 499 486 333 454 38 
L 1030 38 
C 998 288 986 467 986 755 
L 986 2061 
C 1011 2349 1069 2502 1222 2701 
C 1414 2957 1683 3091 2010 3091 
C 2170 3091 2285 3072 2528 2995 
L 2669 3488 
z
" transform="scale(0.015625)"/>
      </defs>
      <use xlink:href="#HiraginoSansGB-W3-59"/>
      <use xlink:href="#HiraginoSansGB-W3-65" transform="translate(68.799988 0)"/>
      <use xlink:href="#HiraginoSansGB-W3-61" transform="translate(127.599976 0)"/>
      <use xlink:href="#HiraginoSansGB-W3-72" transform="translate(185.09996 0)"/>
     </g>
    </g>
   </g>
   <g id="matplotlib.axis_2">
    <g id="ytick_1">
     <g id="line2d_6">
      <defs>
       <path id="m6c9ccca491" d="M 0 0 
L -3.5 0 
" style="stroke: #000000; stroke-width: 0.8"/>
      </defs>
      <g>
       <use xlink:href="#m6c9ccca491" x="41.18125" y="271.345832" style="stroke: #000000; stroke-width: 0.8"/>
      </g>
     </g>
     <g id="text_7">
      <!-- 0 -->
      <g transform="translate(27.610938 275.175519) scale(0.1 -0.1)">
       <use xlink:href="#HiraginoSansGB-W3-30"/>
      </g>
     </g>
    </g>
    <g id="ytick_2">
     <g id="line2d_7">
      <g>
       <use xlink:href="#m6c9ccca491" x="41.18125" y="226.095065" style="stroke: #000000; stroke-width: 0.8"/>
      </g>
     </g>
     <g id="text_8">
      <!-- 5 -->
      <g transform="translate(27.610938 229.924752) scale(0.1 -0.1)">
       <use xlink:href="#HiraginoSansGB-W3-35"/>
      </g>
     </g>
    </g>
    <g id="ytick_3">
     <g id="line2d_8">
      <g>
       <use xlink:href="#m6c9ccca491" x="41.18125" y="180.844298" style="stroke: #000000; stroke-width: 0.8"/>
      </g>
     </g>
     <g id="text_9">
      <!-- 10 -->
      <g transform="translate(21.040625 184.673985) scale(0.1 -0.1)">
       <use xlink:href="#HiraginoSansGB-W3-31"/>
       <use xlink:href="#HiraginoSansGB-W3-30" transform="translate(65.699997 0)"/>
      </g>
     </g>
    </g>
    <g id="ytick_4">
     <g id="line2d_9">
      <g>
       <use xlink:href="#m6c9ccca491" x="41.18125" y="135.593531" style="stroke: #000000; stroke-width: 0.8"/>
      </g>
     </g>
     <g id="text_10">
      <!-- 15 -->
      <g transform="translate(21.040625 139.423218) scale(0.1 -0.1)">
       <use xlink:href="#HiraginoSansGB-W3-31"/>
       <use xlink:href="#HiraginoSansGB-W3-35" transform="translate(65.699997 0)"/>
      </g>
     </g>
    </g>
    <g id="ytick_5">
     <g id="line2d_10">
      <g>
       <use xlink:href="#m6c9ccca491" x="41.18125" y="90.342764" style="stroke: #000000; stroke-width: 0.8"/>
      </g>
     </g>
     <g id="text_11">
      <!-- 20 -->
      <g transform="translate(21.040625 94.172451) scale(0.1 -0.1)">
       <use xlink:href="#HiraginoSansGB-W3-32"/>
       <use xlink:href="#HiraginoSansGB-W3-30" transform="translate(65.699997 0)"/>
      </g>
     </g>
    </g>
    <g id="ytick_6">
     <g id="line2d_11">
      <g>
       <use xlink:href="#m6c9ccca491" x="41.18125" y="45.091997" style="stroke: #000000; stroke-width: 0.8"/>
      </g>
     </g>
     <g id="text_12">
      <!-- 25 -->
      <g transform="translate(21.040625 48.921684) scale(0.1 -0.1)">
       <use xlink:href="#HiraginoSansGB-W3-32"/>
       <use xlink:href="#HiraginoSansGB-W3-35" transform="translate(65.699997 0)"/>
      </g>
     </g>
    </g>
    <g id="text_13">
     <!-- Temp (C) -->
     <g transform="translate(15 191.747656) rotate(-90) scale(0.1 -0.1)">
      <defs>
       <path id="HiraginoSansGB-W3-54" d="M 2323 4454 
L 3315 4454 
C 3674 4454 3859 4442 4070 4410 
L 4070 4947 
C 3859 4915 3686 4902 3315 4902 
L 819 4902 
C 480 4902 314 4915 90 4947 
L 90 4410 
C 301 4442 499 4454 826 4454 
L 1824 4454 
L 1824 762 
C 1824 461 1811 237 1773 38 
L 2374 38 
C 2336 269 2323 448 2323 762 
L 2323 4454 
z
" transform="scale(0.015625)"/>
       <path id="HiraginoSansGB-W3-6d" d="M 1018 38 
C 986 294 973 467 973 762 
L 973 2016 
C 973 2182 1069 2483 1184 2656 
C 1382 2963 1690 3142 2022 3142 
C 2483 3142 2739 2835 2739 2272 
L 2739 762 
C 2739 435 2726 269 2694 38 
L 3270 38 
C 3238 256 3226 435 3226 755 
L 3226 2016 
C 3226 2208 3315 2490 3437 2675 
C 3622 2970 3923 3142 4243 3142 
C 4755 3142 4979 2880 4979 2272 
L 4979 762 
C 4979 422 4973 275 4934 38 
L 5510 38 
C 5478 262 5466 435 5466 755 
L 5466 2336 
C 5466 2714 5402 2963 5248 3168 
C 5056 3424 4736 3558 4314 3558 
C 3776 3558 3430 3354 3130 2861 
C 3066 3053 3027 3130 2931 3232 
C 2739 3450 2470 3558 2106 3558 
C 1734 3558 1421 3443 1203 3226 
C 1075 3091 1018 3014 960 2906 
C 966 3027 973 3104 973 3136 
L 973 3488 
L 454 3488 
C 486 3258 499 3085 499 2765 
L 499 762 
C 499 461 486 269 454 38 
L 1018 38 
z
" transform="scale(0.015625)"/>
       <path id="HiraginoSansGB-W3-70" d="M 1018 -1306 
C 986 -1069 973 -883 973 -582 
L 973 211 
C 973 384 966 480 947 659 
C 1248 218 1702 -19 2266 -19 
C 3226 -19 3840 678 3840 1766 
C 3840 2880 3238 3552 2253 3552 
C 1683 3552 1235 3315 947 2861 
C 960 2970 966 3040 966 3123 
L 966 3488 
L 454 3488 
C 486 3245 499 3059 499 2752 
L 499 -589 
C 499 -851 486 -1056 454 -1306 
L 1018 -1306 
z
M 2221 397 
C 1888 397 1568 518 1344 736 
C 1114 960 979 1344 979 1760 
C 979 2586 1478 3136 2214 3136 
C 2931 3136 3341 2637 3341 1766 
C 3341 915 2918 397 2221 397 
z
" transform="scale(0.015625)"/>
       <path id="HiraginoSansGB-W3-20" transform="scale(0.015625)"/>
       <path id="HiraginoSansGB-W3-28" d="M 2093 -762 
C 1734 -211 1594 77 1453 531 
C 1306 992 1235 1478 1235 1984 
C 1235 2490 1306 2970 1453 3430 
C 1594 3885 1734 4173 2093 4723 
L 1690 4979 
C 1318 4410 1165 4102 1011 3648 
C 838 3130 749 2579 749 1984 
C 749 1389 838 838 1011 320 
C 1165 -141 1318 -448 1690 -1018 
L 2093 -762 
z
" transform="scale(0.015625)"/>
       <path id="HiraginoSansGB-W3-43" d="M 4461 3667 
C 4307 4064 4186 4256 3962 4474 
C 3616 4819 3130 4992 2528 4992 
C 1920 4992 1434 4806 1062 4448 
C 589 3981 333 3283 333 2458 
C 333 1658 576 960 1024 512 
C 1389 141 1907 -51 2522 -51 
C 3238 -51 3821 211 4179 691 
C 4333 896 4416 1075 4525 1453 
L 3994 1581 
C 3936 1286 3872 1126 3738 941 
C 3475 595 3046 403 2541 403 
C 1510 403 851 1210 851 2477 
C 851 3750 1504 4544 2541 4544 
C 3008 4544 3392 4384 3648 4083 
C 3782 3930 3853 3795 3949 3520 
L 4461 3667 
z
" transform="scale(0.015625)"/>
       <path id="HiraginoSansGB-W3-29" d="M 179 4723 
C 538 4173 678 3885 819 3430 
C 966 2970 1037 2496 1037 1984 
C 1037 1472 966 992 819 531 
C 678 77 538 -211 179 -762 
L 582 -1018 
C 954 -448 1107 -141 1261 320 
C 1440 838 1523 1382 1523 1984 
C 1523 2579 1440 3130 1261 3648 
C 1107 4102 954 4410 582 4979 
L 179 4723 
z
" transform="scale(0.015625)"/>
      </defs>
      <use xlink:href="#HiraginoSansGB-W3-54"/>
      <use xlink:href="#HiraginoSansGB-W3-65" transform="translate(64.899994 0)"/>
      <use xlink:href="#HiraginoSansGB-W3-6d" transform="translate(123.699982 0)"/>
      <use xlink:href="#HiraginoSansGB-W3-70" transform="translate(216.799973 0)"/>
      <use xlink:href="#HiraginoSansGB-W3-20" transform="translate(281.499969 0)"/>
      <use xlink:href="#HiraginoSansGB-W3-28" transform="translate(314.799957 0)"/>
      <use xlink:href="#HiraginoSansGB-W3-43" transform="translate(350.399948 0)"/>
      <use xlink:href="#HiraginoSansGB-W3-29" transform="translate(425.999939 0)"/>
     </g>
    </g>
   </g>
   <g id="line2d_12">
    <path d="M 71.366136 284.984022 
L 98.806942 275.851668 
L 126.247748 254.755641 
L 153.688554 273.307422 
L 181.12936 272.690038 
L 208.570165 278.82228 
L 236.010971 268.123632 
L 263.451777 267.67691 
L 290.892583 285.710258 
L 318.333388 273.067313 
L 345.774194 268.850021 
L 373.215 301.484659 
L 400.655806 285.432258 
L 428.096612 276.492478 
L 455.537417 257.599466 
L 482.978223 257.756387 
L 510.419029 278.344794 
L 537.859835 255.881559 
L 565.30064 276.933268 
L 592.741446 263.486729 
L 620.182252 258.113709 
L 647.623058 270.009143 
L 675.063864 264.072097 
" clip-path="url(#p046a0c050c)" style="fill: none; stroke: #1f77b4; stroke-opacity: 0.4; stroke-linecap: square"/>
   </g>
   <g id="line2d_13">
    <path d="M 71.366136 263.069191 
L 98.806942 248.867675 
L 126.247748 224.840504 
L 153.688554 237.076535 
L 181.12936 233.113695 
L 208.570165 266.538796 
L 236.010971 249.076501 
L 263.451777 218.372969 
L 290.892583 267.567146 
L 318.333388 226.202031 
L 345.774194 245.280193 
L 373.215 244.376142 
L 400.655806 261.82531 
L 428.096612 244.457849 
L 455.537417 254.656975 
L 482.978223 236.576164 
L 510.419029 246.701829 
L 537.859835 235.326207 
L 565.30064 252.065621 
L 592.741446 245.342834 
L 620.182252 230.173146 
L 647.623058 224.440109 
L 675.063864 261.276792 
" clip-path="url(#p046a0c050c)" style="fill: none; stroke: #ff7f0e; stroke-opacity: 0.4; stroke-linecap: square"/>
   </g>
   <g id="line2d_14">
    <path d="M 71.366136 196.233245 
L 98.806942 195.776439 
L 126.247748 181.77173 
L 153.688554 200.633994 
L 181.12936 196.170479 
L 208.570165 207.510075 
L 236.010971 195.531579 
L 263.451777 193.946211 
L 290.892583 183.722813 
L 318.333388 197.062264 
L 345.774194 207.271399 
L 373.215 212.038124 
L 400.655806 206.87229 
L 428.096612 187.826384 
L 455.537417 186.421901 
L 482.978223 187.78623 
L 510.419029 188.121444 
L 537.859835 197.137285 
L 565.30064 179.901621 
L 592.741446 186.908043 
L 620.182252 182.885747 
L 647.623058 180.005354 
L 675.063864 176.460007 
" clip-path="url(#p046a0c050c)" style="fill: none; stroke: #2ca02c; stroke-opacity: 0.4; stroke-linecap: square"/>
   </g>
   <g id="line2d_15">
    <path d="M 71.366136 144.846436 
L 98.806942 146.884394 
L 126.247748 139.91039 
L 153.688554 141.142276 
L 181.12936 132.135756 
L 208.570165 133.304808 
L 236.010971 141.880663 
L 263.451777 145.89443 
L 290.892583 136.475197 
L 318.333388 136.567823 
L 345.774194 163.409195 
L 373.215 140.651635 
L 400.655806 133.872667 
L 428.096612 149.51584 
L 455.537417 134.163055 
L 482.978223 149.208316 
L 510.419029 131.178495 
L 537.859835 132.881798 
L 565.30064 131.899296 
L 592.741446 132.241345 
L 620.182252 146.635713 
L 647.623058 144.059777 
L 675.063864 134.569138 
" clip-path="url(#p046a0c050c)" style="fill: none; stroke: #d62728; stroke-opacity: 0.4; stroke-linecap: square"/>
   </g>
   <g id="line2d_16">
    <path d="M 71.366136 93.181578 
L 98.806942 93.111635 
L 126.247748 101.818843 
L 153.688554 99.517438 
L 181.12936 99.949361 
L 208.570165 98.901748 
L 236.010971 97.587884 
L 263.451777 86.906312 
L 290.892583 95.634648 
L 318.333388 95.089484 
L 345.774194 98.357868 
L 373.215 99.718612 
L 400.655806 91.185809 
L 428.096612 92.531126 
L 455.537417 96.195796 
L 482.978223 94.58944 
L 510.419029 98.309961 
L 537.859835 90.009073 
L 565.30064 87.96208 
L 592.741446 98.241866 
L 620.182252 89.520236 
L 647.623058 93.902157 
L 675.063864 100.605357 
" clip-path="url(#p046a0c050c)" style="fill: none; stroke: #9467bd; stroke-opacity: 0.4; stroke-linecap: square"/>
   </g>
   <g id="line2d_17">
    <path d="M 71.366136 63.385714 
L 98.806942 64.410542 
L 126.247748 62.087484 
L 153.688554 67.928161 
L 181.12936 67.179299 
L 208.570165 57.476314 
L 236.010971 62.189517 
L 263.451777 61.763775 
L 290.892583 68.598156 
L 318.333388 61.26681 
L 345.774194 65.677592 
L 373.215 61.513354 
L 400.655806 65.011559 
L 428.096612 62.170687 
L 455.537417 65.210196 
L 482.978223 64.940413 
L 510.419029 62.993229 
L 537.859835 66.698488 
L 565.30064 59.231168 
L 592.741446 61.7714 
L 620.182252 58.208238 
L 647.623058 59.125953 
L 675.063864 55.757661 
" clip-path="url(#p046a0c050c)" style="fill: none; stroke: #8c564b; stroke-opacity: 0.4; stroke-linecap: square"/>
   </g>
   <g id="line2d_18">
    <path d="M 71.366136 40.291912 
L 98.806942 41.220516 
L 126.247748 46.306877 
L 153.688554 48.186069 
L 181.12936 50.304126 
L 208.570165 43.25683 
L 236.010971 43.31986 
L 263.451777 46.586556 
L 290.892583 45.767342 
L 318.333388 46.524665 
L 345.774194 39.892012 
L 373.215 44.142314 
L 400.655806 43.450416 
L 428.096612 41.086486 
L 455.537417 44.702081 
L 482.978223 51.285513 
L 510.419029 40.534894 
L 537.859835 35.852841 
L 565.30064 38.128692 
L 592.741446 45.008034 
L 620.182252 49.189702 
L 647.623058 39.600772 
L 675.063864 36.613959 
" clip-path="url(#p046a0c050c)" style="fill: none; stroke: #e377c2; stroke-opacity: 0.4; stroke-linecap: square"/>
   </g>
   <g id="line2d_19">
    <path d="M 71.366136 55.549274 
L 98.806942 57.433866 
L 126.247748 58.129939 
L 153.688554 54.515162 
L 181.12936 57.73185 
L 208.570165 57.919013 
L 236.010971 46.380505 
L 263.451777 48.862904 
L 290.892583 56.927232 
L 318.333388 54.777237 
L 345.774194 49.394439 
L 373.215 51.63625 
L 400.655806 52.541236 
L 428.096612 42.758312 
L 455.537417 59.131149 
L 482.978223 54.88908 
L 510.419029 44.484819 
L 537.859835 48.919774 
L 565.30064 44.766921 
L 592.741446 48.920912 
L 620.182252 47.231424 
L 647.623058 53.674403 
L 675.063864 40.426905 
" clip-path="url(#p046a0c050c)" style="fill: none; stroke: #7f7f7f; stroke-opacity: 0.4; stroke-linecap: square"/>
   </g>
   <g id="line2d_20">
    <path d="M 71.366136 90.882048 
L 98.806942 88.762382 
L 126.247748 93.105507 
L 153.688554 86.079023 
L 181.12936 90.411986 
L 208.570165 81.267728 
L 236.010971 91.840576 
L 263.451777 88.43857 
L 290.892583 85.467863 
L 318.333388 84.479666 
L 345.774194 85.012057 
L 373.215 94.984129 
L 400.655806 94.809867 
L 428.096612 89.839774 
L 455.537417 87.450227 
L 482.978223 88.791191 
L 510.419029 82.9661 
L 537.859835 80.117395 
L 565.30064 88.636051 
L 592.741446 80.217113 
L 620.182252 88.080473 
L 647.623058 74.515622 
L 675.063864 80.145924 
" clip-path="url(#p046a0c050c)" style="fill: none; stroke: #bcbd22; stroke-opacity: 0.4; stroke-linecap: square"/>
   </g>
   <g id="line2d_21">
    <path d="M 71.366136 147.137425 
L 98.806942 135.737927 
L 126.247748 149.600239 
L 153.688554 144.867918 
L 181.12936 145.329128 
L 208.570165 141.164753 
L 236.010971 124.26564 
L 263.451777 141.176156 
L 290.892583 134.16008 
L 318.333388 131.325227 
L 345.774194 145.960916 
L 373.215 140.39358 
L 400.655806 140.486849 
L 428.096612 139.007357 
L 455.537417 133.067846 
L 482.978223 136.249532 
L 510.419029 137.267065 
L 537.859835 142.860935 
L 565.30064 146.468563 
L 592.741446 136.860409 
L 620.182252 145.166161 
L 647.623058 140.827433 
L 675.063864 141.358256 
" clip-path="url(#p046a0c050c)" style="fill: none; stroke: #17becf; stroke-opacity: 0.4; stroke-linecap: square"/>
   </g>
   <g id="line2d_22">
    <path d="M 71.366136 217.350177 
L 98.806942 201.760808 
L 126.247748 210.206762 
L 153.688554 205.359589 
L 181.12936 197.250979 
L 208.570165 190.808453 
L 236.010971 191.868893 
L 263.451777 201.672546 
L 290.892583 201.786558 
L 318.333388 222.232773 
L 345.774194 198.082727 
L 373.215 188.31864 
L 400.655806 210.524567 
L 428.096612 198.99208 
L 455.537417 195.301309 
L 482.978223 198.453712 
L 510.419029 203.341306 
L 537.859835 201.74875 
L 565.30064 192.785124 
L 592.741446 194.167131 
L 620.182252 193.751495 
L 647.623058 201.897551 
L 675.063864 184.17134 
" clip-path="url(#p046a0c050c)" style="fill: none; stroke: #1f77b4; stroke-opacity: 0.4; stroke-linecap: square"/>
   </g>
   <g id="line2d_23">
    <path d="M 71.366136 251.857003 
L 98.806942 266.261202 
L 126.247748 262.976505 
L 153.688554 256.470348 
L 181.12936 252.87092 
L 208.570165 271.186164 
L 236.010971 253.742307 
L 263.451777 245.718688 
L 290.892583 252.986348 
L 318.333388 262.312594 
L 345.774194 256.041979 
L 373.215 262.938324 
L 400.655806 270.4212 
L 428.096612 258.911804 
L 455.537417 261.958855 
L 482.978223 249.145343 
L 510.419029 238.36927 
L 537.859835 252.264757 
L 565.30064 260.260568 
L 592.741446 249.616805 
L 620.182252 264.727236 
L 647.623058 247.543 
L 675.063864 267.562314 
" clip-path="url(#p046a0c050c)" style="fill: none; stroke: #ff7f0e; stroke-opacity: 0.4; stroke-linecap: square"/>
   </g>
   <g id="patch_3">
    <path d="M 41.18125 314.76625 
L 41.18125 22.57125 
" style="fill: none; stroke: #000000; stroke-width: 0.8; stroke-linejoin: miter; stroke-linecap: square"/>
   </g>
   <g id="patch_4">
    <path d="M 705.24875 314.76625 
L 705.24875 22.57125 
" style="fill: none; stroke: #000000; stroke-width: 0.8; stroke-linejoin: miter; stroke-linecap: square"/>
   </g>
   <g id="patch_5">
    <path d="M 41.18125 314.76625 
L 705.24875 314.76625 
" style="fill: none; stroke: #000000; stroke-width: 0.8; stroke-linejoin: miter; stroke-linecap: square"/>
   </g>
   <g id="patch_6">
    <path d="M 41.18125 22.57125 
L 705.24875 22.57125 
" style="fill: none; stroke: #000000; stroke-width: 0.8; stroke-linejoin: miter; stroke-linecap: square"/>
   </g>
   <g id="text_14">
    <!-- National monthly mean temperature (2000-2022) -->
    <g transform="translate(225.93375 16.57125) scale(0.12 -0.12)">
     <defs>
      <path id="HiraginoSansGB-W3-4e" d="M 506 4902 
C 544 4672 557 4480 557 4186 
L 557 800 
C 557 467 544 243 506 38 
L 1101 38 
C 1062 250 1050 461 1050 800 
L 1050 3533 
C 1050 3699 1037 4013 1011 4314 
C 1101 4141 1312 3776 1363 3699 
L 3418 614 
C 3590 352 3661 224 3750 38 
L 4448 38 
C 4410 243 4397 435 4397 755 
L 4397 4166 
C 4397 4493 4410 4672 4448 4902 
L 3853 4902 
C 3891 4678 3904 4480 3904 4166 
L 3904 1453 
C 3904 1395 3917 1114 3942 602 
C 3789 877 3597 1190 3526 1299 
L 1504 4326 
C 1318 4614 1235 4755 1178 4902 
L 506 4902 
z
" transform="scale(0.015625)"/>
      <path id="HiraginoSansGB-W3-74" d="M 858 4442 
C 890 4230 902 3987 902 3731 
L 902 3488 
L 646 3488 
C 378 3488 250 3494 70 3526 
L 70 3040 
C 282 3066 429 3078 646 3078 
L 902 3078 
L 902 787 
C 902 486 954 301 1082 173 
C 1210 45 1427 -26 1709 -26 
C 1971 -26 2170 13 2432 122 
L 2291 570 
C 2080 442 1952 403 1786 403 
C 1651 403 1542 442 1472 512 
C 1414 570 1389 666 1389 851 
L 1389 3078 
L 1696 3078 
C 1984 3078 2144 3072 2349 3040 
L 2349 3526 
C 2125 3494 1990 3488 1696 3488 
L 1389 3488 
L 1389 3731 
C 1389 4006 1402 4237 1434 4442 
L 858 4442 
z
" transform="scale(0.015625)"/>
      <path id="HiraginoSansGB-W3-69" d="M 448 4902 
L 448 4333 
L 1069 4333 
L 1069 4902 
L 448 4902 
z
M 467 3488 
C 499 3264 512 3072 512 2765 
L 512 762 
C 512 493 499 314 467 38 
L 1043 38 
C 1011 288 998 467 998 762 
L 998 2765 
C 998 3085 1011 3264 1043 3488 
L 467 3488 
z
" transform="scale(0.015625)"/>
      <path id="HiraginoSansGB-W3-6f" d="M 2010 -45 
C 3040 -45 3706 672 3706 1766 
C 3706 2867 3046 3571 2003 3571 
C 960 3571 294 2867 294 1760 
C 294 653 960 -45 2010 -45 
z
M 2016 3168 
C 2752 3168 3213 2630 3213 1766 
C 3213 902 2752 371 2003 371 
C 1254 371 787 902 787 1773 
C 787 2637 1254 3168 2016 3168 
z
" transform="scale(0.015625)"/>
      <path id="HiraginoSansGB-W3-6e" d="M 1030 38 
C 998 288 986 480 986 762 
L 986 1997 
C 1037 2253 1114 2413 1280 2630 
C 1549 2976 1837 3136 2195 3136 
C 2701 3136 2976 2829 2976 2253 
L 2976 762 
C 2976 480 2963 288 2931 38 
L 3507 38 
C 3475 250 3462 429 3462 755 
L 3462 2336 
C 3462 2650 3405 2886 3283 3072 
C 3078 3386 2720 3552 2259 3552 
C 1683 3552 1267 3302 966 2778 
C 986 2925 986 2976 986 3053 
L 986 3488 
L 454 3488 
C 493 3232 506 3053 506 2765 
L 506 762 
C 506 454 493 282 454 38 
L 1030 38 
z
" transform="scale(0.015625)"/>
      <path id="HiraginoSansGB-W3-6c" d="M 454 4902 
C 486 4672 499 4499 499 4186 
L 499 755 
C 499 467 486 269 454 38 
L 1030 38 
C 998 294 986 467 986 755 
L 986 4179 
C 986 4499 998 4672 1030 4902 
L 454 4902 
z
" transform="scale(0.015625)"/>
      <path id="HiraginoSansGB-W3-68" d="M 1024 38 
C 992 288 979 480 979 762 
L 979 1990 
C 1037 2259 1120 2432 1299 2662 
C 1549 2976 1843 3130 2202 3130 
C 2701 3130 2976 2829 2976 2272 
L 2976 762 
C 2976 442 2963 250 2931 38 
L 3507 38 
C 3475 275 3462 461 3462 755 
L 3462 2362 
C 3462 3110 3014 3552 2266 3552 
C 1875 3552 1581 3443 1306 3206 
C 1152 3078 1082 2982 954 2771 
C 973 2938 973 2989 973 3091 
L 973 4173 
C 973 4499 986 4666 1024 4902 
L 454 4902 
C 486 4666 499 4499 499 4179 
L 499 762 
C 499 442 486 269 454 38 
L 1024 38 
z
" transform="scale(0.015625)"/>
      <path id="HiraginoSansGB-W3-79" d="M 1587 141 
L 1293 -563 
C 1190 -800 1037 -915 819 -915 
C 698 -915 608 -890 429 -806 
L 294 -1280 
C 538 -1331 678 -1350 819 -1350 
C 1274 -1350 1555 -1165 1722 -755 
L 3155 2739 
C 3322 3142 3430 3392 3469 3488 
L 2874 3488 
C 2848 3309 2790 3136 2662 2810 
L 1837 659 
L 909 2810 
C 806 3053 723 3309 691 3488 
L 64 3488 
C 128 3373 128 3373 416 2739 
L 1587 141 
z
" transform="scale(0.015625)"/>
      <path id="HiraginoSansGB-W3-75" d="M 2970 38 
L 3501 38 
C 3462 294 3450 474 3450 762 
L 3450 2765 
C 3450 3059 3462 3264 3494 3488 
L 2925 3488 
C 2957 3264 2970 3040 2970 2765 
L 2970 1530 
C 2912 1274 2842 1114 2675 890 
C 2419 544 2118 384 1754 384 
C 1254 384 979 704 979 1274 
L 979 2765 
C 979 3046 992 3264 1024 3488 
L 448 3488 
C 480 3283 493 3059 493 2771 
L 493 1190 
C 493 883 557 634 672 448 
C 877 141 1235 -26 1696 -26 
C 2272 -26 2669 211 2989 736 
C 2970 570 2970 525 2970 454 
L 2970 38 
z
" transform="scale(0.015625)"/>
      <path id="HiraginoSansGB-W3-2d" d="M 179 1632 
C 358 1658 506 1664 762 1664 
L 1523 1664 
C 1792 1664 1933 1658 2112 1632 
L 2112 2170 
C 1933 2144 1798 2138 1523 2138 
L 762 2138 
C 493 2138 358 2144 179 2170 
L 179 1632 
z
" transform="scale(0.015625)"/>
     </defs>
     <use xlink:href="#HiraginoSansGB-W3-4e"/>
     <use xlink:href="#HiraginoSansGB-W3-61" transform="translate(77.399994 0)"/>
     <use xlink:href="#HiraginoSansGB-W3-74" transform="translate(134.899979 0)"/>
     <use xlink:href="#HiraginoSansGB-W3-69" transform="translate(174.099976 0)"/>
     <use xlink:href="#HiraginoSansGB-W3-6f" transform="translate(197.899963 0)"/>
     <use xlink:href="#HiraginoSansGB-W3-6e" transform="translate(260.399948 0)"/>
     <use xlink:href="#HiraginoSansGB-W3-61" transform="translate(322.199936 0)"/>
     <use xlink:href="#HiraginoSansGB-W3-6c" transform="translate(379.699921 0)"/>
     <use xlink:href="#HiraginoSansGB-W3-20" transform="translate(402.899918 0)"/>
     <use xlink:href="#HiraginoSansGB-W3-6d" transform="translate(436.199905 0)"/>
     <use xlink:href="#HiraginoSansGB-W3-6f" transform="translate(529.299896 0)"/>
     <use xlink:href="#HiraginoSansGB-W3-6e" transform="translate(591.799881 0)"/>
     <use xlink:href="#HiraginoSansGB-W3-74" transform="translate(653.599869 0)"/>
     <use xlink:href="#HiraginoSansGB-W3-68" transform="translate(692.799866 0)"/>
     <use xlink:href="#HiraginoSansGB-W3-6c" transform="translate(754.499863 0)"/>
     <use xlink:href="#HiraginoSansGB-W3-79" transform="translate(777.69986 0)"/>
     <use xlink:href="#HiraginoSansGB-W3-20" transform="translate(833.099854 0)"/>
     <use xlink:href="#HiraginoSansGB-W3-6d" transform="translate(866.399841 0)"/>
     <use xlink:href="#HiraginoSansGB-W3-65" transform="translate(959.499832 0)"/>
     <use xlink:href="#HiraginoSansGB-W3-61" transform="translate(1018.29982 0)"/>
     <use xlink:href="#HiraginoSansGB-W3-6e" transform="translate(1075.799805 0)"/>
     <use xlink:href="#HiraginoSansGB-W3-20" transform="translate(1137.599792 0)"/>
     <use xlink:href="#HiraginoSansGB-W3-74" transform="translate(1170.89978 0)"/>
     <use xlink:href="#HiraginoSansGB-W3-65" transform="translate(1210.099777 0)"/>
     <use xlink:href="#HiraginoSansGB-W3-6d" transform="translate(1268.899765 0)"/>
     <use xlink:href="#HiraginoSansGB-W3-70" transform="translate(1361.999756 0)"/>
     <use xlink:href="#HiraginoSansGB-W3-65" transform="translate(1426.699753 0)"/>
     <use xlink:href="#HiraginoSansGB-W3-72" transform="translate(1485.499741 0)"/>
     <use xlink:href="#HiraginoSansGB-W3-61" transform="translate(1528.499725 0)"/>
     <use xlink:href="#HiraginoSansGB-W3-74" transform="translate(1585.99971 0)"/>
     <use xlink:href="#HiraginoSansGB-W3-75" transform="translate(1625.199707 0)"/>
     <use xlink:href="#HiraginoSansGB-W3-72" transform="translate(1686.999695 0)"/>
     <use xlink:href="#HiraginoSansGB-W3-65" transform="translate(1729.99968 0)"/>
     <use xlink:href="#HiraginoSansGB-W3-20" transform="translate(1788.799667 0)"/>
     <use xlink:href="#HiraginoSansGB-W3-28" transform="translate(1822.099655 0)"/>
     <use xlink:href="#HiraginoSansGB-W3-32" transform="translate(1857.699646 0)"/>
     <use xlink:href="#HiraginoSansGB-W3-30" transform="translate(1923.399643 0)"/>
     <use xlink:href="#HiraginoSansGB-W3-30" transform="translate(1989.09964 0)"/>
     <use xlink:href="#HiraginoSansGB-W3-30" transform="translate(2054.799637 0)"/>
     <use xlink:href="#HiraginoSansGB-W3-2d" transform="translate(2120.499634 0)"/>
     <use xlink:href="#HiraginoSansGB-W3-32" transform="translate(2156.299622 0)"/>
     <use xlink:href="#HiraginoSansGB-W3-30" transform="translate(2221.999619 0)"/>
     <use xlink:href="#HiraginoSansGB-W3-32" transform="translate(2287.699615 0)"/>
     <use xlink:href="#HiraginoSansGB-W3-32" transform="translate(2353.399612 0)"/>
     <use xlink:href="#HiraginoSansGB-W3-29" transform="translate(2419.099609 0)"/>
    </g>
   </g>
   <g id="legend_1">
    <g id="line2d_24">
     <path d="M 577.7925 267.85375 
L 585.7925 267.85375 
L 593.7925 267.85375 
" style="fill: none; stroke: #1f77b4; stroke-opacity: 0.4; stroke-linecap: square"/>
    </g>
    <g id="text_15">
     <!-- 1 -->
     <g transform="translate(600.1925 270.65375) scale(0.08 -0.08)">
      <use xlink:href="#HiraginoSansGB-W3-31"/>
     </g>
    </g>
    <g id="line2d_25">
     <path d="M 577.7925 279.61375 
L 585.7925 279.61375 
L 593.7925 279.61375 
" style="fill: none; stroke: #ff7f0e; stroke-opacity: 0.4; stroke-linecap: square"/>
    </g>
    <g id="text_16">
     <!-- 2 -->
     <g transform="translate(600.1925 282.41375) scale(0.08 -0.08)">
      <use xlink:href="#HiraginoSansGB-W3-32"/>
     </g>
    </g>
    <g id="line2d_26">
     <path d="M 577.7925 291.37375 
L 585.7925 291.37375 
L 593.7925 291.37375 
" style="fill: none; stroke: #2ca02c; stroke-opacity: 0.4; stroke-linecap: square"/>
    </g>
    <g id="text_17">
     <!-- 3 -->
     <g transform="translate(600.1925 294.17375) scale(0.08 -0.08)">
      <defs>
       <path id="HiraginoSansGB-W3-33" d="M 288 1088 
C 403 762 480 621 614 467 
C 922 122 1402 -58 2048 -58 
C 3117 -58 3782 480 3782 1344 
C 3782 1754 3635 2093 3354 2310 
C 3136 2477 2938 2547 2566 2586 
C 2861 2643 3002 2694 3168 2816 
C 3450 3014 3616 3360 3616 3750 
C 3616 4518 3027 5005 2099 5005 
C 1542 5005 1107 4845 826 4538 
C 666 4371 589 4224 480 3898 
L 1011 3782 
C 1082 4019 1126 4122 1216 4237 
C 1395 4467 1677 4576 2067 4576 
C 2714 4576 3098 4256 3098 3706 
C 3098 3475 3002 3238 2842 3085 
C 2643 2886 2330 2790 1907 2790 
C 1734 2790 1581 2803 1434 2829 
L 1434 2323 
C 1606 2342 1766 2355 1946 2355 
C 2797 2355 3251 2010 3251 1376 
C 3251 768 2784 384 2042 384 
C 1715 384 1434 461 1216 614 
C 1018 755 928 890 826 1222 
L 288 1088 
z
" transform="scale(0.015625)"/>
      </defs>
      <use xlink:href="#HiraginoSansGB-W3-33"/>
     </g>
    </g>
    <g id="line2d_27">
     <path d="M 577.7925 303.13375 
L 585.7925 303.13375 
L 593.7925 303.13375 
" style="fill: none; stroke: #d62728; stroke-opacity: 0.4; stroke-linecap: square"/>
    </g>
    <g id="text_18">
     <!-- 4 -->
     <g transform="translate(600.1925 305.93375) scale(0.08 -0.08)">
      <defs>
       <path id="HiraginoSansGB-W3-34" d="M 198 1254 
C 410 1274 602 1280 960 1280 
L 2675 1280 
L 2675 730 
C 2675 442 2662 262 2624 38 
L 3206 38 
C 3168 275 3155 422 3155 730 
L 3155 1280 
L 3392 1280 
C 3667 1280 3827 1267 4064 1235 
L 4064 1766 
C 3834 1734 3667 1722 3398 1722 
L 3155 1722 
L 3155 3821 
C 3155 4326 3162 4525 3194 4902 
L 2714 4902 
C 2566 4678 2451 4518 2234 4250 
L 614 2227 
C 480 2067 333 1888 198 1734 
L 198 1254 
z
M 2682 1715 
L 768 1715 
L 2240 3571 
C 2426 3808 2586 4019 2720 4211 
C 2688 3885 2682 3680 2682 3341 
L 2682 1715 
z
" transform="scale(0.015625)"/>
      </defs>
      <use xlink:href="#HiraginoSansGB-W3-34"/>
     </g>
    </g>
    <g id="line2d_28">
     <path d="M 621.48 267.85375 
L 629.48 267.85375 
L 637.48 267.85375 
" style="fill: none; stroke: #9467bd; stroke-opacity: 0.4; stroke-linecap: square"/>
    </g>
    <g id="text_19">
     <!-- 5 -->
     <g transform="translate(643.88 270.65375) scale(0.08 -0.08)">
      <use xlink:href="#HiraginoSansGB-W3-35"/>
     </g>
    </g>
    <g id="line2d_29">
     <path d="M 621.48 279.61375 
L 629.48 279.61375 
L 637.48 279.61375 
" style="fill: none; stroke: #8c564b; stroke-opacity: 0.4; stroke-linecap: square"/>
    </g>
    <g id="text_20">
     <!-- 6 -->
     <g transform="translate(643.88 282.41375) scale(0.08 -0.08)">
      <defs>
       <path id="HiraginoSansGB-W3-36" d="M 3725 4006 
C 3539 4390 3411 4563 3187 4723 
C 2944 4896 2598 4992 2214 4992 
C 1658 4992 1203 4755 864 4294 
C 557 3878 378 3162 378 2362 
C 378 1453 608 736 1024 352 
C 1299 96 1728 -51 2182 -51 
C 3194 -51 3859 602 3859 1594 
C 3859 2579 3245 3194 2253 3194 
C 1811 3194 1472 3072 1171 2803 
C 1030 2682 966 2592 851 2394 
C 896 3091 954 3386 1120 3770 
C 1350 4294 1728 4563 2227 4563 
C 2547 4563 2797 4454 2989 4243 
C 3085 4134 3130 4045 3213 3840 
L 3725 4006 
z
M 3354 1581 
C 3354 1331 3290 1069 3187 902 
C 2989 582 2605 384 2189 384 
C 1498 384 979 896 979 1587 
C 979 1907 1088 2189 1299 2400 
C 1523 2624 1862 2765 2182 2765 
C 2931 2765 3354 2336 3354 1581 
z
" transform="scale(0.015625)"/>
      </defs>
      <use xlink:href="#HiraginoSansGB-W3-36"/>
     </g>
    </g>
    <g id="line2d_30">
     <path d="M 621.48 291.37375 
L 629.48 291.37375 
L 637.48 291.37375 
" style="fill: none; stroke: #e377c2; stroke-opacity: 0.4; stroke-linecap: square"/>
    </g>
    <g id="text_21">
     <!-- 7 -->
     <g transform="translate(643.88 294.17375) scale(0.08 -0.08)">
      <defs>
       <path id="HiraginoSansGB-W3-37" d="M 3789 4934 
C 3565 4909 3424 4902 3046 4902 
L 1126 4902 
C 819 4902 646 4915 397 4947 
L 397 4403 
C 640 4435 819 4448 1120 4448 
L 3200 4448 
C 2630 3674 2355 3232 2048 2592 
C 1651 1773 1478 1197 1274 38 
L 1882 38 
C 1984 781 2054 1107 2221 1638 
C 2470 2419 2739 2963 3315 3853 
C 3565 4237 3674 4378 3789 4467 
L 3789 4934 
z
" transform="scale(0.015625)"/>
      </defs>
      <use xlink:href="#HiraginoSansGB-W3-37"/>
     </g>
    </g>
    <g id="line2d_31">
     <path d="M 621.48 303.13375 
L 629.48 303.13375 
L 637.48 303.13375 
" style="fill: none; stroke: #7f7f7f; stroke-opacity: 0.4; stroke-linecap: square"/>
    </g>
    <g id="text_22">
     <!-- 8 -->
     <g transform="translate(643.88 305.93375) scale(0.08 -0.08)">
      <defs>
       <path id="HiraginoSansGB-W3-38" d="M 2752 2586 
C 3322 2694 3680 3142 3680 3738 
C 3680 4525 3078 5005 2099 5005 
C 1133 5005 525 4512 525 3738 
C 525 3142 890 2688 1453 2586 
C 1216 2547 1075 2496 877 2368 
C 493 2118 307 1766 307 1306 
C 307 422 954 -64 2125 -64 
C 3251 -64 3891 429 3891 1306 
C 3891 1734 3731 2074 3411 2310 
C 3200 2470 3021 2547 2752 2586 
z
M 2099 4576 
C 2758 4576 3181 4237 3181 3699 
C 3181 3130 2778 2784 2106 2784 
C 1434 2784 1024 3130 1024 3699 
C 1024 4230 1446 4576 2099 4576 
z
M 2099 2342 
C 2886 2342 3366 1965 3366 1338 
C 3366 1075 3283 851 3123 704 
C 2906 486 2541 371 2093 371 
C 1299 371 832 730 832 1338 
C 832 1958 1312 2342 2099 2342 
z
" transform="scale(0.015625)"/>
      </defs>
      <use xlink:href="#HiraginoSansGB-W3-38"/>
     </g>
    </g>
    <g id="line2d_32">
     <path d="M 665.13625 267.85375 
L 673.13625 267.85375 
L 681.13625 267.85375 
" style="fill: none; stroke: #bcbd22; stroke-opacity: 0.4; stroke-linecap: square"/>
    </g>
    <g id="text_23">
     <!-- 9 -->
     <g transform="translate(687.53625 270.65375) scale(0.08 -0.08)">
      <defs>
       <path id="HiraginoSansGB-W3-39" d="M 416 934 
C 582 595 685 448 864 301 
C 1139 70 1498 -45 1939 -45 
C 2528 -45 2950 147 3270 550 
C 3616 979 3802 1702 3802 2592 
C 3802 3142 3744 3578 3616 3923 
C 3373 4589 2784 4998 2067 4998 
C 1018 4998 333 4333 333 3315 
C 333 2861 493 2438 768 2163 
C 1043 1888 1446 1741 1920 1741 
C 2400 1741 2758 1882 3085 2189 
C 3200 2310 3251 2374 3341 2547 
C 3328 2221 3309 1958 3283 1798 
C 3232 1498 3130 1184 3008 979 
C 2771 576 2438 390 1978 390 
C 1626 390 1350 493 1171 691 
C 1069 800 1018 890 941 1101 
L 416 934 
z
M 1978 2170 
C 1280 2170 838 2624 838 3347 
C 838 3597 902 3853 1005 4019 
C 1216 4358 1600 4563 2022 4563 
C 2707 4563 3219 4045 3219 3354 
C 3219 2675 2688 2170 1978 2170 
z
" transform="scale(0.015625)"/>
      </defs>
      <use xlink:href="#HiraginoSansGB-W3-39"/>
     </g>
    </g>
    <g id="line2d_33">
     <path d="M 665.13625 279.61375 
L 673.13625 279.61375 
L 681.13625 279.61375 
" style="fill: none; stroke: #17becf; stroke-opacity: 0.4; stroke-linecap: square"/>
    </g>
    <g id="text_24">
     <!-- 10 -->
     <g transform="translate(687.53625 282.41375) scale(0.08 -0.08)">
      <use xlink:href="#HiraginoSansGB-W3-31"/>
      <use xlink:href="#HiraginoSansGB-W3-30" transform="translate(65.699997 0)"/>
     </g>
    </g>
    <g id="line2d_34">
     <path d="M 665.13625 291.37375 
L 673.13625 291.37375 
L 681.13625 291.37375 
" style="fill: none; stroke: #1f77b4; stroke-opacity: 0.4; stroke-linecap: square"/>
    </g>
    <g id="text_25">
     <!-- 11 -->
     <g transform="translate(687.53625 294.17375) scale(0.08 -0.08)">
      <use xlink:href="#HiraginoSansGB-W3-31"/>
      <use xlink:href="#HiraginoSansGB-W3-31" transform="translate(65.699997 0)"/>
     </g>
    </g>
    <g id="line2d_35">
     <path d="M 665.13625 303.13375 
L 673.13625 303.13375 
L 681.13625 303.13375 
" style="fill: none; stroke: #ff7f0e; stroke-opacity: 0.4; stroke-linecap: square"/>
    </g>
    <g id="text_26">
     <!-- 12 -->
     <g transform="translate(687.53625 305.93375) scale(0.08 -0.08)">
      <use xlink:href="#HiraginoSansGB-W3-31"/>
      <use xlink:href="#HiraginoSansGB-W3-32" transform="translate(65.699997 0)"/>
     </g>
    </g>
   </g>
  </g>
 </g>
 <defs>
  <clipPath id="p046a0c050c">
   <rect x="41.18125" y="22.57125" width="664.0675" height="292.195"/>
  </clipPath>
 </defs>
</svg>
