<?xml version="1.0" encoding="utf-8" standalone="no"?>
<!DOCTYPE svg PUBLIC "-//W3C//DTD SVG 1.1//EN"
  "http://www.w3.org/Graphics/SVG/1.1/DTD/svg11.dtd">
<svg xmlns:xlink="http://www.w3.org/1999/xlink" width="864pt" height="554.4pt" viewBox="0 0 864 554.4" xmlns="http://www.w3.org/2000/svg" version="1.1">
 <metadata>
  <rdf:RDF xmlns:dc="http://purl.org/dc/elements/1.1/" xmlns:cc="http://creativecommons.org/ns#" xmlns:rdf="http://www.w3.org/1999/02/22-rdf-syntax-ns#">
   <cc:Work>
    <dc:type rdf:resource="http://purl.org/dc/dcmitype/StillImage"/>
    <dc:date>2025-12-29T09:31:17.873653</dc:date>
    <dc:format>image/svg+xml</dc:format>
    <dc:creator>
     <cc:Agent>
      <dc:title>Matplotlib v3.10.8, https://matplotlib.org/</dc:title>
     </cc:Agent>
    </dc:creator>
   </cc:Work>
  </rdf:RDF>
 </metadata>
 <defs>
  <style type="text/css">*{stroke-linejoin: round; stroke-linecap: butt}</style>
 </defs>
 <g id="figure_1">
  <g id="patch_1">
   <path d="M 0 554.4 
L 864 554.4 
L 864 0 
L 0 0 
z
" style="fill: #ffffff"/>
  </g>
  <g id="axes_1">
   <g id="patch_2">
    <path d="M 47.77 512.44 
L 853.2 512.44 
L 853.2 25.94625 
L 47.77 25.94625 
z
" style="fill: #ffffff"/>
   </g>
   <g id="patch_3">
    <path d="M 444.912565 48.059602 
L 816.589545 48.059602 
L 816.589545 64.289586 
L 444.912565 64.289586 
z
" clip-path="url(#pa4a9056bbc)" style="fill: #4c78a8"/>
   </g>
   <g id="patch_4">
    <path d="M 444.912565 68.347081 
L 813.329042 68.347081 
L 813.329042 84.577065 
L 444.912565 84.577065 
z
" clip-path="url(#pa4a9056bbc)" style="fill: #4c78a8"/>
   </g>
   <g id="patch_5">
    <path d="M 444.912565 88.634561 
L 728.315583 88.634561 
L 728.315583 104.864544 
L 444.912565 104.864544 
z
" clip-path="url(#pa4a9056bbc)" style="fill: #4c78a8"/>
   </g>
   <g id="patch_6">
    <path d="M 444.912565 108.92204 
L 726.503436 108.92204 
L 726.503436 125.152023 
L 444.912565 125.152023 
z
" clip-path="url(#pa4a9056bbc)" style="fill: #4c78a8"/>
   </g>
   <g id="patch_7">
    <path d="M 444.912565 129.209519 
L 709.440362 129.209519 
L 709.440362 145.439502 
L 444.912565 145.439502 
z
" clip-path="url(#pa4a9056bbc)" style="fill: #4c78a8"/>
   </g>
   <g id="patch_8">
    <path d="M 444.912565 149.496998 
L 706.567107 149.496998 
L 706.567107 165.726981 
L 444.912565 165.726981 
z
" clip-path="url(#pa4a9056bbc)" style="fill: #4c78a8"/>
   </g>
   <g id="patch_9">
    <path d="M 444.912565 169.784477 
L 706.181899 169.784477 
L 706.181899 186.01446 
L 444.912565 186.01446 
z
" clip-path="url(#pa4a9056bbc)" style="fill: #4c78a8"/>
   </g>
   <g id="patch_10">
    <path d="M 444.912565 190.071956 
L 692.045458 190.071956 
L 692.045458 206.30194 
L 444.912565 206.30194 
z
" clip-path="url(#pa4a9056bbc)" style="fill: #4c78a8"/>
   </g>
   <g id="patch_11">
    <path d="M 444.912565 210.359435 
L 616.393961 210.359435 
L 616.393961 226.589419 
L 444.912565 226.589419 
z
" clip-path="url(#pa4a9056bbc)" style="fill: #4c78a8"/>
   </g>
   <g id="patch_12">
    <path d="M 444.912565 230.646915 
L 586.175657 230.646915 
L 586.175657 246.876898 
L 444.912565 246.876898 
z
" clip-path="url(#pa4a9056bbc)" style="fill: #4c78a8"/>
   </g>
   <g id="patch_13">
    <path d="M 444.912565 250.934394 
L 511.962997 250.934394 
L 511.962997 267.164377 
L 444.912565 267.164377 
z
" clip-path="url(#pa4a9056bbc)" style="fill: #4c78a8"/>
   </g>
   <g id="patch_14">
    <path d="M 444.912565 271.221873 
L 430.64414 271.221873 
L 430.64414 287.451856 
L 444.912565 287.451856 
z
" clip-path="url(#pa4a9056bbc)" style="fill: #4c78a8"/>
   </g>
   <g id="patch_15">
    <path d="M 444.912565 291.509352 
L 410.992995 291.509352 
L 410.992995 307.739335 
L 444.912565 307.739335 
z
" clip-path="url(#pa4a9056bbc)" style="fill: #4c78a8"/>
   </g>
   <g id="patch_16">
    <path d="M 444.912565 311.796831 
L 379.65048 311.796831 
L 379.65048 328.026815 
L 444.912565 328.026815 
z
" clip-path="url(#pa4a9056bbc)" style="fill: #4c78a8"/>
   </g>
   <g id="patch_17">
    <path d="M 444.912565 332.08431 
L 335.388212 332.08431 
L 335.388212 348.314294 
L 444.912565 348.314294 
z
" clip-path="url(#pa4a9056bbc)" style="fill: #4c78a8"/>
   </g>
   <g id="patch_18">
    <path d="M 444.912565 352.37179 
L 330.154068 352.37179 
L 330.154068 368.601773 
L 444.912565 368.601773 
z
" clip-path="url(#pa4a9056bbc)" style="fill: #4c78a8"/>
   </g>
   <g id="patch_19">
    <path d="M 444.912565 372.659269 
L 317.187192 372.659269 
L 317.187192 388.889252 
L 444.912565 388.889252 
z
" clip-path="url(#pa4a9056bbc)" style="fill: #4c78a8"/>
   </g>
   <g id="patch_20">
    <path d="M 444.912565 392.946748 
L 307.498839 392.946748 
L 307.498839 409.176731 
L 444.912565 409.176731 
z
" clip-path="url(#pa4a9056bbc)" style="fill: #4c78a8"/>
   </g>
   <g id="patch_21">
    <path d="M 444.912565 413.234227 
L 285.512711 413.234227 
L 285.512711 429.46421 
L 444.912565 429.46421 
z
" clip-path="url(#pa4a9056bbc)" style="fill: #4c78a8"/>
   </g>
   <g id="patch_22">
    <path d="M 444.912565 433.521706 
L 278.396722 433.521706 
L 278.396722 449.751689 
L 444.912565 449.751689 
z
" clip-path="url(#pa4a9056bbc)" style="fill: #4c78a8"/>
   </g>
   <g id="patch_23">
    <path d="M 444.912565 453.809185 
L 195.802631 453.809185 
L 195.802631 470.039169 
L 444.912565 470.039169 
z
" clip-path="url(#pa4a9056bbc)" style="fill: #4c78a8"/>
   </g>
   <g id="patch_24">
    <path d="M 444.912565 474.096664 
L 84.380455 474.096664 
L 84.380455 490.326648 
L 444.912565 490.326648 
z
" clip-path="url(#pa4a9056bbc)" style="fill: #4c78a8"/>
   </g>
   <g id="matplotlib.axis_1">
    <g id="xtick_1">
     <g id="line2d_1">
      <defs>
       <path id="mfa957c06e5" d="M 0 0 
L 0 3.5 
" style="stroke: #000000; stroke-width: 0.8"/>
      </defs>
      <g>
       <use xlink:href="#mfa957c06e5" x="104.922645" y="512.44" style="stroke: #000000; stroke-width: 0.8"/>
      </g>
     </g>
     <g id="text_1">
      <!-- -100 -->
      <g transform="translate(93.277333 527.099375) scale(0.1 -0.1)">
       <defs>
        <path id="HiraginoSansGB-W3-2d" d="M 179 1632 
C 358 1658 506 1664 762 1664 
L 1523 1664 
C 1792 1664 1933 1658 2112 1632 
L 2112 2170 
C 1933 2144 1798 2138 1523 2138 
L 762 2138 
C 493 2138 358 2144 179 2170 
L 179 1632 
z
" transform="scale(0.015625)"/>
        <path id="HiraginoSansGB-W3-31" d="M 1030 4429 
C 1216 4454 1382 4467 1587 4467 
L 1933 4467 
L 1933 762 
C 1933 467 1920 262 1882 38 
L 2490 38 
C 2451 275 2438 461 2438 762 
L 2438 3872 
C 2438 4218 2458 4544 2496 4934 
C 2285 4909 2182 4902 1965 4902 
L 1562 4902 
C 1318 4902 1197 4909 1030 4934 
L 1030 4429 
z
" transform="scale(0.015625)"/>
        <path id="HiraginoSansGB-W3-30" d="M 2099 -58 
C 2688 -58 3136 166 3456 614 
C 3738 1005 3904 1690 3904 2464 
C 3904 2995 3821 3507 3661 3949 
C 3584 4160 3456 4358 3277 4538 
C 2989 4838 2579 4992 2106 4992 
C 1472 4992 979 4723 672 4205 
C 448 3834 301 3142 301 2464 
C 301 1939 384 1434 544 986 
C 621 768 755 570 928 397 
C 1229 96 1626 -58 2099 -58 
z
M 2099 4550 
C 2547 4550 2893 4352 3104 3968 
C 3270 3667 3392 3034 3392 2477 
C 3392 2003 3328 1581 3194 1184 
C 3136 998 3034 832 2893 685 
C 2701 486 2426 384 2106 384 
C 1670 384 1338 570 1114 941 
C 941 1242 813 1869 813 2464 
C 813 2931 877 3366 1011 3757 
C 1062 3917 1165 4077 1299 4224 
C 1504 4442 1766 4550 2099 4550 
z
" transform="scale(0.015625)"/>
       </defs>
       <use xlink:href="#HiraginoSansGB-W3-2d"/>
       <use xlink:href="#HiraginoSansGB-W3-31" transform="translate(35.799988 0)"/>
       <use xlink:href="#HiraginoSansGB-W3-30" transform="translate(101.499985 0)"/>
       <use xlink:href="#HiraginoSansGB-W3-30" transform="translate(167.199982 0)"/>
      </g>
     </g>
    </g>
    <g id="xtick_2">
     <g id="line2d_2">
      <g>
       <use xlink:href="#mfa957c06e5" x="274.917605" y="512.44" style="stroke: #000000; stroke-width: 0.8"/>
      </g>
     </g>
     <g id="text_2">
      <!-- -50 -->
      <g transform="translate(266.557449 527.099375) scale(0.1 -0.1)">
       <defs>
        <path id="HiraginoSansGB-W3-35" d="M 1261 4461 
L 2765 4461 
C 3066 4461 3270 4448 3514 4410 
L 3514 4954 
C 3258 4915 3110 4902 2765 4902 
L 1446 4902 
C 1069 4902 966 4909 768 4934 
C 781 4774 781 4749 781 4659 
C 781 4538 774 4461 762 4275 
L 621 2829 
C 595 2554 576 2419 525 2170 
L 1005 2125 
C 1075 2298 1146 2387 1299 2509 
C 1530 2688 1811 2778 2138 2778 
C 2816 2778 3258 2317 3258 1613 
C 3258 877 2778 390 2061 390 
C 1690 390 1370 525 1152 768 
C 1056 877 1011 960 947 1139 
L 422 986 
C 576 678 666 544 826 384 
C 1133 96 1549 -51 2048 -51 
C 3104 -51 3776 608 3776 1638 
C 3776 2112 3635 2490 3347 2765 
C 3059 3046 2662 3200 2195 3200 
C 1754 3200 1382 3053 1075 2758 
C 1114 2931 1114 2931 1126 3046 
L 1261 4461 
z
" transform="scale(0.015625)"/>
       </defs>
       <use xlink:href="#HiraginoSansGB-W3-2d"/>
       <use xlink:href="#HiraginoSansGB-W3-35" transform="translate(35.799988 0)"/>
       <use xlink:href="#HiraginoSansGB-W3-30" transform="translate(101.499985 0)"/>
      </g>
     </g>
    </g>
    <g id="xtick_3">
     <g id="line2d_3">
      <g>
       <use xlink:href="#mfa957c06e5" x="444.912565" y="512.44" style="stroke: #000000; stroke-width: 0.8"/>
      </g>
     </g>
     <g id="text_3">
      <!-- 0 -->
      <g transform="translate(441.627409 527.099375) scale(0.1 -0.1)">
       <use xlink:href="#HiraginoSansGB-W3-30"/>
      </g>
     </g>
    </g>
    <g id="xtick_4">
     <g id="line2d_4">
      <g>
       <use xlink:href="#mfa957c06e5" x="614.907525" y="512.44" style="stroke: #000000; stroke-width: 0.8"/>
      </g>
     </g>
     <g id="text_4">
      <!-- 50 -->
      <g transform="translate(608.337213 527.099375) scale(0.1 -0.1)">
       <use xlink:href="#HiraginoSansGB-W3-35"/>
       <use xlink:href="#HiraginoSansGB-W3-30" transform="translate(65.699997 0)"/>
      </g>
     </g>
    </g>
    <g id="xtick_5">
     <g id="line2d_5">
      <g>
       <use xlink:href="#mfa957c06e5" x="784.902485" y="512.44" style="stroke: #000000; stroke-width: 0.8"/>
      </g>
     </g>
     <g id="text_5">
      <!-- 100 -->
      <g transform="translate(775.047016 527.099375) scale(0.1 -0.1)">
       <use xlink:href="#HiraginoSansGB-W3-31"/>
       <use xlink:href="#HiraginoSansGB-W3-30" transform="translate(65.699997 0)"/>
       <use xlink:href="#HiraginoSansGB-W3-30" transform="translate(131.399994 0)"/>
      </g>
     </g>
    </g>
    <g id="text_6">
     <!-- 1月均温（原始单位） -->
     <g transform="translate(402.199844 540.799375) scale(0.1 -0.1)">
      <defs>
       <path id="HiraginoSansGB-W3-6708" d="M 4749 1632 
L 4749 218 
C 4749 64 4698 26 4512 26 
C 4198 26 3923 45 3597 83 
C 3654 -83 3680 -186 3699 -352 
C 4000 -365 4237 -371 4461 -371 
C 4762 -371 4877 -352 4979 -288 
C 5101 -211 5158 -70 5158 154 
L 5158 4365 
C 5158 4691 5165 4851 5184 5024 
C 4966 4998 4800 4992 4518 4992 
L 2112 4992 
C 1837 4992 1670 4998 1440 5024 
C 1459 4787 1466 4518 1466 3981 
C 1466 2509 1395 1734 1216 1120 
C 1062 602 858 262 461 -134 
C 608 -237 698 -326 813 -474 
C 1171 -64 1350 224 1517 640 
C 1638 947 1722 1267 1779 1632 
L 4749 1632 
z
M 4749 2016 
L 1824 2016 
C 1875 2541 1888 2810 1894 3155 
L 4749 3155 
L 4749 2016 
z
M 4749 3539 
L 1894 3539 
L 1894 3693 
L 1901 4602 
L 4749 4602 
L 4749 3539 
z
" transform="scale(0.015625)"/>
       <path id="HiraginoSansGB-W3-5747" d="M 1146 3578 
L 864 3578 
C 595 3578 467 3584 307 3616 
L 307 3174 
C 467 3206 595 3213 864 3213 
L 1146 3213 
L 1146 1139 
C 691 966 429 877 262 851 
L 384 429 
C 474 467 589 512 704 557 
C 1485 864 1760 992 2342 1312 
L 2323 1715 
C 1984 1523 1882 1466 1549 1312 
L 1549 3213 
L 1683 3213 
C 1914 3213 2054 3206 2195 3187 
L 2195 3610 
C 2074 3584 1946 3578 1690 3578 
L 1549 3578 
L 1549 4653 
C 1549 4915 1555 5069 1587 5261 
L 1107 5261 
C 1133 5062 1146 4902 1146 4640 
L 1146 3578 
z
M 5434 3955 
C 5427 2074 5357 1114 5197 474 
C 5114 141 5024 58 4774 58 
C 4557 58 4218 96 3866 166 
C 3942 -19 3968 -122 3981 -282 
C 4358 -320 4525 -333 4723 -333 
C 5011 -333 5165 -301 5280 -230 
C 5446 -115 5562 173 5664 742 
C 5786 1466 5843 2458 5843 3859 
C 5843 4122 5850 4237 5869 4365 
C 5754 4352 5754 4352 5293 4339 
L 3386 4339 
C 3501 4627 3546 4742 3616 4973 
C 3667 5114 3680 5165 3712 5235 
L 3270 5350 
C 3226 5037 3091 4621 2906 4211 
C 2675 3712 2464 3418 2067 3014 
C 2202 2931 2227 2912 2323 2797 
C 2330 2778 2349 2758 2374 2726 
C 2758 3149 2970 3462 3213 3955 
L 5434 3955 
z
M 4922 2048 
C 4301 1664 3776 1414 3066 1158 
C 2867 1088 2771 1062 2611 1030 
L 2778 582 
C 2848 621 2899 640 3066 710 
C 3936 1069 4314 1248 4998 1626 
L 4922 2048 
z
M 4608 2451 
C 4122 2746 3866 2874 3104 3200 
L 2867 2893 
C 3731 2509 3930 2400 4384 2093 
L 4608 2451 
z
" transform="scale(0.015625)"/>
       <path id="HiraginoSansGB-W3-6e29" d="M 621 4973 
C 1050 4685 1306 4461 1645 4090 
L 1907 4416 
C 1542 4774 1299 4973 877 5261 
L 621 4973 
z
M 320 3411 
C 749 3149 1005 2944 1389 2554 
L 1645 2906 
C 1267 3238 954 3475 557 3712 
L 320 3411 
z
M 1389 1914 
C 1056 998 698 314 358 -26 
L 736 -358 
C 781 -269 813 -211 864 -134 
C 1229 486 1408 851 1728 1670 
L 1389 1914 
z
M 4858 2790 
C 5094 2790 5293 2784 5453 2771 
C 5434 2970 5427 3098 5427 3296 
L 5427 4589 
C 5427 4794 5434 4915 5453 5114 
C 5318 5094 5139 5088 4838 5088 
L 2918 5088 
C 2630 5088 2458 5094 2310 5114 
C 2323 4947 2330 4794 2330 4576 
L 2330 3315 
C 2330 3098 2323 2931 2310 2771 
C 2477 2784 2682 2790 2906 2790 
L 4858 2790 
z
M 2714 4742 
L 5043 4742 
L 5043 4122 
L 2714 4122 
L 2714 4742 
z
M 2714 3782 
L 5043 3782 
L 5043 3123 
L 2714 3123 
L 2714 3782 
z
M 5702 173 
L 5702 1734 
C 5702 1920 5702 1958 5728 2214 
C 5568 2195 5446 2189 5139 2189 
L 2662 2189 
C 2374 2189 2240 2195 2074 2214 
C 2086 2042 2093 1926 2093 1709 
L 2099 173 
L 1920 173 
C 1766 173 1632 179 1485 205 
L 1485 -211 
C 1677 -186 1901 -173 2112 -173 
L 5594 -173 
C 5901 -186 5901 -186 6010 -186 
C 6067 -186 6125 -192 6221 -211 
L 6221 205 
C 6086 179 5997 173 5818 173 
L 5702 173 
z
M 2477 1850 
L 3174 1850 
L 3174 173 
L 2477 173 
L 2477 1850 
z
M 3539 1850 
L 4243 1850 
L 4243 173 
L 3539 173 
L 3539 1850 
z
M 4608 1850 
L 5325 1850 
L 5325 173 
L 4608 173 
L 4608 1850 
z
" transform="scale(0.015625)"/>
       <path id="HiraginoSansGB-W3-ff08" d="M 6157 -518 
C 5619 26 5408 314 5184 806 
C 4954 1318 4838 1850 4838 2432 
C 4838 3014 4954 3546 5184 4058 
C 5408 4550 5619 4838 6157 5382 
L 5587 5382 
C 5107 4832 4909 4525 4698 4006 
C 4486 3494 4390 2989 4390 2432 
C 4390 1875 4486 1370 4698 858 
C 4909 339 5107 32 5587 -518 
L 6157 -518 
z
" transform="scale(0.015625)"/>
       <path id="HiraginoSansGB-W3-539f" d="M 2618 3968 
C 2336 3968 2131 3974 1946 3994 
C 1965 3789 1971 3629 1971 3341 
L 1971 2266 
C 1971 1997 1965 1798 1946 1606 
C 2157 1626 2368 1632 2618 1632 
L 3501 1632 
L 3501 109 
C 3501 -13 3456 -32 3226 -32 
C 2957 -32 2733 -13 2438 38 
C 2502 -147 2515 -186 2541 -378 
C 2752 -397 2874 -403 3066 -403 
C 3782 -403 3904 -333 3904 64 
L 3904 1632 
L 4819 1632 
C 5094 1632 5306 1626 5504 1606 
C 5478 1773 5472 1952 5472 2234 
L 5472 3373 
C 5472 3642 5478 3827 5504 3994 
C 5338 3974 5139 3968 4813 3968 
L 3654 3968 
C 3757 4186 3821 4365 3910 4659 
L 5267 4659 
C 5613 4659 5786 4653 5965 4627 
L 5965 5062 
C 5805 5037 5619 5024 5254 5024 
L 1690 5024 
C 1350 5024 1158 5030 915 5056 
C 941 4832 947 4640 947 4026 
C 947 1747 794 826 288 -45 
C 422 -147 506 -243 608 -384 
C 1178 595 1357 1664 1357 4198 
L 1357 4659 
L 3488 4659 
C 3430 4429 3354 4211 3238 3968 
L 2618 3968 
z
M 2355 3622 
L 5082 3622 
L 5082 3002 
L 2355 3002 
L 2355 3622 
z
M 2355 2662 
L 5082 2662 
L 5082 1971 
L 2355 1971 
L 2355 2662 
z
M 4512 1203 
C 5120 493 5370 166 5638 -250 
L 5984 26 
C 5446 723 5350 838 4826 1414 
L 4512 1203 
z
M 2387 1382 
C 2093 806 1792 454 1286 45 
C 1427 -45 1504 -109 1600 -237 
C 2061 160 2406 582 2758 1210 
L 2387 1382 
z
" transform="scale(0.015625)"/>
       <path id="HiraginoSansGB-W3-59cb" d="M 1581 4019 
C 1658 4403 1709 4685 1747 4902 
C 1779 5101 1786 5158 1818 5274 
L 1357 5318 
C 1363 5286 1363 5261 1363 5242 
C 1363 4986 1312 4614 1190 4019 
L 915 4019 
C 704 4019 557 4032 390 4058 
L 390 3622 
C 550 3648 710 3661 902 3661 
L 1114 3661 
C 960 2989 774 2419 531 1882 
C 1018 1587 1190 1466 1485 1222 
C 1184 717 858 378 307 -26 
C 429 -115 512 -205 602 -339 
C 1171 96 1434 390 1786 960 
C 2067 698 2144 608 2400 307 
L 2656 659 
C 2323 1011 2202 1133 1978 1318 
C 2208 1798 2362 2330 2464 3034 
C 2490 3213 2528 3552 2579 4045 
C 2445 4026 2285 4019 1990 4019 
L 1581 4019 
z
M 2157 3661 
C 2054 2662 1914 2067 1670 1568 
C 1504 1696 1389 1773 1005 2035 
C 1210 2547 1370 3078 1504 3661 
L 2157 3661 
z
M 2746 2637 
C 2899 2650 2931 2650 3232 2682 
C 3302 2688 3488 2707 3706 2726 
C 4352 2790 4819 2842 5088 2886 
C 5312 2918 5331 2918 5510 2944 
C 5638 2694 5651 2662 5773 2394 
L 6138 2611 
C 5741 3379 5542 3706 4986 4461 
L 4634 4282 
C 5005 3802 5114 3648 5331 3270 
C 4838 3200 4186 3130 3725 3098 
C 3494 3085 3418 3078 3347 3066 
C 3757 3859 3949 4282 4115 4723 
C 4237 5037 4237 5037 4320 5210 
L 3840 5350 
C 3776 4909 3437 4045 3034 3270 
C 2906 3104 2848 3066 2675 3053 
L 2746 2637 
z
M 3366 -109 
L 5261 -109 
L 5261 -480 
L 5702 -480 
C 5670 -326 5664 -154 5664 186 
L 5664 1549 
C 5664 1907 5670 2042 5696 2208 
C 5574 2189 5395 2182 5088 2182 
L 3514 2182 
C 3277 2182 3098 2189 2944 2208 
C 2963 2061 2970 1882 2970 1613 
L 2970 90 
C 2970 -179 2963 -346 2944 -480 
L 3366 -480 
L 3366 -109 
z
M 3366 1818 
L 5261 1818 
L 5261 256 
L 3366 256 
L 3366 1818 
z
" transform="scale(0.015625)"/>
       <path id="HiraginoSansGB-W3-5355" d="M 1632 4115 
C 1325 4115 1139 4122 1005 4141 
C 1024 3968 1030 3795 1030 3501 
L 1030 2272 
C 1030 1997 1024 1869 1005 1664 
C 1216 1683 1376 1690 1638 1690 
L 2950 1690 
L 2950 1082 
L 1024 1082 
C 742 1082 550 1094 378 1120 
L 378 672 
C 570 698 768 710 1043 710 
L 2950 710 
L 2950 122 
C 2950 -192 2944 -314 2912 -480 
L 3392 -480 
C 3354 -294 3347 -173 3347 122 
L 3347 710 
L 5344 710 
C 5626 710 5837 698 6016 672 
L 6016 1120 
C 5850 1094 5651 1082 5370 1082 
L 3347 1082 
L 3347 1690 
L 4755 1690 
C 4986 1690 5171 1683 5389 1664 
C 5370 1818 5363 1984 5363 2291 
L 5363 3501 
C 5363 3808 5370 3968 5389 4141 
C 5261 4122 5069 4115 4755 4115 
L 3942 4115 
C 4173 4422 4429 4800 4646 5165 
L 4218 5306 
C 4045 4947 3782 4499 3501 4115 
L 1632 4115 
z
M 3347 3776 
L 4966 3776 
L 4966 3091 
L 3347 3091 
L 3347 3776 
z
M 2950 3776 
L 2950 3091 
L 1427 3091 
L 1427 3776 
L 2950 3776 
z
M 3347 2758 
L 4966 2758 
L 4966 2035 
L 3347 2035 
L 3347 2758 
z
M 2950 2758 
L 2950 2035 
L 1427 2035 
L 1427 2758 
L 2950 2758 
z
M 1722 5152 
C 1965 4870 2157 4576 2336 4211 
L 2714 4390 
C 2451 4838 2317 5037 2093 5306 
L 1722 5152 
z
" transform="scale(0.015625)"/>
       <path id="HiraginoSansGB-W3-4f4d" d="M 2534 262 
C 2214 262 2022 275 1843 301 
L 1843 -160 
C 2048 -128 2259 -115 2547 -115 
L 5453 -115 
C 5722 -115 5946 -128 6144 -160 
L 6144 301 
C 5965 275 5766 262 5453 262 
L 4454 262 
C 4768 1062 4979 1683 5178 2426 
C 5338 2995 5338 2995 5402 3194 
L 4915 3341 
C 4838 2624 4429 1184 4038 262 
L 2534 262 
z
M 2688 4077 
C 2368 4077 2182 4090 2010 4115 
L 2010 3674 
C 2157 3693 2355 3706 2688 3706 
L 5280 3706 
C 5549 3706 5754 3693 5946 3674 
L 5946 4115 
C 5766 4090 5574 4077 5280 4077 
L 4038 4077 
L 4320 4256 
C 4109 4672 3898 5018 3693 5280 
L 3360 5082 
C 3642 4717 3674 4659 3949 4077 
L 2688 4077 
z
M 1030 320 
C 1030 -32 1018 -224 986 -448 
L 1478 -448 
C 1446 -211 1434 6 1434 301 
L 1434 3706 
C 1664 4173 1779 4454 1946 4915 
C 2016 5114 2029 5139 2074 5254 
L 1619 5402 
C 1587 5178 1491 4832 1376 4531 
C 1088 3782 666 3117 147 2566 
C 250 2458 358 2304 403 2195 
C 691 2534 838 2746 1056 3130 
C 1037 2835 1030 2618 1030 2336 
L 1030 320 
z
M 3482 755 
C 3258 1830 3098 2413 2778 3270 
L 2374 3130 
C 2694 2330 2874 1677 3059 627 
L 3482 755 
z
" transform="scale(0.015625)"/>
       <path id="HiraginoSansGB-W3-ff09" d="M 813 -518 
C 1293 32 1491 339 1702 858 
C 1914 1370 2010 1875 2010 2432 
C 2010 2989 1914 3494 1702 4006 
C 1491 4525 1293 4832 813 5382 
L 243 5382 
C 781 4845 992 4550 1216 4058 
C 1446 3546 1562 3014 1562 2432 
C 1562 1850 1446 1318 1216 806 
C 992 314 781 19 243 -518 
L 813 -518 
z
" transform="scale(0.015625)"/>
      </defs>
      <use xlink:href="#HiraginoSansGB-W3-31"/>
      <use xlink:href="#HiraginoSansGB-W3-6708" transform="translate(65.699997 0)"/>
      <use xlink:href="#HiraginoSansGB-W3-5747" transform="translate(165.699982 0)"/>
      <use xlink:href="#HiraginoSansGB-W3-6e29" transform="translate(265.699966 0)"/>
      <use xlink:href="#HiraginoSansGB-W3-ff08" transform="translate(365.699951 0)"/>
      <use xlink:href="#HiraginoSansGB-W3-539f" transform="translate(465.699936 0)"/>
      <use xlink:href="#HiraginoSansGB-W3-59cb" transform="translate(565.699921 0)"/>
      <use xlink:href="#HiraginoSansGB-W3-5355" transform="translate(665.699905 0)"/>
      <use xlink:href="#HiraginoSansGB-W3-4f4d" transform="translate(765.69989 0)"/>
      <use xlink:href="#HiraginoSansGB-W3-ff09" transform="translate(865.699875 0)"/>
     </g>
    </g>
   </g>
   <g id="matplotlib.axis_2">
    <g id="ytick_1">
     <g id="line2d_6">
      <defs>
       <path id="m97275f1062" d="M 0 0 
L -3.5 0 
" style="stroke: #000000; stroke-width: 0.8"/>
      </defs>
      <g>
       <use xlink:href="#m97275f1062" x="47.77" y="56.174594" style="stroke: #000000; stroke-width: 0.8"/>
      </g>
     </g>
     <g id="text_7">
      <!-- 西昌 -->
      <g transform="translate(20.77 60.004281) scale(0.1 -0.1)">
       <defs>
        <path id="HiraginoSansGB-W3-897f" d="M 3898 4506 
L 5382 4506 
C 5638 4506 5850 4493 6042 4467 
L 6042 4922 
C 5862 4896 5651 4883 5376 4883 
L 1018 4883 
C 742 4883 525 4896 352 4922 
L 352 4467 
C 544 4493 755 4506 1011 4506 
L 2381 4506 
L 2381 4115 
C 2381 3942 2381 3808 2368 3546 
L 1478 3546 
C 1158 3546 928 3552 730 3578 
C 755 3334 768 3091 768 2790 
L 768 339 
C 768 -45 762 -224 730 -435 
L 1171 -435 
L 1171 19 
L 5216 19 
L 5216 -435 
L 5658 -435 
C 5632 -262 5619 -58 5619 326 
L 5619 2790 
C 5619 3130 5632 3334 5658 3578 
C 5421 3552 5235 3546 4896 3546 
L 3898 3546 
L 3898 4506 
z
M 3514 4506 
L 3514 3546 
L 2758 3546 
C 2765 3750 2771 3891 2771 4128 
L 2771 4506 
L 3514 4506 
z
M 5210 403 
L 1171 403 
L 1171 3174 
L 2342 3174 
C 2336 3117 2336 3117 2323 3008 
C 2291 2630 2195 2323 2048 2067 
C 1882 1792 1670 1613 1267 1402 
C 1402 1299 1466 1235 1562 1088 
C 1850 1254 1984 1363 2138 1523 
C 2387 1792 2586 2208 2662 2611 
C 2694 2778 2694 2778 2733 3174 
L 3514 3174 
L 3514 1856 
C 3514 1542 3648 1472 4282 1472 
C 4563 1472 4563 1472 5210 1504 
L 5210 403 
z
M 5210 1888 
C 4806 1850 4698 1843 4275 1843 
C 3981 1843 3898 1875 3898 1978 
L 3898 3174 
L 5210 3174 
L 5210 1888 
z
" transform="scale(0.015625)"/>
        <path id="HiraginoSansGB-W3-660c" d="M 4422 2816 
C 4704 2816 4902 2810 5120 2790 
C 5101 2957 5094 3091 5094 3322 
L 5094 4589 
C 5094 4819 5101 4960 5120 5120 
C 4902 5101 4710 5094 4403 5094 
L 1958 5094 
C 1651 5094 1453 5101 1235 5120 
C 1254 4941 1261 4819 1261 4589 
L 1261 3322 
C 1261 3091 1254 2976 1235 2790 
C 1453 2810 1664 2816 1939 2816 
L 4422 2816 
z
M 1658 4742 
L 4698 4742 
L 4698 4128 
L 1658 4128 
L 1658 4742 
z
M 1658 3795 
L 4698 3795 
L 4698 3155 
L 1658 3155 
L 1658 3795 
z
M 1318 2298 
C 1107 2298 966 2304 736 2323 
C 755 2138 762 1997 762 1824 
L 762 122 
C 762 -96 749 -269 723 -448 
L 1165 -448 
L 1165 -122 
L 5242 -122 
L 5242 -448 
L 5683 -448 
C 5658 -269 5645 -96 5645 122 
L 5645 1824 
C 5645 1997 5651 2150 5670 2323 
C 5434 2304 5299 2298 5088 2298 
L 1318 2298 
z
M 1165 1939 
L 5242 1939 
L 5242 1293 
L 1165 1293 
L 1165 1939 
z
M 1165 947 
L 5242 947 
L 5242 237 
L 1165 237 
L 1165 947 
z
" transform="scale(0.015625)"/>
       </defs>
       <use xlink:href="#HiraginoSansGB-W3-897f"/>
       <use xlink:href="#HiraginoSansGB-W3-660c" transform="translate(99.999985 0)"/>
      </g>
     </g>
    </g>
    <g id="ytick_2">
     <g id="line2d_7">
      <g>
       <use xlink:href="#m97275f1062" x="47.77" y="76.462073" style="stroke: #000000; stroke-width: 0.8"/>
      </g>
     </g>
     <g id="text_8">
      <!-- 会理 -->
      <g transform="translate(20.77 80.291761) scale(0.1 -0.1)">
       <defs>
        <path id="HiraginoSansGB-W3-4f1a" d="M 2336 1722 
C 2042 1222 1632 698 1210 282 
C 1120 211 1056 198 864 179 
L 960 -275 
C 1267 -224 1299 -218 1786 -186 
C 3258 -90 4454 19 4966 102 
C 5114 -128 5171 -224 5357 -518 
L 5722 -282 
C 5229 461 4915 858 4314 1510 
L 3955 1325 
C 4198 1069 4198 1069 4710 442 
C 4192 365 3149 275 1626 179 
C 2016 589 2016 589 2266 915 
C 2490 1210 2592 1357 2810 1722 
L 5197 1722 
C 5510 1722 5728 1709 5926 1683 
L 5926 2144 
C 5728 2118 5523 2106 5197 2106 
L 1254 2106 
C 934 2106 723 2118 525 2144 
L 525 1683 
C 717 1709 941 1722 1254 1722 
L 2336 1722 
z
M 1664 2886 
C 1792 2906 1971 2912 2163 2912 
L 4237 2912 
C 4474 2912 4640 2906 4774 2886 
L 4774 3315 
C 4634 3296 4486 3290 4237 3290 
L 2170 3290 
C 1933 3290 1792 3296 1664 3315 
L 1664 2886 
z
M 3488 5312 
L 3078 5517 
C 2720 4902 2522 4659 2042 4237 
C 1478 3738 1030 3462 250 3142 
C 358 3046 410 2963 493 2758 
C 1242 3136 1472 3270 1882 3571 
C 2362 3930 2726 4294 3168 4851 
C 3661 4262 3936 4006 4448 3642 
C 4922 3302 5299 3085 6010 2746 
C 6086 2957 6099 2982 6234 3168 
C 5594 3411 5165 3635 4659 3994 
C 4134 4358 3802 4666 3392 5184 
L 3488 5312 
z
" transform="scale(0.015625)"/>
        <path id="HiraginoSansGB-W3-7406" d="M 1542 4602 
L 1856 4602 
C 2061 4602 2182 4595 2349 4576 
L 2349 4998 
C 2195 4966 2067 4960 1824 4960 
L 851 4960 
C 602 4960 467 4966 314 4998 
L 314 4570 
C 486 4595 563 4602 819 4602 
L 1152 4602 
L 1152 3098 
L 819 3098 
C 627 3098 531 3104 390 3130 
L 390 2720 
C 531 2746 640 2752 813 2752 
L 1152 2752 
L 1152 966 
C 800 832 506 736 269 691 
L 397 243 
C 480 288 525 307 704 371 
C 1459 666 1728 787 2317 1075 
L 2291 1478 
C 1978 1318 1952 1306 1542 1126 
L 1542 2752 
L 1798 2752 
C 1958 2752 2080 2746 2227 2726 
L 2227 3130 
C 2080 3104 1984 3098 1798 3098 
L 1542 3098 
L 1542 4602 
z
M 4352 2163 
L 5082 2163 
C 5453 2163 5619 2157 5850 2138 
C 5830 2304 5824 2541 5824 2957 
L 5824 4243 
C 5824 4621 5830 4870 5850 5050 
C 5670 5024 5478 5018 5030 5018 
L 3347 5018 
C 2912 5018 2714 5024 2522 5050 
C 2541 4851 2554 4640 2554 4237 
L 2554 2874 
C 2547 2470 2547 2470 2541 2368 
C 2541 2317 2541 2253 2528 2138 
C 2707 2157 2918 2163 3322 2163 
L 3974 2163 
L 3974 1427 
L 3130 1427 
C 2810 1427 2675 1434 2515 1459 
L 2515 1037 
C 2682 1062 2822 1069 3130 1069 
L 3974 1069 
L 3974 128 
L 2643 128 
C 2336 128 2202 134 2035 160 
L 2035 -262 
C 2214 -237 2362 -230 2669 -230 
L 5530 -230 
C 5837 -230 5984 -237 6170 -262 
L 6170 160 
C 5997 134 5850 128 5542 128 
L 4352 128 
L 4352 1069 
L 5299 1069 
C 5594 1069 5747 1062 5926 1037 
L 5926 1459 
C 5754 1434 5613 1427 5299 1427 
L 4352 1427 
L 4352 2163 
z
M 3974 3757 
L 2938 3757 
L 2938 4666 
L 3974 4666 
L 3974 3757 
z
M 4352 3757 
L 4352 4666 
L 5434 4666 
L 5434 3757 
L 4352 3757 
z
M 3974 2515 
L 2938 2515 
L 2938 3418 
L 3974 3418 
L 3974 2515 
z
M 4352 2515 
L 4352 3418 
L 5434 3418 
L 5434 2515 
L 4352 2515 
z
" transform="scale(0.015625)"/>
       </defs>
       <use xlink:href="#HiraginoSansGB-W3-4f1a"/>
       <use xlink:href="#HiraginoSansGB-W3-7406" transform="translate(99.999985 0)"/>
      </g>
     </g>
    </g>
    <g id="ytick_3">
     <g id="line2d_8">
      <g>
       <use xlink:href="#m97275f1062" x="47.77" y="96.749552" style="stroke: #000000; stroke-width: 0.8"/>
      </g>
     </g>
     <g id="text_9">
      <!-- 宜宾 -->
      <g transform="translate(20.77 100.57924) scale(0.1 -0.1)">
       <defs>
        <path id="HiraginoSansGB-W3-5b9c" d="M 3462 4678 
C 3354 4928 3238 5126 3034 5395 
L 2707 5222 
C 2848 5024 2867 4992 3040 4678 
L 1210 4678 
C 915 4678 762 4685 570 4704 
C 589 4570 595 4454 595 4269 
L 595 3744 
C 595 3552 589 3437 570 3302 
L 992 3302 
L 992 4307 
L 5466 4307 
L 5466 3302 
L 5888 3302 
C 5869 3450 5862 3552 5862 3744 
L 5862 4269 
C 5862 4461 5869 4570 5888 4704 
C 5696 4685 5542 4678 5248 4678 
L 3462 4678 
z
M 4896 186 
L 4896 3187 
C 4896 3456 4902 3597 4922 3750 
C 4749 3731 4595 3725 4339 3725 
L 2106 3725 
C 1850 3725 1696 3731 1523 3750 
C 1542 3597 1549 3443 1549 3181 
L 1549 186 
L 1037 186 
C 762 186 563 198 390 224 
L 390 -224 
C 576 -198 774 -186 1037 -186 
L 5402 -186 
C 5664 -186 5862 -198 6048 -224 
L 6048 224 
C 5875 198 5677 186 5402 186 
L 4896 186 
z
M 1958 2208 
L 4486 2208 
L 4486 1408 
L 1958 1408 
L 1958 2208 
z
M 4486 2566 
L 1958 2566 
L 1958 3354 
L 4486 3354 
L 4486 2566 
z
M 1958 1050 
L 4486 1050 
L 4486 186 
L 1958 186 
L 1958 1050 
z
" transform="scale(0.015625)"/>
        <path id="HiraginoSansGB-W3-5bbe" d="M 4397 1299 
L 4397 2349 
L 4902 2349 
C 5158 2349 5299 2342 5478 2317 
L 5478 2733 
C 5312 2707 5178 2701 4902 2701 
L 1850 2701 
L 1850 3232 
C 2957 3296 4045 3450 4787 3642 
C 4934 3680 4934 3680 5005 3699 
L 4749 4090 
C 4563 3987 4192 3891 3597 3782 
C 2963 3661 2170 3590 1434 3584 
C 1446 3450 1453 3290 1453 3066 
L 1453 1299 
L 1094 1299 
C 806 1299 602 1312 390 1338 
L 390 896 
C 608 922 826 934 1101 934 
L 5306 934 
C 5587 934 5786 922 6003 896 
L 6003 1338 
C 5811 1312 5600 1299 5299 1299 
L 4397 1299 
z
M 3994 1299 
L 1850 1299 
L 1850 2349 
L 3994 2349 
L 3994 1299 
z
M 3533 4672 
C 3398 4896 3149 5222 2989 5376 
L 2694 5146 
C 2867 4960 2950 4864 3085 4672 
L 1152 4672 
C 870 4672 717 4678 506 4698 
C 525 4589 531 4499 531 4358 
L 531 3898 
C 531 3718 525 3629 499 3507 
L 941 3507 
L 941 4314 
L 5466 4314 
L 5466 3494 
L 5901 3494 
C 5882 3622 5875 3706 5875 3885 
L 5875 4358 
C 5875 4499 5882 4589 5901 4698 
C 5696 4678 5536 4672 5254 4672 
L 3533 4672 
z
M 2253 698 
C 1658 288 1261 128 358 -70 
C 493 -230 538 -294 602 -435 
C 1440 -205 1894 0 2554 448 
L 2253 698 
z
M 3782 403 
C 3930 346 4038 301 4109 275 
C 4454 134 4685 45 4768 13 
C 5114 -134 5312 -230 5670 -429 
L 5914 -70 
C 5517 115 4954 339 3974 698 
L 3782 403 
z
" transform="scale(0.015625)"/>
       </defs>
       <use xlink:href="#HiraginoSansGB-W3-5b9c"/>
       <use xlink:href="#HiraginoSansGB-W3-5bbe" transform="translate(99.999985 0)"/>
      </g>
     </g>
    </g>
    <g id="ytick_4">
     <g id="line2d_9">
      <g>
       <use xlink:href="#m97275f1062" x="47.77" y="117.037031" style="stroke: #000000; stroke-width: 0.8"/>
      </g>
     </g>
     <g id="text_10">
      <!-- 东兴区 -->
      <g transform="translate(10.77 120.866719) scale(0.1 -0.1)">
       <defs>
        <path id="HiraginoSansGB-W3-4e1c" d="M 3059 2208 
L 3059 122 
C 3059 19 3002 -6 2797 -6 
C 2573 -6 2406 6 2131 51 
C 2195 -77 2208 -122 2227 -314 
L 2240 -390 
C 2701 -410 2707 -410 2810 -410 
C 3341 -410 3469 -326 3469 19 
L 3469 2208 
L 4870 2208 
C 5107 2208 5299 2195 5536 2170 
L 5536 2624 
C 5363 2598 5158 2586 4870 2586 
L 3469 2586 
L 3469 3072 
C 3469 3277 3482 3456 3507 3603 
L 3021 3603 
C 3046 3462 3059 3296 3059 3072 
L 3059 2586 
L 1549 2586 
C 1779 2982 2112 3699 2285 4166 
L 5248 4166 
C 5581 4166 5798 4154 5965 4134 
L 5965 4576 
C 5805 4550 5587 4538 5242 4538 
L 2419 4538 
C 2426 4563 2426 4570 2438 4608 
C 2470 4698 2509 4813 2554 4947 
C 2650 5222 2650 5222 2701 5306 
L 2214 5370 
C 2182 5139 2118 4896 1997 4538 
L 1171 4538 
C 806 4538 595 4550 435 4576 
L 435 4134 
C 608 4160 819 4166 1171 4166 
L 1862 4166 
C 1715 3770 1485 3251 1299 2880 
C 1146 2650 1088 2598 890 2560 
L 1024 2163 
C 1158 2182 1434 2208 1568 2208 
L 3059 2208 
z
M 1798 1651 
C 1536 1229 1395 1043 1152 806 
C 902 563 666 397 237 160 
C 384 38 435 -13 538 -173 
C 1331 346 1632 646 2163 1472 
L 1798 1651 
z
M 6054 166 
C 5600 704 5165 1133 4550 1683 
L 4262 1421 
C 4909 838 5267 448 5754 -179 
L 6054 166 
z
" transform="scale(0.015625)"/>
        <path id="HiraginoSansGB-W3-5174" d="M 371 2048 
C 589 2074 794 2086 1126 2086 
L 5254 2086 
C 5728 2080 5728 2080 5894 2061 
C 5920 2061 5958 2054 6010 2048 
L 6010 2541 
C 5786 2515 5574 2502 5261 2502 
L 1133 2502 
C 819 2502 602 2515 371 2541 
L 371 2048 
z
M 710 4781 
C 1088 4173 1306 3712 1581 2950 
L 1997 3155 
C 1715 3898 1491 4371 1107 4979 
L 710 4781 
z
M 2419 5139 
C 2746 4512 2938 4019 3117 3328 
L 3546 3494 
C 3366 4128 3149 4672 2835 5299 
L 2419 5139 
z
M 4422 2816 
C 4915 3514 5088 3814 5658 5005 
L 5190 5210 
C 4826 4243 4589 3789 4032 2989 
L 4422 2816 
z
M 3923 1632 
C 4582 909 5056 314 5555 -416 
L 5914 -77 
C 5267 749 4896 1184 4262 1856 
L 3923 1632 
z
M 2067 1805 
C 2035 1690 1926 1478 1792 1267 
C 1459 749 902 243 333 -58 
C 474 -147 570 -243 685 -416 
C 1453 70 2016 672 2445 1472 
C 2483 1549 2490 1555 2522 1606 
L 2067 1805 
z
" transform="scale(0.015625)"/>
        <path id="HiraginoSansGB-W3-533a" d="M 5395 1114 
C 4832 1658 4326 2112 3898 2451 
C 4256 2886 4531 3296 4774 3776 
C 4870 3955 4890 3994 4954 4090 
L 4525 4301 
C 4410 3878 4019 3213 3590 2701 
C 2925 3206 2707 3360 1984 3846 
L 1709 3533 
C 2362 3136 2797 2829 3322 2400 
C 2778 1824 2234 1408 1421 934 
C 1549 826 1632 736 1734 614 
C 2573 1133 3053 1517 3629 2144 
C 4294 1574 4512 1370 5101 749 
L 5395 1114 
z
M 1082 224 
L 1082 4576 
L 5133 4576 
C 5440 4576 5613 4570 5830 4538 
L 5830 5011 
C 5632 4979 5466 4966 5139 4966 
L 1306 4966 
C 1050 4966 851 4973 634 4998 
C 653 4800 659 4602 659 4333 
L 659 294 
C 659 109 653 -26 634 -186 
C 787 -166 934 -160 1139 -160 
L 5286 -160 
C 5574 -160 5741 -173 5952 -205 
L 5952 262 
C 5805 237 5606 224 5293 224 
L 1082 224 
z
" transform="scale(0.015625)"/>
       </defs>
       <use xlink:href="#HiraginoSansGB-W3-4e1c"/>
       <use xlink:href="#HiraginoSansGB-W3-5174" transform="translate(99.999985 0)"/>
       <use xlink:href="#HiraginoSansGB-W3-533a" transform="translate(199.999969 0)"/>
      </g>
     </g>
    </g>
    <g id="ytick_5">
     <g id="line2d_10">
      <g>
       <use xlink:href="#m97275f1062" x="47.77" y="137.324511" style="stroke: #000000; stroke-width: 0.8"/>
      </g>
     </g>
     <g id="text_11">
      <!-- 阆中 -->
      <g transform="translate(20.77 141.154198) scale(0.1 -0.1)">
       <defs>
        <path id="HiraginoSansGB-W3-9606" d="M 3475 3597 
C 3315 3898 3258 3994 3098 4211 
L 2784 4026 
C 2899 3872 2944 3795 3008 3680 
C 3034 3629 3034 3629 3053 3597 
L 2253 3597 
C 2042 3597 1939 3603 1766 3616 
C 1786 3482 1792 3328 1792 3123 
L 1792 3110 
L 1786 934 
C 1786 627 1760 544 1619 448 
L 1741 90 
C 1894 141 1894 141 2176 198 
L 3290 474 
L 3270 832 
C 2963 742 2528 634 2157 557 
L 2157 1734 
L 4141 1734 
C 4339 1734 4467 1728 4614 1702 
C 4608 1792 4608 1901 4608 2163 
L 4608 3162 
C 4608 3386 4614 3507 4634 3616 
C 4429 3603 4301 3597 4032 3597 
L 3475 3597 
z
M 2157 3270 
L 4243 3270 
L 4243 2822 
L 2157 2822 
L 2157 3270 
z
M 2157 2502 
L 4243 2502 
L 4243 2067 
L 2157 2067 
L 2157 2502 
z
M 525 4019 
C 557 3782 563 3654 563 3296 
L 563 250 
C 563 -70 557 -250 525 -486 
L 1018 -486 
C 992 -301 986 -134 986 250 
L 986 3296 
C 986 3661 992 3808 1018 4019 
L 525 4019 
z
M 3014 1581 
L 2771 1299 
C 3654 870 4205 538 4717 141 
L 4928 454 
C 4467 768 4467 768 4166 941 
C 4474 1082 4870 1293 5082 1446 
C 5126 1478 5146 1485 5184 1510 
L 4877 1786 
C 4710 1626 4429 1453 3834 1158 
L 3014 1581 
z
M 768 5165 
C 1325 4531 1376 4461 1722 3910 
L 2080 4141 
C 1619 4781 1504 4922 1094 5363 
L 768 5165 
z
M 5402 4659 
L 5402 154 
C 5402 13 5344 -13 5011 -13 
C 4755 -13 4602 6 4243 70 
C 4307 -90 4320 -166 4358 -410 
C 4864 -429 4864 -429 4966 -429 
C 5267 -429 5485 -410 5574 -378 
C 5741 -320 5818 -186 5818 38 
L 5818 4499 
C 5818 4755 5824 4909 5843 5069 
C 5702 5050 5581 5043 5312 5043 
L 2874 5043 
C 2611 5043 2490 5050 2310 5075 
L 2310 4627 
C 2490 4653 2611 4659 2893 4659 
L 5402 4659 
z
" transform="scale(0.015625)"/>
        <path id="HiraginoSansGB-W3-4e2d" d="M 3360 4122 
L 3360 4685 
C 3360 4960 3373 5139 3405 5338 
L 2893 5338 
C 2925 5139 2938 4986 2938 4672 
L 2938 4122 
L 1158 4122 
C 954 4122 832 4128 678 4147 
C 698 3981 710 3840 710 3642 
L 710 1894 
C 710 1690 698 1510 672 1325 
L 1133 1325 
L 1133 1760 
L 2938 1760 
L 2938 269 
C 2938 -77 2925 -243 2893 -461 
L 3405 -461 
C 3366 -256 3360 -96 3360 269 
L 3360 1760 
L 5267 1760 
L 5267 1325 
L 5728 1325 
C 5702 1517 5690 1683 5690 1894 
L 5690 3642 
C 5690 3846 5696 3981 5722 4147 
C 5574 4128 5453 4122 5235 4122 
L 3360 4122 
z
M 3360 3738 
L 5267 3738 
L 5267 2144 
L 3360 2144 
L 3360 3738 
z
M 2938 2144 
L 1133 2144 
L 1133 3738 
L 2938 3738 
L 2938 2144 
z
" transform="scale(0.015625)"/>
       </defs>
       <use xlink:href="#HiraginoSansGB-W3-9606"/>
       <use xlink:href="#HiraginoSansGB-W3-4e2d" transform="translate(99.999985 0)"/>
      </g>
     </g>
    </g>
    <g id="ytick_6">
     <g id="line2d_11">
      <g>
       <use xlink:href="#m97275f1062" x="47.77" y="157.61199" style="stroke: #000000; stroke-width: 0.8"/>
      </g>
     </g>
     <g id="text_12">
      <!-- 高坪 -->
      <g transform="translate(20.77 161.441677) scale(0.1 -0.1)">
       <defs>
        <path id="HiraginoSansGB-W3-9ad8" d="M 3443 4806 
C 3187 5197 3181 5197 3034 5382 
L 2675 5178 
C 2835 4986 2886 4922 2970 4806 
L 1050 4806 
C 774 4806 589 4819 403 4845 
L 403 4422 
C 602 4448 787 4454 1037 4454 
L 5344 4454 
C 5600 4454 5773 4448 5978 4422 
L 5978 4845 
C 5779 4819 5613 4806 5344 4806 
L 3443 4806 
z
M 1466 3226 
C 1466 2976 1459 2861 1446 2726 
C 1651 2746 1779 2752 2022 2752 
L 4384 2752 
C 4659 2752 4787 2746 4973 2726 
C 4954 2867 4954 2944 4954 3226 
L 4954 3571 
C 4954 3789 4960 3878 4973 4064 
C 4794 4045 4678 4038 4429 4038 
L 2054 4038 
C 1779 4038 1613 4045 1446 4064 
C 1459 3930 1466 3782 1466 3578 
L 1466 3226 
z
M 1856 3706 
L 4563 3706 
L 4563 3078 
L 1856 3078 
L 1856 3706 
z
M 614 141 
C 614 -109 602 -333 576 -506 
L 1050 -506 
C 1018 -288 1011 -134 1011 147 
L 1011 1990 
L 5395 1990 
L 5395 115 
C 5395 -19 5370 -32 5139 -32 
C 4902 -32 4666 -13 4410 26 
C 4461 -122 4480 -198 4493 -371 
C 4851 -390 4934 -390 5088 -390 
C 5434 -390 5536 -378 5638 -307 
C 5747 -230 5786 -122 5786 96 
L 5786 1792 
C 5786 2016 5792 2157 5811 2355 
C 5645 2336 5504 2330 5190 2330 
L 1222 2330 
C 954 2330 774 2336 589 2355 
C 608 2163 614 2003 614 1779 
L 614 141 
z
M 4467 1158 
C 4467 1370 4474 1466 4486 1594 
C 4320 1581 4166 1574 3923 1574 
L 2387 1574 
C 2150 1574 2016 1581 1869 1594 
C 1882 1459 1888 1344 1888 1126 
L 1888 800 
C 1888 576 1882 467 1869 282 
C 1939 294 2253 307 2387 307 
L 3898 307 
C 4122 307 4320 301 4486 288 
C 4474 416 4467 512 4467 742 
L 4467 1158 
z
M 2266 1254 
L 4096 1254 
L 4096 627 
L 2266 627 
L 2266 1254 
z
" transform="scale(0.015625)"/>
        <path id="HiraginoSansGB-W3-576a" d="M 1536 3558 
L 1536 4646 
C 1536 4922 1542 5050 1574 5254 
L 1101 5254 
C 1126 5069 1139 4902 1139 4634 
L 1139 3558 
L 864 3558 
C 595 3558 467 3565 307 3597 
L 307 3162 
C 493 3194 595 3200 864 3200 
L 1139 3200 
L 1139 1101 
C 794 960 512 870 262 813 
L 384 397 
C 474 435 544 467 653 506 
C 1402 794 1766 960 2355 1274 
L 2330 1677 
C 1933 1453 1786 1376 1536 1267 
L 1536 3200 
L 1722 3200 
C 1939 3200 2086 3194 2240 3174 
L 2240 3590 
C 2125 3565 1997 3558 1728 3558 
L 1536 3558 
z
M 4262 4678 
L 5408 4678 
C 5677 4678 5811 4672 5990 4646 
L 5990 5082 
C 5811 5056 5651 5043 5408 5043 
L 2848 5043 
C 2605 5043 2438 5056 2259 5082 
L 2259 4646 
C 2438 4672 2579 4678 2848 4678 
L 3859 4678 
L 3859 2227 
L 2694 2227 
C 2413 2227 2272 2234 2106 2259 
L 2106 1811 
C 2298 1837 2458 1850 2694 1850 
L 3859 1850 
L 3859 218 
C 3859 -58 3846 -243 3814 -474 
L 4314 -474 
C 4275 -262 4262 -77 4262 218 
L 4262 1850 
L 5542 1850 
C 5779 1850 5939 1837 6125 1811 
L 6125 2259 
C 5952 2234 5824 2227 5542 2227 
L 4262 2227 
L 4262 4678 
z
M 2394 4192 
C 2675 3635 2810 3251 2963 2547 
L 3341 2694 
C 3174 3360 3066 3680 2758 4352 
L 2394 4192 
z
M 5440 4346 
C 5274 3744 5088 3328 4723 2694 
L 5082 2541 
C 5389 3078 5587 3514 5837 4173 
L 5440 4346 
z
" transform="scale(0.015625)"/>
       </defs>
       <use xlink:href="#HiraginoSansGB-W3-9ad8"/>
       <use xlink:href="#HiraginoSansGB-W3-576a" transform="translate(99.999985 0)"/>
      </g>
     </g>
    </g>
    <g id="ytick_7">
     <g id="line2d_12">
      <g>
       <use xlink:href="#m97275f1062" x="47.77" y="177.899469" style="stroke: #000000; stroke-width: 0.8"/>
      </g>
     </g>
     <g id="text_13">
      <!-- 达川 -->
      <g transform="translate(20.77 181.729156) scale(0.1 -0.1)">
       <defs>
        <path id="HiraginoSansGB-W3-8fbe" d="M 6061 1126 
C 5555 1869 4922 2656 4115 3514 
C 4128 3616 4134 3648 4134 3699 
L 5402 3699 
C 5645 3699 5875 3686 6035 3661 
L 6035 4102 
C 5875 4077 5670 4064 5421 4064 
L 4166 4064 
C 4179 4326 4186 4538 4192 4915 
C 4192 5158 4192 5235 4211 5363 
L 3757 5363 
C 3776 5229 3782 5075 3782 4762 
C 3782 4531 3776 4365 3763 4064 
L 2707 4064 
C 2464 4064 2246 4077 2080 4102 
L 2080 3661 
C 2253 3686 2464 3699 2707 3699 
L 3731 3699 
C 3674 3098 3546 2694 3290 2259 
C 2989 1760 2605 1427 1952 1114 
C 2061 979 2074 966 2157 813 
C 2170 800 2182 774 2202 742 
C 2752 1075 3155 1408 3418 1741 
C 3699 2099 3917 2579 4045 3078 
C 4294 2784 4397 2662 4614 2381 
C 5280 1536 5434 1325 5722 826 
L 6061 1126 
z
M 1638 2202 
C 1645 2515 1651 2656 1670 2848 
C 1510 2822 1395 2816 1190 2816 
L 838 2816 
C 589 2816 486 2822 346 2848 
L 346 2432 
C 493 2458 595 2464 813 2464 
L 1254 2464 
L 1254 934 
C 1171 909 1075 845 909 730 
C 762 621 518 390 237 90 
L 518 -243 
C 845 218 1203 563 1357 563 
C 1414 563 1485 525 1536 467 
C 1773 192 1773 192 1882 115 
C 2112 -38 2336 -122 2630 -160 
C 2906 -198 3424 -230 3821 -230 
C 4736 -230 5453 -218 6067 -186 
C 6112 19 6118 51 6221 282 
C 5856 230 5709 218 5242 192 
C 5011 179 3930 160 3565 160 
C 3181 160 2618 218 2419 282 
C 2157 365 1990 480 1773 742 
C 1709 819 1677 845 1638 883 
L 1638 2202 
z
M 499 4941 
C 928 4538 1133 4307 1498 3782 
L 1818 4070 
C 1446 4550 1229 4794 794 5203 
L 499 4941 
z
" transform="scale(0.015625)"/>
        <path id="HiraginoSansGB-W3-5ddd" d="M 1510 4646 
C 1510 4947 1517 5069 1549 5229 
L 1037 5229 
C 1062 5043 1075 4909 1075 4659 
L 1075 3398 
C 1075 1555 858 698 192 -38 
C 358 -154 435 -224 557 -378 
C 1274 550 1510 1478 1510 3379 
L 1510 4646 
z
M 3046 4966 
C 3072 4813 3085 4653 3085 4365 
L 3085 979 
C 3085 640 3072 442 3046 256 
L 3558 256 
C 3533 435 3520 640 3520 979 
L 3520 4365 
C 3520 4614 3533 4781 3558 4966 
L 3046 4966 
z
M 5114 5210 
C 5146 5030 5152 4890 5152 4589 
L 5152 422 
C 5152 32 5139 -186 5114 -378 
L 5626 -378 
C 5594 -173 5587 19 5587 422 
L 5587 4589 
C 5587 4896 5594 5030 5626 5210 
L 5114 5210 
z
" transform="scale(0.015625)"/>
       </defs>
       <use xlink:href="#HiraginoSansGB-W3-8fbe"/>
       <use xlink:href="#HiraginoSansGB-W3-5ddd" transform="translate(99.999985 0)"/>
      </g>
     </g>
    </g>
    <g id="ytick_8">
     <g id="line2d_13">
      <g>
       <use xlink:href="#m97275f1062" x="47.77" y="198.186948" style="stroke: #000000; stroke-width: 0.8"/>
      </g>
     </g>
     <g id="text_14">
      <!-- 温江 -->
      <g transform="translate(20.77 202.016635) scale(0.1 -0.1)">
       <defs>
        <path id="HiraginoSansGB-W3-6c5f" d="M 4160 384 
L 4160 4416 
L 5197 4416 
C 5427 4416 5670 4403 5869 4378 
L 5869 4851 
C 5677 4819 5453 4806 5197 4806 
L 2899 4806 
C 2611 4806 2406 4819 2227 4845 
L 2227 4384 
C 2400 4403 2643 4416 2899 4416 
L 3712 4416 
L 3712 384 
L 2541 384 
C 2246 384 2010 397 1843 422 
L 1843 -58 
C 2042 -26 2272 -13 2547 -13 
L 5382 -13 
C 5645 -13 5882 -26 6080 -58 
L 6080 422 
C 5926 397 5677 384 5382 384 
L 4160 384 
z
M 621 4915 
C 1120 4621 1421 4384 1824 3974 
L 2099 4314 
C 1702 4678 1376 4922 902 5203 
L 621 4915 
z
M 288 3347 
C 806 3072 1120 2854 1523 2470 
L 1786 2848 
C 1325 3213 1043 3398 544 3680 
L 288 3347 
z
M 1542 1901 
C 1370 1510 1286 1350 1062 979 
C 890 691 877 666 582 288 
C 493 173 467 147 352 45 
L 723 -307 
C 787 -205 794 -192 915 -32 
C 1216 384 1581 1005 1882 1632 
L 1542 1901 
z
" transform="scale(0.015625)"/>
       </defs>
       <use xlink:href="#HiraginoSansGB-W3-6e29"/>
       <use xlink:href="#HiraginoSansGB-W3-6c5f" transform="translate(99.999985 0)"/>
      </g>
     </g>
    </g>
    <g id="ytick_9">
     <g id="line2d_14">
      <g>
       <use xlink:href="#m97275f1062" x="47.77" y="218.474427" style="stroke: #000000; stroke-width: 0.8"/>
      </g>
     </g>
     <g id="text_15">
      <!-- 万源 -->
      <g transform="translate(20.77 222.304115) scale(0.1 -0.1)">
       <defs>
        <path id="HiraginoSansGB-W3-4e07" d="M 5370 4512 
C 5638 4512 5862 4499 6054 4474 
L 6054 4941 
C 5843 4915 5645 4902 5370 4902 
L 1069 4902 
C 787 4902 582 4915 384 4941 
L 384 4474 
C 589 4499 800 4512 1069 4512 
L 2336 4512 
C 2323 4090 2323 4032 2310 3821 
C 2259 3040 2125 2374 1914 1850 
C 1581 1005 1152 486 307 -115 
C 448 -211 538 -294 653 -454 
C 1229 0 1542 320 1837 762 
C 2246 1389 2490 2035 2637 2880 
L 4902 2880 
C 4877 1997 4800 1197 4678 608 
C 4582 160 4499 83 4128 83 
C 3834 83 3520 122 3008 218 
C 3066 64 3098 -58 3110 -243 
C 3578 -301 3859 -320 4096 -320 
C 4672 -320 4883 -198 5024 211 
C 5178 653 5280 1536 5331 2797 
C 5344 3066 5350 3181 5370 3296 
C 5210 3270 5011 3264 4627 3264 
L 2688 3264 
C 2739 3699 2739 3699 2778 4512 
L 5370 4512 
z
" transform="scale(0.015625)"/>
        <path id="HiraginoSansGB-W3-6e90" d="M 4262 3987 
C 4371 4262 4397 4326 4486 4659 
L 5331 4659 
C 5574 4659 5818 4646 6003 4627 
L 6003 5056 
C 5818 5030 5638 5024 5325 5024 
L 2662 5024 
C 2368 5024 2227 5030 2054 5056 
C 2074 4774 2086 4474 2086 4211 
L 2086 4166 
L 2080 3360 
C 2074 2477 1978 1600 1824 1030 
C 1709 595 1587 307 1370 -38 
C 1555 -160 1594 -198 1709 -339 
C 2266 621 2483 1811 2483 3936 
L 2483 4659 
L 4077 4659 
C 4032 4416 3962 4192 3866 3987 
L 3507 3987 
C 3258 3987 3066 3994 2899 4013 
C 2912 3859 2918 3706 2918 3507 
L 2918 2259 
C 2918 2048 2912 1926 2893 1805 
C 3085 1824 3245 1830 3437 1830 
L 4090 1830 
L 4090 141 
C 4090 6 4058 -26 3904 -26 
C 3718 -26 3578 -13 3309 26 
C 3366 -134 3386 -224 3398 -378 
C 3565 -390 3782 -397 3923 -397 
C 4122 -397 4211 -384 4307 -346 
C 4422 -294 4486 -166 4486 26 
L 4486 1830 
L 5190 1830 
C 5389 1830 5530 1824 5702 1805 
C 5683 1926 5677 2048 5677 2304 
L 5677 3533 
C 5677 3763 5683 3891 5702 4013 
C 5523 3994 5357 3987 5107 3987 
L 4262 3987 
z
M 3296 3654 
L 5299 3654 
L 5299 3098 
L 3296 3098 
L 3296 3654 
z
M 3296 2765 
L 5299 2765 
L 5299 2170 
L 3296 2170 
L 3296 2765 
z
M 531 4922 
C 922 4666 1133 4474 1466 4090 
L 1754 4384 
C 1453 4710 1216 4915 819 5197 
L 531 4922 
z
M 243 3341 
C 672 3078 870 2925 1274 2522 
L 1530 2867 
C 1171 3206 922 3392 499 3648 
L 243 3341 
z
M 1133 1882 
C 890 1005 544 224 282 -38 
L 646 -365 
C 1088 499 1210 819 1453 1658 
L 1133 1882 
z
M 4947 1421 
C 5280 915 5472 544 5715 -102 
L 6067 96 
C 5830 678 5645 1024 5280 1594 
L 4947 1421 
z
M 3110 1562 
C 3034 1216 2982 1050 2854 794 
C 2720 518 2618 371 2387 96 
C 2522 13 2592 -45 2701 -166 
C 3110 371 3290 749 3482 1440 
L 3110 1562 
z
" transform="scale(0.015625)"/>
       </defs>
       <use xlink:href="#HiraginoSansGB-W3-4e07"/>
       <use xlink:href="#HiraginoSansGB-W3-6e90" transform="translate(99.999985 0)"/>
      </g>
     </g>
    </g>
    <g id="ytick_10">
     <g id="line2d_15">
      <g>
       <use xlink:href="#m97275f1062" x="47.77" y="238.761906" style="stroke: #000000; stroke-width: 0.8"/>
      </g>
     </g>
     <g id="text_16">
      <!-- 巴塘 -->
      <g transform="translate(20.77 242.591594) scale(0.1 -0.1)">
       <defs>
        <path id="HiraginoSansGB-W3-5df4" d="M 1408 5050 
C 1146 5050 992 5056 774 5082 
C 794 4883 800 4685 800 4442 
L 800 614 
C 800 109 864 -38 1133 -147 
C 1376 -243 1830 -275 2906 -275 
C 4070 -275 4723 -256 5062 -211 
C 5504 -160 5664 -45 5798 314 
C 5869 493 5907 723 5958 1229 
C 5792 1261 5683 1299 5530 1376 
C 5523 922 5466 582 5370 397 
C 5248 166 5005 134 3392 134 
C 2189 134 1843 147 1555 205 
C 1286 256 1222 333 1222 634 
L 1222 2515 
L 5094 2515 
L 5094 2074 
L 5555 2074 
C 5536 2240 5530 2394 5530 2669 
L 5530 4442 
C 5530 4691 5536 4890 5555 5082 
C 5338 5056 5178 5050 4915 5050 
L 1408 5050 
z
M 2925 4653 
L 2925 2893 
L 1222 2893 
L 1222 4653 
L 2925 4653 
z
M 3341 4653 
L 5107 4653 
L 5107 2893 
L 3341 2893 
L 3341 4653 
z
" transform="scale(0.015625)"/>
        <path id="HiraginoSansGB-W3-5858" d="M 4090 2656 
L 4090 2150 
L 3405 2150 
C 3200 2150 3053 2157 2912 2182 
L 2912 1798 
C 3059 1824 3213 1830 3411 1830 
L 4090 1830 
L 4090 1331 
L 3398 1331 
C 3168 1331 3040 1338 2925 1350 
C 2944 1235 2950 1088 2950 909 
L 2950 96 
C 2950 -122 2938 -307 2918 -461 
L 3334 -461 
L 3334 -122 
L 5306 -122 
L 5306 -454 
L 5722 -454 
C 5702 -294 5690 -83 5690 128 
L 5690 864 
C 5690 1075 5696 1229 5715 1350 
C 5632 1338 5472 1331 5267 1331 
L 4442 1331 
L 4442 1830 
L 5267 1830 
C 5453 1830 5530 1824 5715 1811 
C 5690 1946 5683 2054 5683 2221 
L 5683 2656 
C 5811 2656 5971 2643 6125 2624 
L 6125 3021 
C 5971 2995 5869 2982 5683 2982 
L 5683 3418 
C 5683 3590 5690 3712 5715 3827 
C 5581 3814 5466 3808 5254 3808 
L 4442 3808 
L 4442 3827 
C 4442 4000 4454 4128 4474 4230 
L 4058 4230 
C 4077 4122 4090 3987 4090 3827 
L 4090 3808 
L 3501 3808 
C 3264 3808 3123 3814 2957 3840 
L 2957 3469 
C 3130 3488 3270 3494 3488 3494 
L 4090 3494 
L 4090 2982 
L 2662 2982 
C 2675 3411 2682 3629 2688 4365 
L 5440 4365 
C 5638 4365 5837 4352 6016 4333 
L 6016 4749 
C 5843 4723 5664 4710 5427 4710 
L 4461 4710 
C 4314 4973 4237 5101 4032 5402 
L 3674 5248 
C 3827 5043 3885 4954 4013 4710 
L 2854 4710 
C 2630 4710 2451 4723 2278 4742 
C 2298 4576 2304 4390 2304 3955 
C 2304 1638 2118 768 1434 -160 
C 1606 -250 1658 -282 1792 -410 
C 2342 461 2573 1248 2637 2502 
C 2643 2598 2643 2598 2643 2656 
L 4090 2656 
z
M 5331 2982 
L 4442 2982 
L 4442 3494 
L 5331 3494 
L 5331 2982 
z
M 5331 2656 
L 5331 2150 
L 4442 2150 
L 4442 2656 
L 5331 2656 
z
M 3334 1005 
L 5306 1005 
L 5306 211 
L 3334 211 
L 3334 1005 
z
M 1427 3642 
L 1427 4576 
C 1427 4890 1440 5082 1466 5280 
L 998 5280 
C 1024 5107 1037 4870 1037 4576 
L 1037 3642 
L 838 3642 
C 608 3642 448 3648 275 3674 
L 275 3251 
C 448 3270 614 3283 826 3283 
L 1037 3283 
L 1037 1203 
C 646 1030 397 941 205 902 
L 320 461 
C 397 506 480 544 595 595 
C 1498 1005 1613 1056 2010 1286 
L 1990 1670 
C 1766 1536 1722 1510 1427 1376 
L 1427 3283 
L 1549 3283 
C 1786 3283 1939 3277 2074 3258 
L 2074 3667 
C 1933 3648 1786 3642 1549 3642 
L 1427 3642 
z
" transform="scale(0.015625)"/>
       </defs>
       <use xlink:href="#HiraginoSansGB-W3-5df4"/>
       <use xlink:href="#HiraginoSansGB-W3-5858" transform="translate(99.999985 0)"/>
      </g>
     </g>
    </g>
    <g id="ytick_11">
     <g id="line2d_16">
      <g>
       <use xlink:href="#m97275f1062" x="47.77" y="259.049385" style="stroke: #000000; stroke-width: 0.8"/>
      </g>
     </g>
     <g id="text_17">
      <!-- 九龙 -->
      <g transform="translate(20.77 262.879073) scale(0.1 -0.1)">
       <defs>
        <path id="HiraginoSansGB-W3-4e5d" d="M 2355 3450 
C 2323 3072 2272 2733 2189 2381 
C 1990 1562 1670 1018 1101 512 
C 870 314 678 179 282 -45 
C 422 -166 486 -237 582 -410 
C 1722 262 2349 1107 2630 2368 
C 2707 2701 2720 2797 2784 3450 
L 4237 3450 
L 4230 134 
C 4230 -230 4371 -314 5018 -314 
C 5600 -314 5837 -250 5946 -64 
C 6067 141 6138 506 6208 1286 
C 6048 1318 5939 1363 5792 1453 
C 5773 896 5728 499 5664 314 
C 5600 122 5504 83 5094 83 
C 4685 83 4659 96 4659 282 
L 4666 3168 
C 4666 3469 4672 3642 4698 3885 
C 4480 3859 4294 3853 3987 3853 
L 2816 3853 
C 2829 4000 2861 4550 2867 4762 
C 2874 5050 2880 5139 2899 5293 
L 2394 5293 
C 2413 5114 2419 4973 2419 4749 
C 2419 4480 2413 4269 2387 3853 
L 1350 3853 
C 986 3853 781 3866 602 3891 
L 602 3411 
C 781 3437 979 3450 1350 3450 
L 2355 3450 
z
" transform="scale(0.015625)"/>
        <path id="HiraginoSansGB-W3-9f99" d="M 3981 3450 
L 5203 3450 
C 5536 3450 5728 3437 5907 3411 
L 5907 3878 
C 5715 3853 5504 3840 5197 3840 
L 2778 3840 
C 2810 4333 2816 4474 2816 4698 
C 2822 4966 2829 5120 2854 5254 
L 2362 5254 
C 2394 5094 2406 4909 2406 4608 
C 2406 4371 2394 4160 2374 3840 
L 1178 3840 
C 845 3840 653 3853 480 3878 
L 480 3411 
C 685 3437 909 3450 1178 3450 
L 2342 3450 
C 2317 3053 2221 2522 2125 2182 
C 1939 1530 1638 1011 1184 570 
C 890 282 723 166 224 -115 
C 358 -205 442 -294 544 -448 
C 883 -262 1261 38 1530 333 
C 2061 909 2406 1562 2566 2285 
C 2656 2694 2726 3136 2752 3450 
L 3578 3450 
L 3578 1325 
C 3027 947 2694 774 2029 518 
C 2138 422 2227 307 2278 179 
C 2880 454 3136 595 3578 877 
L 3578 205 
C 3578 -115 3654 -230 3923 -282 
C 4083 -314 4326 -326 4627 -326 
C 5318 -326 5651 -262 5786 -102 
C 5920 45 5984 390 6029 1152 
C 5875 1197 5766 1248 5632 1325 
C 5606 320 5562 166 5312 115 
C 5178 83 4896 64 4672 64 
C 4422 64 4237 77 4141 102 
C 4013 134 3981 179 3981 301 
L 3981 1158 
C 4371 1466 4678 1798 5030 2285 
C 5139 2432 5165 2477 5274 2605 
L 4858 2842 
C 4710 2451 4365 1971 3981 1632 
L 3981 3450 
z
M 3853 4896 
C 4339 4659 4653 4461 5088 4122 
L 5344 4448 
C 4864 4781 4627 4922 4109 5165 
L 3853 4896 
z
" transform="scale(0.015625)"/>
       </defs>
       <use xlink:href="#HiraginoSansGB-W3-4e5d"/>
       <use xlink:href="#HiraginoSansGB-W3-9f99" transform="translate(99.999985 0)"/>
      </g>
     </g>
    </g>
    <g id="ytick_12">
     <g id="line2d_17">
      <g>
       <use xlink:href="#m97275f1062" x="47.77" y="279.336865" style="stroke: #000000; stroke-width: 0.8"/>
      </g>
     </g>
     <g id="text_18">
      <!-- 马尔康 -->
      <g transform="translate(10.77 283.166552) scale(0.1 -0.1)">
       <defs>
        <path id="HiraginoSansGB-W3-9a6c" d="M 4122 2541 
L 1651 2541 
L 1811 3648 
C 1882 4000 1882 4000 1901 4077 
C 1907 4096 1914 4115 1920 4141 
L 1427 4141 
C 1434 4115 1434 4090 1434 4077 
C 1434 3968 1421 3789 1402 3674 
L 1261 2707 
C 1235 2547 1178 2304 1133 2163 
C 1280 2176 1446 2182 1664 2182 
L 5446 2182 
C 5408 1747 5370 1389 5312 1005 
C 5235 442 5165 154 5069 45 
C 5011 -26 4947 -45 4762 -45 
C 4557 -45 4250 -19 3962 19 
C 4051 -250 4058 -282 4070 -422 
C 4314 -442 4422 -448 4685 -448 
C 5178 -448 5306 -410 5446 -205 
C 5574 -19 5664 429 5766 1331 
C 5869 2253 5875 2310 5920 2573 
C 5811 2554 5562 2541 5350 2541 
L 4557 2541 
L 4960 4378 
C 4992 4518 5082 4826 5146 5018 
C 5018 5005 4749 4992 4582 4992 
L 4550 4992 
L 1453 4998 
C 1114 4998 922 5011 749 5037 
L 749 4602 
C 934 4627 1126 4634 1453 4634 
L 4582 4634 
L 4122 2541 
z
M 4646 1408 
C 4467 1376 4294 1370 3936 1370 
L 1030 1370 
C 691 1370 493 1382 326 1408 
L 326 954 
C 499 979 698 992 1030 992 
L 3936 992 
C 4230 992 4435 979 4646 954 
L 4646 1408 
z
" transform="scale(0.015625)"/>
        <path id="HiraginoSansGB-W3-5c14" d="M 640 2464 
C 1043 2854 1395 3322 1709 3866 
L 5331 3866 
C 5158 3571 5030 3405 4704 3078 
C 4838 3002 4947 2925 5050 2835 
C 5318 3117 5498 3354 5709 3706 
C 5798 3859 5811 3872 5888 3994 
L 5645 4269 
C 5562 4256 5408 4243 5165 4243 
L 1914 4243 
L 2022 4467 
L 2208 4864 
C 2285 5043 2310 5094 2349 5178 
L 1882 5318 
C 1722 4531 979 3334 307 2784 
C 442 2694 544 2592 640 2464 
z
M 499 589 
C 672 467 723 422 845 269 
C 1510 947 1888 1568 2278 2618 
L 1856 2771 
C 1651 1971 1126 1133 499 589 
z
M 1888 109 
C 1946 -58 1978 -173 1997 -346 
C 2298 -371 2534 -384 2778 -384 
C 3373 -384 3507 -288 3507 128 
L 3507 2970 
C 3507 3328 3507 3405 3539 3597 
L 3027 3597 
C 3059 3430 3066 3302 3066 2970 
L 3066 186 
C 3066 51 3021 26 2790 26 
C 2522 26 2278 45 1888 109 
z
M 4570 2797 
L 4211 2611 
C 4634 2003 5299 813 5549 237 
L 5946 512 
C 5856 678 5773 826 5741 877 
C 5696 947 5587 1133 5421 1408 
L 5043 2048 
C 4813 2438 4774 2490 4570 2797 
z
" transform="scale(0.015625)"/>
        <path id="HiraginoSansGB-W3-5eb7" d="M 3302 3136 
L 1242 3136 
C 1254 3904 1254 3904 1254 4454 
L 5427 4454 
C 5664 4454 5830 4448 6035 4422 
L 6035 4838 
C 5882 4813 5690 4800 5370 4800 
L 3795 4800 
C 3552 5082 3456 5171 3168 5370 
L 2912 5158 
C 3059 5050 3123 4998 3213 4902 
C 3283 4838 3283 4838 3322 4800 
L 1549 4800 
C 1203 4800 1018 4806 832 4832 
C 851 4653 858 4474 858 4109 
C 858 2803 781 1696 640 998 
C 557 576 461 301 237 -141 
C 397 -250 454 -301 576 -442 
C 1005 416 1165 1216 1229 2803 
L 3302 2803 
L 3302 2291 
L 2125 2291 
C 1901 2291 1766 2298 1626 2323 
L 1626 1933 
C 1766 1958 1914 1965 2138 1965 
L 3302 1965 
L 3302 1126 
C 2573 768 2304 659 1722 474 
C 1414 378 1350 358 1197 333 
L 1395 -70 
C 1472 -38 1536 -6 1638 32 
C 2362 307 2483 358 3302 762 
L 3302 115 
C 3302 -19 3264 -38 3040 -38 
C 2816 -38 2611 -13 2362 38 
C 2419 -122 2438 -224 2451 -397 
C 2701 -416 2861 -422 3034 -422 
C 3539 -422 3667 -326 3667 58 
L 3667 1062 
C 3667 1197 3654 1517 3635 1709 
C 3898 1210 4134 877 4442 582 
C 4838 192 5146 -13 5811 -365 
C 5926 -192 6003 -109 6099 -13 
C 5491 243 5101 480 4691 851 
C 5018 1056 5350 1325 5754 1702 
L 5414 1946 
C 5158 1626 4890 1389 4442 1094 
C 4186 1370 4019 1594 3859 1894 
C 3853 1907 3834 1933 3821 1965 
L 4954 1965 
C 5101 1965 5139 1965 5421 1952 
C 5408 2086 5408 2125 5408 2400 
L 5408 2803 
L 5594 2803 
C 5786 2803 5939 2797 6099 2771 
L 6099 3168 
C 5978 3142 5856 3136 5600 3136 
L 5408 3136 
L 5408 3520 
C 5408 3706 5408 3840 5427 3962 
C 5248 3942 5126 3936 4877 3936 
L 3674 3936 
C 3674 4186 3680 4205 3699 4307 
L 3270 4307 
C 3290 4198 3296 4128 3302 3936 
L 2189 3936 
C 1946 3936 1824 3942 1683 3968 
L 1683 3578 
C 1837 3603 1978 3610 2189 3610 
L 3302 3610 
L 3302 3136 
z
M 5037 2803 
L 5037 2291 
L 3674 2291 
L 3674 2803 
L 5037 2803 
z
M 5037 3136 
L 3674 3136 
L 3674 3610 
L 5037 3610 
L 5037 3136 
z
M 1677 1606 
C 2042 1395 2227 1254 2566 922 
L 2829 1171 
C 2502 1472 2298 1632 1952 1837 
L 1677 1606 
z
" transform="scale(0.015625)"/>
       </defs>
       <use xlink:href="#HiraginoSansGB-W3-9a6c"/>
       <use xlink:href="#HiraginoSansGB-W3-5c14" transform="translate(99.999985 0)"/>
       <use xlink:href="#HiraginoSansGB-W3-5eb7" transform="translate(199.999969 0)"/>
      </g>
     </g>
    </g>
    <g id="ytick_13">
     <g id="line2d_18">
      <g>
       <use xlink:href="#m97275f1062" x="47.77" y="299.624344" style="stroke: #000000; stroke-width: 0.8"/>
      </g>
     </g>
     <g id="text_19">
      <!-- 康定 -->
      <g transform="translate(20.77 303.454031) scale(0.1 -0.1)">
       <defs>
        <path id="HiraginoSansGB-W3-5b9a" d="M 3507 4576 
C 3386 4870 3226 5152 3046 5395 
L 2707 5210 
C 2867 4998 2989 4800 3091 4576 
L 1203 4576 
C 947 4576 762 4582 557 4602 
C 576 4480 582 4333 582 4166 
L 582 3763 
C 582 3565 576 3450 557 3309 
L 979 3309 
L 979 4205 
L 5446 4205 
L 5446 3309 
L 5862 3309 
C 5843 3443 5837 3571 5837 3763 
L 5837 4166 
C 5837 4346 5843 4467 5862 4602 
C 5658 4582 5472 4576 5222 4576 
L 3507 4576 
z
M 3034 3072 
L 3034 352 
C 2733 467 2528 582 2342 742 
C 2112 954 2016 1082 1837 1446 
C 1882 1600 1978 1958 2010 2125 
C 2067 2374 2067 2374 2086 2458 
L 1638 2547 
C 1638 2528 1638 2509 1638 2502 
C 1638 2112 1478 1491 1248 1024 
C 1030 570 826 301 384 -115 
C 563 -237 608 -282 717 -416 
C 1203 90 1421 416 1690 1037 
C 2022 358 2656 -26 3654 -166 
C 3981 -211 4102 -218 5005 -218 
C 5197 -218 5414 -211 5830 -205 
C 5856 -19 5888 83 5971 243 
C 5421 205 5018 186 4467 186 
C 4013 186 3667 205 3430 250 
L 3430 1670 
L 4666 1670 
C 4928 1670 5094 1664 5280 1632 
L 5280 2067 
C 5114 2042 4941 2029 4666 2029 
L 3430 2029 
L 3430 3072 
L 4550 3072 
C 4832 3072 5005 3059 5184 3034 
L 5184 3475 
C 5011 3450 4832 3437 4550 3437 
L 1901 3437 
C 1619 3437 1440 3450 1267 3475 
L 1267 3034 
C 1459 3059 1626 3072 1901 3072 
L 3034 3072 
z
" transform="scale(0.015625)"/>
       </defs>
       <use xlink:href="#HiraginoSansGB-W3-5eb7"/>
       <use xlink:href="#HiraginoSansGB-W3-5b9a" transform="translate(99.999985 0)"/>
      </g>
     </g>
    </g>
    <g id="ytick_14">
     <g id="line2d_19">
      <g>
       <use xlink:href="#m97275f1062" x="47.77" y="319.911823" style="stroke: #000000; stroke-width: 0.8"/>
      </g>
     </g>
     <g id="text_20">
      <!-- 道孚 -->
      <g transform="translate(20.77 323.74151) scale(0.1 -0.1)">
       <defs>
        <path id="HiraginoSansGB-W3-9053" d="M 2656 4582 
C 2323 4582 2138 4595 1997 4621 
L 1997 4211 
C 2195 4230 2336 4237 2650 4237 
L 3718 4237 
C 3661 4070 3578 3885 3475 3706 
L 3046 3706 
C 2733 3706 2528 3712 2374 3731 
C 2394 3584 2406 3328 2406 3104 
L 2406 1306 
C 2406 1088 2400 877 2387 685 
C 2560 698 2797 704 3014 704 
L 5056 704 
C 5235 704 5395 698 5530 685 
C 5510 870 5498 1088 5498 1344 
L 5498 3085 
C 5498 3334 5504 3533 5530 3731 
C 5408 3712 5216 3706 4915 3706 
L 3878 3706 
C 3981 3898 4064 4064 4128 4237 
L 5312 4237 
C 5542 4237 5741 4230 5946 4205 
L 5946 4621 
C 5798 4595 5626 4582 5312 4582 
L 4730 4582 
C 4858 4730 5005 4941 5171 5210 
L 4794 5350 
C 4666 5088 4486 4806 4301 4582 
L 3616 4582 
C 3392 4954 3296 5094 3091 5344 
L 2746 5190 
C 2950 4960 3104 4749 3194 4582 
L 2656 4582 
z
M 2784 3373 
L 5114 3373 
L 5114 2835 
L 2784 2835 
L 2784 3373 
z
M 2784 2509 
L 5114 2509 
L 5114 1958 
L 2784 1958 
L 2784 2509 
z
M 2778 1632 
L 5114 1632 
L 5114 1043 
L 2778 1043 
L 2778 1632 
z
M 1613 2246 
C 1613 2534 1619 2701 1645 2893 
C 1485 2867 1370 2861 1165 2861 
L 826 2861 
C 576 2861 474 2867 333 2893 
L 333 2477 
C 480 2502 582 2509 800 2509 
L 1229 2509 
L 1229 883 
C 1146 858 1050 794 883 678 
C 736 570 493 339 211 38 
L 493 -294 
C 819 166 1178 512 1331 512 
C 1389 512 1459 474 1510 416 
C 1747 141 1747 141 1856 64 
C 2080 -90 2310 -173 2605 -211 
C 2880 -250 3398 -282 3802 -282 
C 4691 -282 5382 -269 6003 -237 
C 6048 -32 6054 0 6157 230 
C 5600 154 4883 115 3955 115 
C 3168 115 2637 154 2394 230 
C 2125 314 1971 422 1741 691 
C 1683 762 1651 794 1613 832 
L 1613 2246 
z
M 403 4883 
C 922 4390 1062 4230 1389 3738 
L 1709 4019 
C 1325 4518 1120 4742 691 5146 
L 403 4883 
z
" transform="scale(0.015625)"/>
        <path id="HiraginoSansGB-W3-5b5a" d="M 3507 1728 
L 3507 2003 
C 4218 2323 4582 2541 5197 2995 
L 4973 3277 
C 4883 3251 4749 3245 4467 3245 
L 1856 3245 
C 1574 3245 1382 3258 1216 3283 
L 1216 2842 
C 1408 2874 1613 2886 1856 2886 
L 4454 2886 
C 4038 2624 3834 2515 3354 2304 
L 3059 2304 
C 3085 2170 3091 2010 3091 1818 
L 3091 1728 
L 1018 1728 
C 736 1728 538 1741 358 1766 
L 358 1318 
C 550 1344 742 1357 1018 1357 
L 3091 1357 
L 3091 173 
C 3091 32 3027 -6 2797 -6 
C 2547 -6 2163 32 1811 102 
C 1869 -38 1894 -134 1920 -326 
C 2278 -365 2579 -384 2816 -384 
C 3341 -384 3507 -256 3507 141 
L 3507 1357 
L 5370 1357 
C 5645 1357 5837 1344 6029 1318 
L 6029 1766 
C 5850 1741 5658 1728 5376 1728 
L 3507 1728 
z
M 5466 5382 
C 5203 5280 4966 5229 4435 5146 
C 3488 5005 2406 4928 1408 4928 
C 1126 4928 966 4928 698 4941 
C 813 4768 819 4755 877 4550 
C 2906 4576 4237 4698 5843 5005 
L 5466 5382 
z
M 2003 3578 
C 1798 3942 1658 4154 1427 4435 
L 1107 4262 
C 1357 3962 1485 3757 1664 3373 
L 2003 3578 
z
M 3622 3693 
C 3418 4058 3277 4269 3046 4550 
L 2726 4378 
C 2976 4077 3110 3872 3290 3488 
L 3622 3693 
z
M 5133 4794 
C 4922 4333 4710 4064 4262 3654 
L 4614 3405 
C 4870 3661 5005 3808 5101 3949 
C 5446 4448 5446 4448 5555 4582 
L 5133 4794 
z
" transform="scale(0.015625)"/>
       </defs>
       <use xlink:href="#HiraginoSansGB-W3-9053"/>
       <use xlink:href="#HiraginoSansGB-W3-5b5a" transform="translate(99.999985 0)"/>
      </g>
     </g>
    </g>
    <g id="ytick_15">
     <g id="line2d_20">
      <g>
       <use xlink:href="#m97275f1062" x="47.77" y="340.199302" style="stroke: #000000; stroke-width: 0.8"/>
      </g>
     </g>
     <g id="text_21">
      <!-- 德格 -->
      <g transform="translate(20.77 344.02899) scale(0.1 -0.1)">
       <defs>
        <path id="HiraginoSansGB-W3-5fb7" d="M 2566 4774 
C 2278 4774 2106 4781 1926 4806 
L 1926 4410 
C 2131 4429 2298 4435 2547 4435 
L 3661 4435 
C 3629 4250 3590 4102 3546 3917 
L 2573 3917 
C 2362 3917 2214 3923 2048 3936 
C 2061 3808 2067 3699 2067 3501 
L 2067 2835 
C 2067 2656 2061 2554 2048 2432 
C 2214 2445 2374 2451 2605 2451 
L 5222 2451 
C 5478 2451 5632 2445 5792 2426 
C 5773 2541 5766 2643 5766 2861 
L 5766 3469 
C 5766 3699 5773 3782 5792 3942 
C 5658 3923 5478 3917 5210 3917 
L 3930 3917 
C 3968 4115 4000 4243 4013 4320 
C 4019 4346 4032 4384 4038 4435 
L 5446 4435 
C 5734 4435 5862 4429 6074 4403 
L 6074 4806 
C 5894 4781 5741 4774 5427 4774 
L 4109 4774 
C 4122 4838 4128 4870 4134 4915 
C 4179 5165 4205 5312 4211 5350 
L 3776 5382 
C 3776 5357 3776 5338 3776 5318 
C 3776 5203 3750 4979 3718 4774 
L 2566 4774 
z
M 2438 3603 
L 3200 3603 
L 3200 2765 
L 2438 2765 
L 2438 3603 
z
M 3546 3603 
L 4275 3603 
L 4275 2765 
L 3546 2765 
L 3546 3603 
z
M 4621 3603 
L 5402 3603 
L 5402 2765 
L 4621 2765 
L 4621 3603 
z
M 1523 5395 
C 1408 5165 1235 4947 941 4666 
C 710 4442 518 4301 198 4096 
C 314 4000 384 3910 454 3776 
C 941 4115 1331 4480 1702 4928 
C 1850 5107 1850 5107 1888 5146 
L 1523 5395 
z
M 1946 -173 
C 2240 243 2362 493 2541 1056 
L 2170 1190 
C 2074 749 1939 480 1606 58 
L 1946 -173 
z
M 3309 768 
C 3309 986 3315 1120 3347 1280 
L 2880 1280 
C 2906 1114 2918 973 2918 755 
L 2918 77 
C 2918 -269 3117 -358 3859 -358 
C 4454 -358 4742 -320 4896 -224 
C 5050 -128 5139 109 5190 563 
C 5043 595 4941 634 4806 717 
C 4774 243 4749 154 4666 83 
C 4589 26 4384 0 4000 0 
C 3418 0 3309 32 3309 186 
L 3309 768 
z
M 1869 1613 
C 2074 1632 2240 1638 2490 1638 
L 5466 1638 
C 5747 1638 5875 1632 6086 1606 
L 6086 2010 
C 5907 1984 5760 1978 5446 1978 
L 2502 1978 
C 2221 1978 2048 1984 1869 2010 
L 1869 1613 
z
M 934 275 
C 934 -64 922 -282 896 -467 
L 1357 -467 
C 1331 -301 1325 -115 1325 301 
L 1325 2989 
C 1446 3162 1568 3341 1658 3494 
C 1773 3693 1798 3738 1850 3808 
L 1485 4026 
C 1440 3878 1331 3674 1197 3450 
C 896 2970 557 2592 115 2253 
C 237 2118 262 2086 346 1901 
C 634 2150 762 2291 954 2579 
C 941 2272 934 2080 934 1818 
L 934 275 
z
M 4589 774 
C 4282 1088 4122 1229 3782 1472 
L 3526 1254 
C 3872 992 3923 941 4198 640 
C 4224 614 4262 563 4314 506 
L 4589 774 
z
M 6182 173 
C 5907 640 5741 870 5389 1299 
L 5082 1101 
C 5421 698 5530 544 5856 -77 
L 6182 173 
z
" transform="scale(0.015625)"/>
        <path id="HiraginoSansGB-W3-683c" d="M 2835 147 
C 2835 -173 2829 -339 2803 -493 
L 3226 -493 
L 3226 -122 
L 5216 -122 
L 5216 -493 
L 5638 -493 
C 5613 -352 5606 -173 5606 154 
L 5606 1312 
C 5606 1626 5606 1702 5626 1850 
C 5741 1798 5830 1760 6099 1645 
C 6163 1798 6227 1901 6336 2035 
C 5555 2310 5094 2547 4499 2995 
C 4883 3366 5171 3757 5459 4269 
C 5562 4442 5562 4448 5613 4518 
L 5363 4774 
C 5235 4749 5088 4742 4762 4742 
L 3680 4742 
C 3699 4781 3763 4915 3776 4960 
C 3878 5190 3885 5210 3910 5254 
L 3488 5357 
C 3360 4736 2842 3910 2266 3379 
C 2400 3296 2464 3232 2554 3110 
C 2816 3379 2976 3571 3187 3891 
C 3514 3430 3680 3232 3942 2989 
C 3398 2541 2912 2266 2106 1946 
C 2246 1811 2272 1779 2368 1619 
C 2586 1722 2586 1722 2816 1830 
C 2835 1683 2835 1600 2835 1312 
L 2835 147 
z
M 3334 1850 
C 3059 1850 3027 1850 2874 1862 
C 3456 2157 3859 2426 4224 2739 
C 4621 2400 5126 2080 5600 1862 
C 5510 1856 5344 1850 5101 1850 
L 3334 1850 
z
M 5075 4390 
C 4806 3885 4614 3622 4218 3232 
C 3866 3552 3706 3744 3392 4211 
C 3462 4326 3462 4333 3494 4390 
L 5075 4390 
z
M 3226 1504 
L 5216 1504 
L 5216 230 
L 3226 230 
L 3226 1504 
z
M 1325 4058 
L 934 4058 
C 723 4058 570 4064 467 4083 
L 467 3686 
C 602 3706 730 3712 928 3712 
L 1274 3712 
C 1082 2822 749 2029 320 1446 
C 435 1344 493 1274 589 1114 
C 768 1376 858 1542 986 1856 
C 1152 2240 1222 2477 1363 3046 
C 1338 2586 1325 2266 1325 2048 
L 1325 243 
C 1325 -96 1312 -314 1286 -499 
L 1747 -499 
C 1722 -320 1709 -102 1709 243 
L 1709 2976 
C 2086 2426 2086 2426 2214 2202 
L 2483 2477 
C 2330 2714 2118 2963 1709 3411 
L 1709 3712 
L 2003 3712 
C 2150 3712 2285 3706 2406 3693 
L 2406 4083 
C 2291 4064 2176 4058 1997 4058 
L 1709 4058 
L 1709 4685 
C 1709 4998 1715 5178 1741 5344 
L 1293 5344 
C 1318 5197 1325 5050 1325 4678 
L 1325 4058 
z
" transform="scale(0.015625)"/>
       </defs>
       <use xlink:href="#HiraginoSansGB-W3-5fb7"/>
       <use xlink:href="#HiraginoSansGB-W3-683c" transform="translate(99.999985 0)"/>
      </g>
     </g>
    </g>
    <g id="ytick_16">
     <g id="line2d_21">
      <g>
       <use xlink:href="#m97275f1062" x="47.77" y="360.486781" style="stroke: #000000; stroke-width: 0.8"/>
      </g>
     </g>
     <g id="text_22">
      <!-- 松潘 -->
      <g transform="translate(20.77 364.316469) scale(0.1 -0.1)">
       <defs>
        <path id="HiraginoSansGB-W3-677e" d="M 3910 3354 
C 3699 2541 3571 2150 3315 1504 
C 3174 1146 3002 736 2848 397 
C 2778 301 2720 269 2534 237 
L 2598 -173 
C 2726 -154 2797 -141 2906 -134 
C 2989 -122 3283 -90 3770 -19 
C 4416 64 4838 134 5152 205 
C 5325 250 5325 250 5402 262 
C 5466 115 5517 -6 5638 -320 
L 6029 -115 
C 5670 698 5466 1082 4902 1990 
L 4550 1818 
C 4909 1242 5069 960 5242 608 
C 4653 474 4058 384 3226 301 
C 3693 1312 3904 1850 4365 3219 
L 3910 3354 
z
M 1747 2848 
C 2048 2426 2131 2298 2291 1984 
L 2592 2246 
C 2272 2720 2208 2797 1747 3341 
L 1747 3654 
L 2112 3654 
C 2272 3654 2406 3648 2534 3635 
L 2534 4032 
C 2413 4013 2298 4006 2112 4006 
L 1747 4006 
L 1747 4621 
C 1747 4941 1754 5120 1779 5280 
L 1325 5280 
C 1350 5133 1357 4986 1357 4614 
L 1357 4006 
L 890 4006 
C 678 4006 531 4013 429 4032 
L 429 3629 
C 550 3648 691 3654 890 3654 
L 1299 3654 
C 1248 3430 1107 3002 979 2682 
C 774 2182 544 1792 237 1414 
C 339 1299 422 1171 486 1030 
C 678 1293 794 1485 947 1798 
C 1139 2202 1235 2477 1389 3040 
C 1370 2662 1357 2285 1357 2010 
L 1357 230 
C 1357 -102 1344 -326 1318 -512 
L 1786 -512 
C 1760 -339 1747 -115 1747 230 
L 1747 2848 
z
M 3424 5107 
C 3264 4205 2899 3392 2406 2803 
C 2554 2720 2630 2656 2758 2528 
C 3206 3155 3571 3968 3846 4954 
L 3424 5107 
z
M 4499 5075 
C 4928 3898 5280 3232 5830 2541 
C 5939 2669 6048 2778 6163 2861 
C 5862 3187 5715 3398 5459 3859 
C 5190 4333 5043 4698 4890 5222 
L 4499 5075 
z
" transform="scale(0.015625)"/>
        <path id="HiraginoSansGB-W3-6f58" d="M 3654 3699 
L 3085 3699 
C 2982 3968 2886 4173 2714 4480 
L 2374 4365 
C 2547 4102 2656 3898 2726 3699 
L 2355 3699 
C 2080 3699 1907 3706 1773 3731 
L 1773 3347 
C 1920 3366 2112 3379 2355 3379 
L 3366 3379 
C 2854 2867 2285 2522 1498 2240 
C 1613 2138 1683 2054 1760 1914 
C 1971 2010 2048 2048 2163 2106 
C 2170 1984 2176 1773 2176 1587 
L 2176 230 
C 2176 -64 2163 -288 2144 -448 
L 2554 -448 
L 2554 -147 
L 5197 -147 
L 5197 -448 
L 5613 -448 
C 5587 -250 5574 -38 5574 237 
L 5574 1600 
C 5574 1786 5581 1971 5587 2118 
C 5798 2022 5811 2016 5965 1952 
C 6042 2106 6093 2182 6195 2298 
C 5440 2554 4800 2918 4320 3379 
L 5421 3379 
C 5696 3379 5888 3366 6042 3341 
L 6042 3738 
C 5894 3712 5709 3699 5434 3699 
L 4941 3699 
C 5094 3910 5235 4134 5421 4480 
L 5056 4634 
C 4915 4269 4781 4026 4550 3699 
L 4019 3699 
L 4019 4672 
C 4678 4749 5069 4813 5555 4922 
C 5722 4960 5722 4960 5786 4973 
L 5498 5325 
C 5050 5088 3507 4902 1984 4902 
L 1914 4902 
C 1990 4768 2016 4698 2048 4538 
C 2477 4544 2899 4570 3654 4634 
L 3654 3699 
z
M 3654 2694 
C 3654 2496 3648 2374 3629 2272 
L 4045 2272 
C 4026 2400 4019 2496 4019 2694 
L 4019 2906 
C 4019 3002 4013 3117 4000 3277 
C 4326 2938 4563 2739 4928 2490 
C 5152 2342 5152 2342 5555 2138 
C 5414 2131 5248 2125 5043 2125 
L 2752 2125 
C 2547 2125 2374 2131 2227 2138 
C 2784 2432 3245 2784 3680 3270 
C 3674 3200 3674 3168 3667 3123 
C 3654 2995 3654 2989 3654 2912 
L 3654 2694 
z
M 2554 1792 
L 3661 1792 
L 3661 1171 
L 2554 1171 
L 2554 1792 
z
M 4026 1792 
L 5197 1792 
L 5197 1171 
L 4026 1171 
L 4026 1792 
z
M 2554 845 
L 3661 845 
L 3661 179 
L 2554 179 
L 2554 845 
z
M 4026 845 
L 5197 845 
L 5197 179 
L 4026 179 
L 4026 845 
z
M 557 4966 
C 954 4685 1216 4454 1504 4147 
L 1779 4461 
C 1485 4742 1248 4947 832 5242 
L 557 4966 
z
M 269 3347 
C 704 3091 947 2906 1344 2541 
L 1581 2886 
C 1190 3219 960 3379 512 3642 
L 269 3347 
z
M 1293 1869 
C 1120 1338 928 896 659 422 
C 525 186 486 122 365 -6 
C 358 -13 339 -32 326 -51 
L 698 -358 
C 730 -288 736 -282 813 -141 
C 1146 435 1318 806 1613 1626 
L 1293 1869 
z
" transform="scale(0.015625)"/>
       </defs>
       <use xlink:href="#HiraginoSansGB-W3-677e"/>
       <use xlink:href="#HiraginoSansGB-W3-6f58" transform="translate(99.999985 0)"/>
      </g>
     </g>
    </g>
    <g id="ytick_17">
     <g id="line2d_22">
      <g>
       <use xlink:href="#m97275f1062" x="47.77" y="380.77426" style="stroke: #000000; stroke-width: 0.8"/>
      </g>
     </g>
     <g id="text_23">
      <!-- 稻城 -->
      <g transform="translate(20.77 384.603948) scale(0.1 -0.1)">
       <defs>
        <path id="HiraginoSansGB-W3-7a3b" d="M 2502 2144 
C 2259 2554 2080 2790 1728 3187 
L 1734 3354 
L 1914 3354 
C 2163 3354 2272 3347 2426 3328 
L 2426 3731 
C 2285 3712 2163 3706 1920 3706 
L 1741 3706 
L 1741 4717 
C 1952 4781 2259 4890 2381 4947 
C 2496 4998 2496 4998 2554 5024 
L 2291 5338 
C 2182 5254 2118 5222 1958 5158 
C 1574 5005 1037 4883 442 4819 
C 525 4704 576 4621 627 4474 
C 986 4538 1114 4563 1357 4621 
L 1357 3706 
L 992 3706 
C 742 3706 602 3712 442 3738 
L 442 3322 
C 614 3347 736 3354 986 3354 
L 1306 3354 
C 1069 2477 774 1869 314 1331 
C 403 1242 499 1088 550 979 
C 947 1504 1190 2022 1395 2778 
C 1370 2458 1357 1984 1357 1741 
L 1357 275 
C 1357 -70 1344 -262 1318 -454 
L 1779 -454 
C 1747 -256 1741 -96 1741 275 
L 1741 1862 
C 1741 2131 1728 2522 1715 2752 
C 1850 2547 1997 2298 2234 1869 
L 2502 2144 
z
M 3130 1408 
L 3130 2118 
C 3552 2234 3795 2323 4179 2509 
L 3904 2835 
C 3571 2598 3270 2490 2714 2394 
C 2733 2195 2746 1990 2746 1760 
L 2746 198 
C 2746 -128 2739 -282 2714 -448 
L 3130 -448 
L 3130 -122 
L 5434 -122 
L 5434 -442 
L 5856 -442 
C 5824 -230 5818 -51 5818 262 
L 5818 1926 
C 5818 2234 5824 2406 5843 2586 
C 5683 2566 5542 2560 5318 2560 
L 4896 2560 
C 4691 2560 4550 2566 4397 2592 
L 4397 2189 
C 4538 2208 4672 2214 4858 2214 
L 5434 2214 
L 5434 1408 
L 4902 1408 
C 4704 1408 4576 1414 4461 1434 
L 4461 1043 
C 4582 1062 4717 1069 4902 1069 
L 5434 1069 
L 5434 224 
L 3130 224 
L 3130 1069 
L 3629 1069 
C 3821 1069 3949 1062 4077 1043 
L 4077 1434 
C 3955 1414 3827 1408 3629 1408 
L 3130 1408 
z
M 3386 3085 
C 3219 3520 3066 3789 2784 4179 
L 2483 4019 
C 2746 3661 2893 3360 3046 2918 
L 3386 3085 
z
M 5651 4659 
C 5517 4179 5325 3750 4960 3130 
L 5261 2957 
C 5530 3386 5530 3386 6048 4499 
L 5651 4659 
z
M 4550 3302 
C 4422 3770 4314 4038 4070 4448 
L 3731 4339 
C 3962 3949 4083 3642 4192 3174 
L 4550 3302 
z
M 5632 5376 
C 5434 5280 5216 5210 4851 5133 
C 4051 4960 3322 4877 2387 4858 
C 2483 4723 2522 4646 2592 4454 
C 3878 4557 4627 4678 5722 4966 
C 5882 5005 5882 5005 5933 5018 
L 5632 5376 
z
" transform="scale(0.015625)"/>
        <path id="HiraginoSansGB-W3-57ce" d="M 4192 3904 
C 4256 2848 4390 2042 4608 1350 
C 4141 710 3770 384 3059 -13 
C 3194 -109 3277 -186 3360 -320 
C 3981 70 4320 378 4742 947 
C 5056 154 5421 -320 5722 -320 
C 5978 -320 6112 -13 6221 813 
C 6093 877 6022 934 5888 1075 
C 5837 493 5766 147 5690 147 
C 5574 147 5248 730 5018 1363 
C 5248 1728 5504 2259 5677 2714 
C 5734 2861 5747 2906 5824 3085 
L 5408 3238 
C 5344 2835 5133 2259 4883 1798 
C 4730 2432 4634 3104 4582 3904 
L 5286 3904 
C 5523 3904 5779 3891 5971 3872 
L 5971 4307 
C 5818 4282 5587 4269 5306 4269 
L 4563 4269 
C 4550 4685 4550 4710 4550 4826 
C 4550 5056 4557 5165 4589 5306 
L 4134 5306 
C 4154 5171 4160 5062 4160 4870 
C 4160 4621 4160 4518 4173 4269 
L 2925 4269 
C 2707 4269 2637 4275 2304 4301 
C 2323 4160 2330 3930 2330 3552 
C 2330 1549 2112 640 1453 -96 
C 1613 -179 1683 -230 1798 -352 
C 2067 -26 2246 301 2387 717 
C 2547 1190 2669 1952 2694 2637 
L 3558 2637 
C 3539 1926 3494 1478 3418 1229 
C 3386 1126 3309 1088 3142 1088 
C 3002 1088 2816 1107 2637 1139 
C 2688 979 2707 896 2714 736 
C 2899 723 3021 717 3174 717 
C 3565 717 3693 806 3782 1146 
C 3827 1331 3885 1766 3904 2093 
C 3942 2899 3942 2899 3949 2970 
L 3955 3021 
C 3814 3002 3610 2995 3386 2995 
L 2714 2995 
C 2720 3418 2720 3488 2720 3661 
L 2720 3904 
L 4192 3904 
z
M 1434 3622 
L 1434 4570 
C 1434 4877 1446 5075 1472 5280 
L 1005 5280 
C 1030 5094 1043 4870 1043 4576 
L 1043 3622 
L 902 3622 
C 678 3622 518 3629 346 3654 
L 346 3232 
C 512 3251 685 3264 890 3264 
L 1043 3264 
L 1043 1267 
C 666 1082 416 986 256 947 
L 390 518 
C 563 608 563 608 640 646 
C 1299 973 1555 1114 2048 1434 
L 2016 1830 
C 1734 1638 1632 1574 1434 1466 
L 1434 3264 
L 1530 3264 
C 1696 3264 1875 3258 2061 3238 
L 2061 3648 
C 1920 3629 1760 3622 1536 3622 
L 1434 3622 
z
M 5805 4640 
C 5517 4922 5338 5062 5056 5248 
L 4813 5024 
C 5133 4806 5299 4659 5542 4378 
L 5805 4640 
z
" transform="scale(0.015625)"/>
       </defs>
       <use xlink:href="#HiraginoSansGB-W3-7a3b"/>
       <use xlink:href="#HiraginoSansGB-W3-57ce" transform="translate(99.999985 0)"/>
      </g>
     </g>
    </g>
    <g id="ytick_18">
     <g id="line2d_23">
      <g>
       <use xlink:href="#m97275f1062" x="47.77" y="401.061739" style="stroke: #000000; stroke-width: 0.8"/>
      </g>
     </g>
     <g id="text_24">
      <!-- 甘孜 -->
      <g transform="translate(20.77 404.891427) scale(0.1 -0.1)">
       <defs>
        <path id="HiraginoSansGB-W3-7518" d="M 4845 4154 
L 4845 4512 
C 4845 4794 4858 5056 4890 5248 
L 4384 5248 
C 4410 5094 4422 4864 4422 4512 
L 4422 4154 
L 1933 4154 
L 1933 4538 
C 1933 4832 1946 5082 1971 5248 
L 1466 5248 
C 1498 5082 1510 4832 1510 4538 
L 1510 4154 
L 1094 4154 
C 813 4154 557 4166 365 4198 
L 365 3712 
C 563 3744 826 3757 1094 3757 
L 1510 3757 
L 1510 339 
C 1510 38 1498 -179 1466 -410 
L 1933 -410 
L 1933 0 
L 4422 0 
L 4422 -410 
L 4890 -410 
C 4858 -154 4845 96 4845 346 
L 4845 3757 
L 5261 3757 
C 5536 3757 5818 3738 6016 3712 
L 6016 4198 
C 5843 4173 5542 4154 5261 4154 
L 4845 4154 
z
M 1933 3757 
L 4422 3757 
L 4422 2374 
L 1933 2374 
L 1933 3757 
z
M 1933 1984 
L 4422 1984 
L 4422 390 
L 1933 390 
L 1933 1984 
z
" transform="scale(0.015625)"/>
        <path id="HiraginoSansGB-W3-5b5c" d="M 5491 3840 
C 5792 3840 5920 3834 6080 3808 
L 6080 4243 
C 5914 4218 5734 4205 5472 4205 
L 3795 4205 
C 3840 4371 3866 4454 3885 4518 
C 4032 5126 4038 5152 4070 5242 
L 3616 5318 
C 3603 5075 3565 4838 3488 4512 
C 3290 3706 2970 3053 2464 2413 
C 2598 2323 2662 2259 2758 2125 
C 3027 2477 3174 2707 3354 3078 
C 3533 2451 3546 2426 3699 2067 
C 3827 1766 3942 1536 4102 1280 
C 3635 717 3034 307 2138 -58 
C 2272 -186 2336 -275 2413 -429 
C 3309 0 3840 378 4339 954 
C 4813 371 5203 32 5933 -410 
C 6016 -250 6093 -134 6214 -6 
C 5549 307 4992 742 4582 1274 
C 4762 1530 4928 1837 5050 2138 
C 5274 2694 5370 3091 5466 3840 
L 5491 3840 
z
M 5056 3840 
C 4941 2874 4736 2227 4339 1613 
C 4179 1882 4070 2099 3936 2426 
C 3770 2842 3738 2944 3584 3578 
C 3616 3667 3635 3712 3680 3840 
L 5056 3840 
z
M 1779 3462 
C 2163 3821 2368 4058 2707 4557 
C 2810 4710 2848 4762 2886 4806 
L 2662 5037 
C 2547 5024 2451 5018 2227 5018 
L 1037 5018 
C 749 5018 595 5024 429 5056 
L 429 4621 
C 627 4646 787 4659 1024 4659 
L 2323 4659 
C 2054 4243 1869 4019 1555 3731 
L 1344 3731 
C 1370 3565 1376 3411 1376 3123 
L 1376 2637 
C 806 2458 550 2394 314 2368 
L 410 1933 
C 499 1965 595 1997 653 2010 
C 915 2086 1171 2170 1376 2240 
L 1376 192 
C 1376 77 1338 51 1190 51 
C 947 51 774 64 493 109 
C 538 -26 557 -128 570 -301 
C 787 -320 960 -326 1171 -326 
C 1658 -326 1779 -237 1779 134 
L 1779 2381 
C 2016 2464 2150 2515 2579 2688 
L 2566 3066 
C 2189 2906 2042 2854 1779 2765 
L 1779 3462 
z
" transform="scale(0.015625)"/>
       </defs>
       <use xlink:href="#HiraginoSansGB-W3-7518"/>
       <use xlink:href="#HiraginoSansGB-W3-5b5c" transform="translate(99.999985 0)"/>
      </g>
     </g>
    </g>
    <g id="ytick_19">
     <g id="line2d_24">
      <g>
       <use xlink:href="#m97275f1062" x="47.77" y="421.349219" style="stroke: #000000; stroke-width: 0.8"/>
      </g>
     </g>
     <g id="text_25">
      <!-- 峨眉山 -->
      <g transform="translate(10.77 425.178906) scale(0.1 -0.1)">
       <defs>
        <path id="HiraginoSansGB-W3-5ce8" d="M 5466 2790 
C 5402 2438 5235 2003 4992 1549 
C 4915 1971 4870 2413 4838 3123 
L 5459 3123 
C 5728 3123 5926 3110 6093 3085 
L 6093 3514 
C 5926 3488 5734 3475 5459 3475 
L 4832 3475 
C 4819 3923 4813 4237 4813 4422 
C 4813 4870 4819 5018 4845 5190 
L 4403 5190 
C 4422 5043 4435 4954 4435 4813 
C 4435 3930 4435 3930 4448 3475 
L 3616 3475 
L 3616 4595 
C 3686 4621 3725 4640 3776 4666 
C 4186 4858 4186 4858 4294 4902 
L 4019 5210 
C 3770 4992 3142 4749 2426 4582 
C 2534 4454 2573 4397 2624 4269 
C 2931 4352 3014 4384 3232 4454 
L 3232 3475 
L 3046 3475 
C 2790 3475 2669 3482 2509 3507 
L 2509 3091 
C 2650 3117 2790 3123 3059 3123 
L 3232 3123 
L 3232 1920 
C 2848 1741 2630 1658 2451 1619 
L 2579 1216 
C 2694 1274 2694 1274 3232 1523 
L 3232 96 
C 3232 -13 3206 -32 3053 -32 
C 2899 -32 2726 -13 2496 26 
C 2547 -109 2573 -224 2579 -378 
C 2886 -390 2963 -397 3059 -397 
C 3475 -397 3616 -288 3616 26 
L 3616 1715 
C 3821 1824 4019 1946 4333 2138 
L 4288 2490 
C 3949 2285 3866 2240 3616 2106 
L 3616 3123 
L 4461 3123 
C 4512 2099 4550 1792 4717 1114 
C 4429 710 4173 461 3712 147 
C 3821 58 3872 -6 3968 -160 
C 4365 154 4589 365 4819 659 
C 4838 685 4838 685 4845 698 
C 5088 32 5414 -384 5696 -384 
C 5926 -384 6048 -128 6189 666 
C 6048 742 5997 781 5882 896 
C 5811 346 5734 77 5658 77 
C 5600 77 5485 205 5382 390 
C 5267 602 5190 787 5107 1069 
C 5338 1453 5446 1664 5690 2278 
C 5747 2413 5779 2490 5824 2586 
L 5466 2790 
z
M 2016 710 
L 1594 653 
L 1594 4506 
C 1594 4813 1606 5030 1632 5184 
L 1197 5184 
C 1222 5011 1235 4800 1235 4506 
L 1235 608 
L 806 557 
L 806 3603 
C 806 3859 813 4051 838 4237 
L 429 4237 
C 448 4045 461 3834 461 3603 
L 461 787 
C 461 531 448 320 422 128 
C 634 166 634 166 1024 218 
L 2010 358 
L 2010 26 
L 2387 26 
C 2368 154 2355 429 2355 742 
L 2355 3597 
C 2355 3859 2362 4058 2387 4237 
L 1984 4237 
C 2010 4051 2016 3853 2016 3597 
L 2016 710 
z
M 4979 4762 
C 5267 4416 5395 4224 5606 3795 
L 5920 3987 
C 5715 4365 5549 4608 5254 4928 
L 4979 4762 
z
" transform="scale(0.015625)"/>
        <path id="HiraginoSansGB-W3-7709" d="M 1779 5062 
C 1421 5062 1216 5069 1024 5094 
C 1050 4787 1056 4678 1056 4179 
C 1056 1741 883 813 275 -83 
C 480 -186 538 -224 666 -346 
C 960 122 1146 602 1267 1229 
C 1382 1792 1434 2426 1453 3603 
L 5146 3603 
C 5350 3603 5581 3597 5786 3584 
C 5773 3706 5766 3827 5766 4051 
L 5766 4595 
C 5766 4819 5773 4966 5786 5094 
C 5645 5075 5427 5062 5088 5062 
L 1779 5062 
z
M 3206 4717 
L 3206 3942 
L 1459 3942 
L 1459 4717 
L 3206 4717 
z
M 3597 3942 
L 3597 4717 
L 5382 4717 
L 5382 3942 
L 3597 3942 
z
M 1978 147 
C 1978 -58 1965 -243 1939 -442 
L 2362 -442 
L 2362 -128 
L 5114 -128 
L 5114 -442 
L 5542 -442 
C 5517 -262 5504 -90 5504 141 
L 5504 2547 
C 5504 2790 5510 2950 5530 3142 
C 5299 3123 5139 3117 4838 3117 
L 2624 3117 
C 2310 3117 2176 3123 1958 3142 
C 1971 2970 1978 2790 1978 2566 
L 1978 147 
z
M 2362 2771 
L 5114 2771 
L 5114 2157 
L 2362 2157 
L 2362 2771 
z
M 2362 1824 
L 5114 1824 
L 5114 1190 
L 2362 1190 
L 2362 1824 
z
M 2362 858 
L 5114 858 
L 5114 218 
L 2362 218 
L 2362 858 
z
" transform="scale(0.015625)"/>
        <path id="HiraginoSansGB-W3-5c71" d="M 2918 378 
L 1158 378 
L 1158 3443 
C 1158 3706 1165 3885 1190 4064 
L 685 4064 
C 717 3878 730 3674 730 3437 
L 723 550 
C 723 275 717 128 698 -58 
C 883 -38 1062 -32 1299 -32 
L 5248 -32 
L 5248 -448 
L 5722 -448 
C 5690 -218 5677 -32 5677 224 
L 5677 3462 
C 5677 3674 5690 3846 5715 4064 
L 5210 4064 
C 5235 3878 5248 3738 5248 3469 
L 5248 378 
L 3360 378 
L 3360 4659 
C 3360 4909 3373 5069 3405 5254 
L 2874 5254 
C 2906 5062 2918 4902 2918 4659 
L 2918 378 
z
" transform="scale(0.015625)"/>
       </defs>
       <use xlink:href="#HiraginoSansGB-W3-5ce8"/>
       <use xlink:href="#HiraginoSansGB-W3-7709" transform="translate(99.999985 0)"/>
       <use xlink:href="#HiraginoSansGB-W3-5c71" transform="translate(199.999969 0)"/>
      </g>
     </g>
    </g>
    <g id="ytick_20">
     <g id="line2d_25">
      <g>
       <use xlink:href="#m97275f1062" x="47.77" y="441.636698" style="stroke: #000000; stroke-width: 0.8"/>
      </g>
     </g>
     <g id="text_26">
      <!-- 理塘 -->
      <g transform="translate(20.77 445.466385) scale(0.1 -0.1)">
       <use xlink:href="#HiraginoSansGB-W3-7406"/>
       <use xlink:href="#HiraginoSansGB-W3-5858" transform="translate(99.999985 0)"/>
      </g>
     </g>
    </g>
    <g id="ytick_21">
     <g id="line2d_26">
      <g>
       <use xlink:href="#m97275f1062" x="47.77" y="461.924177" style="stroke: #000000; stroke-width: 0.8"/>
      </g>
     </g>
     <g id="text_27">
      <!-- 若尔盖 -->
      <g transform="translate(10.77 465.753864) scale(0.1 -0.1)">
       <defs>
        <path id="HiraginoSansGB-W3-82e5" d="M 2426 4627 
L 2426 4794 
C 2426 4960 2438 5101 2458 5248 
L 1997 5248 
C 2022 5101 2035 4954 2035 4794 
L 2035 4627 
L 1082 4627 
C 768 4627 550 4640 365 4666 
L 365 4237 
C 544 4262 742 4269 1082 4269 
L 2035 4269 
L 2035 4070 
C 2035 3910 2029 3776 2010 3648 
L 2451 3648 
C 2432 3782 2426 3891 2426 4077 
L 2426 4269 
L 3904 4269 
L 3904 4070 
C 3904 3904 3898 3789 3878 3648 
L 4320 3648 
C 4301 3782 4294 3891 4294 4070 
L 4294 4269 
L 5280 4269 
C 5613 4269 5811 4262 6003 4237 
L 6003 4666 
C 5811 4640 5594 4627 5280 4627 
L 4294 4627 
L 4294 4794 
C 4294 4954 4307 5107 4326 5248 
L 3866 5248 
C 3891 5094 3904 4954 3904 4794 
L 3904 4627 
L 2426 4627 
z
M 5299 2784 
C 5574 2784 5792 2771 6003 2746 
L 6003 3187 
C 5805 3162 5587 3149 5299 3149 
L 2957 3149 
C 3008 3251 3034 3296 3078 3398 
C 3187 3616 3200 3635 3258 3744 
L 2784 3840 
C 2739 3610 2675 3430 2528 3149 
L 1114 3149 
C 826 3149 595 3162 397 3187 
L 397 2746 
C 602 2771 838 2784 1114 2784 
L 2310 2784 
C 1811 2042 1286 1587 352 1088 
C 506 941 512 934 582 806 
C 589 794 602 774 621 742 
C 1197 1120 1325 1216 1702 1549 
L 1702 173 
C 1702 -96 1690 -269 1664 -429 
L 2112 -429 
L 2112 -70 
L 4851 -70 
L 4851 -435 
L 5306 -435 
C 5280 -224 5267 -32 5267 160 
L 5267 1363 
C 5267 1600 5274 1773 5299 1971 
C 5139 1946 5011 1939 4698 1939 
L 2106 1939 
C 2342 2195 2490 2387 2746 2784 
L 5299 2784 
z
M 2112 1581 
L 4851 1581 
L 4851 294 
L 2112 294 
L 2112 1581 
z
" transform="scale(0.015625)"/>
        <path id="HiraginoSansGB-W3-76d6" d="M 2624 4576 
C 2490 4838 2285 5158 2099 5395 
L 1722 5242 
C 1920 5005 2054 4813 2182 4576 
L 1338 4576 
C 1069 4576 890 4589 698 4614 
L 698 4192 
C 877 4218 1075 4230 1338 4230 
L 2976 4230 
L 2976 3616 
L 1555 3616 
C 1306 3616 1158 3622 1005 3648 
L 1005 3245 
C 1171 3270 1312 3277 1555 3277 
L 2976 3277 
L 2976 2605 
L 1069 2605 
C 774 2605 602 2618 429 2643 
L 429 2214 
C 634 2240 806 2253 1069 2253 
L 5370 2253 
C 5651 2253 5837 2240 6016 2214 
L 6016 2643 
C 5830 2611 5670 2605 5370 2605 
L 3366 2605 
L 3366 3277 
L 4883 3277 
C 5120 3277 5274 3270 5434 3245 
L 5434 3648 
C 5280 3622 5139 3616 4883 3616 
L 3366 3616 
L 3366 4230 
L 5101 4230 
C 5376 4230 5555 4218 5747 4192 
L 5747 4614 
C 5568 4589 5382 4576 5101 4576 
L 4230 4576 
C 4403 4787 4518 4960 4666 5235 
L 4250 5376 
C 4122 5062 3981 4800 3795 4576 
L 2624 4576 
z
M 1107 166 
L 902 166 
C 640 166 544 173 410 198 
L 410 -230 
C 570 -205 736 -192 1018 -192 
L 5453 -192 
C 5696 -192 5869 -198 6035 -218 
L 6035 198 
C 5894 173 5760 166 5517 166 
L 5293 166 
L 5293 1216 
C 5293 1498 5299 1658 5325 1786 
C 5165 1766 4947 1754 4666 1754 
L 1741 1754 
C 1414 1754 1248 1760 1088 1779 
C 1101 1638 1107 1536 1107 1229 
L 1107 166 
z
M 1498 1408 
L 2368 1408 
L 2368 160 
L 1498 160 
L 1498 1408 
z
M 2733 1408 
L 3603 1408 
L 3603 160 
L 2733 160 
L 2733 1408 
z
M 3968 1408 
L 4902 1408 
L 4902 160 
L 3968 160 
L 3968 1408 
z
" transform="scale(0.015625)"/>
       </defs>
       <use xlink:href="#HiraginoSansGB-W3-82e5"/>
       <use xlink:href="#HiraginoSansGB-W3-5c14" transform="translate(99.999985 0)"/>
       <use xlink:href="#HiraginoSansGB-W3-76d6" transform="translate(199.999969 0)"/>
      </g>
     </g>
    </g>
    <g id="ytick_22">
     <g id="line2d_27">
      <g>
       <use xlink:href="#m97275f1062" x="47.77" y="482.211656" style="stroke: #000000; stroke-width: 0.8"/>
      </g>
     </g>
     <g id="text_28">
      <!-- 色达 -->
      <g transform="translate(20.77 486.041344) scale(0.1 -0.1)">
       <defs>
        <path id="HiraginoSansGB-W3-8272" d="M 3610 3610 
C 3789 3802 3942 3987 4173 4282 
C 4358 4525 4403 4576 4442 4621 
L 4173 4851 
C 4077 4826 3936 4819 3610 4819 
L 2438 4819 
C 2509 4922 2579 5024 2630 5107 
C 2675 5184 2688 5197 2726 5248 
L 2272 5376 
C 2208 5178 2144 5062 1971 4800 
C 1523 4147 986 3648 275 3206 
C 397 3110 474 3021 544 2899 
C 877 3130 1005 3232 1133 3341 
L 1133 346 
C 1133 -6 1242 -128 1632 -192 
C 1933 -243 2522 -262 3520 -262 
C 4595 -262 5120 -230 5402 -141 
C 5728 -45 5824 179 5894 1024 
C 5683 1082 5613 1107 5466 1190 
C 5453 870 5434 640 5395 486 
C 5338 256 5261 205 4928 166 
C 4704 141 4038 122 3437 122 
C 2490 122 1946 141 1766 179 
C 1587 218 1542 275 1542 461 
L 1542 1760 
L 5005 1760 
C 5178 1760 5338 1754 5523 1728 
C 5504 1888 5498 1997 5498 2176 
L 5498 3194 
C 5498 3379 5504 3494 5523 3642 
C 5325 3616 5184 3610 5005 3610 
L 3610 3610 
z
M 1427 3610 
C 1792 3962 1958 4147 2202 4474 
L 3853 4474 
C 3642 4160 3411 3878 3130 3610 
L 1427 3610 
z
M 3443 3251 
L 5094 3251 
L 5094 2125 
L 3443 2125 
L 3443 3251 
z
M 3046 2125 
L 1542 2125 
L 1542 3251 
L 3046 3251 
L 3046 2125 
z
" transform="scale(0.015625)"/>
       </defs>
       <use xlink:href="#HiraginoSansGB-W3-8272"/>
       <use xlink:href="#HiraginoSansGB-W3-8fbe" transform="translate(99.999985 0)"/>
      </g>
     </g>
    </g>
   </g>
   <g id="patch_25">
    <path d="M 47.77 512.44 
L 47.77 25.94625 
" style="fill: none; stroke: #000000; stroke-width: 0.8; stroke-linejoin: miter; stroke-linecap: square"/>
   </g>
   <g id="patch_26">
    <path d="M 853.2 512.44 
L 853.2 25.94625 
" style="fill: none; stroke: #000000; stroke-width: 0.8; stroke-linejoin: miter; stroke-linecap: square"/>
   </g>
   <g id="patch_27">
    <path d="M 47.77 512.44 
L 853.2 512.44 
" style="fill: none; stroke: #000000; stroke-width: 0.8; stroke-linejoin: miter; stroke-linecap: square"/>
   </g>
   <g id="patch_28">
    <path d="M 47.77 25.94625 
L 853.2 25.94625 
" style="fill: none; stroke: #000000; stroke-width: 0.8; stroke-linejoin: miter; stroke-linecap: square"/>
   </g>
   <g id="text_29">
    <!-- 四川 1月各市月均温 -->
    <g transform="translate(396.545 19.94625) scale(0.12 -0.12)">
     <defs>
      <path id="HiraginoSansGB-W3-56db" d="M 570 538 
C 570 147 563 -26 531 -211 
L 992 -211 
L 992 173 
L 5421 173 
L 5421 -211 
L 5875 -211 
C 5843 -32 5837 128 5837 525 
L 5837 4064 
C 5837 4403 5850 4608 5875 4851 
C 5632 4826 5446 4819 5114 4819 
L 1280 4819 
C 941 4819 749 4826 531 4851 
C 557 4621 570 4365 570 4064 
L 570 538 
z
M 3584 4442 
L 3584 2163 
C 3584 1786 3693 1722 4326 1722 
C 4710 1722 4915 1728 5210 1760 
L 5210 2170 
C 4762 2112 4570 2093 4301 2093 
C 4013 2093 3987 2106 3987 2266 
L 3987 4442 
L 5421 4442 
L 5421 557 
L 992 557 
L 992 4442 
L 2285 4442 
C 2266 3584 2195 3110 2022 2714 
C 1830 2272 1568 1990 1062 1670 
C 1190 1581 1280 1485 1357 1350 
C 1824 1670 2163 2042 2355 2458 
C 2566 2899 2675 3539 2694 4442 
L 3584 4442 
z
" transform="scale(0.015625)"/>
      <path id="HiraginoSansGB-W3-20" transform="scale(0.015625)"/>
      <path id="HiraginoSansGB-W3-5404" d="M 4672 4781 
C 4506 4755 4333 4749 4070 4749 
L 2573 4749 
L 2938 5286 
L 2496 5408 
C 2426 5222 2304 5024 2106 4762 
C 1632 4122 1165 3712 474 3309 
C 595 3213 659 3136 749 2995 
C 1261 3309 1651 3635 2016 4051 
C 2278 3674 2566 3373 2931 3072 
C 2189 2534 1370 2150 320 1843 
C 435 1696 461 1645 525 1453 
C 941 1600 1056 1645 1427 1811 
C 1440 1645 1446 1510 1446 1408 
L 1446 90 
C 1446 -102 1434 -275 1408 -480 
L 1850 -480 
L 1850 -96 
L 4608 -96 
L 4608 -480 
L 5050 -480 
C 5024 -288 5011 -115 5011 90 
L 5011 1408 
C 5011 1594 5018 1747 5037 1869 
C 5280 1766 5459 1702 5901 1555 
C 5946 1715 6010 1843 6099 1978 
C 5376 2170 4986 2310 4416 2586 
C 4102 2733 3904 2854 3571 3072 
C 4006 3443 4352 3795 4710 4262 
C 4800 4378 4838 4422 4896 4493 
L 4672 4781 
z
M 1875 1901 
C 1792 1901 1760 1901 1645 1907 
C 1677 1920 1683 1926 1728 1946 
C 2317 2202 2771 2464 3258 2822 
C 3712 2496 4307 2170 4934 1914 
C 4845 1907 4730 1901 4582 1901 
L 1875 1901 
z
M 4307 4403 
C 3910 3898 3654 3635 3245 3309 
C 2867 3597 2586 3885 2253 4326 
C 2266 4346 2272 4352 2285 4365 
C 2298 4384 2298 4384 2310 4403 
L 4307 4403 
z
M 1850 1549 
L 4608 1549 
L 4608 262 
L 1850 262 
L 1850 1549 
z
" transform="scale(0.015625)"/>
      <path id="HiraginoSansGB-W3-5e02" d="M 3328 2765 
L 5005 2765 
L 5005 838 
C 5005 698 4954 659 4749 659 
C 4544 659 4301 678 4000 723 
C 4064 570 4090 461 4109 294 
C 4403 275 4506 269 4768 269 
C 5299 269 5427 371 5427 794 
L 5427 2637 
C 5427 2848 5434 2995 5453 3155 
C 5261 3136 5101 3130 4845 3130 
L 3328 3130 
L 3328 4013 
L 5350 4013 
C 5722 4013 5907 4000 6074 3974 
L 6074 4435 
C 5882 4403 5658 4390 5344 4390 
L 3443 4390 
C 3162 4896 3162 4896 2886 5318 
L 2528 5139 
C 2701 4909 2829 4698 2963 4435 
C 2976 4410 2976 4410 2982 4390 
L 1082 4390 
C 787 4390 576 4403 365 4435 
L 365 3974 
C 550 4000 762 4013 1082 4013 
L 2912 4013 
L 2912 3130 
L 1555 3130 
C 1293 3130 1126 3136 941 3155 
C 960 2989 966 2829 966 2630 
L 966 838 
C 966 550 954 352 928 147 
L 1434 147 
C 1408 333 1395 544 1395 838 
L 1395 2765 
L 2912 2765 
L 2912 218 
C 2912 -32 2899 -237 2867 -480 
L 3373 -480 
C 3341 -262 3328 -45 3328 218 
L 3328 2765 
z
" transform="scale(0.015625)"/>
     </defs>
     <use xlink:href="#HiraginoSansGB-W3-56db"/>
     <use xlink:href="#HiraginoSansGB-W3-5ddd" transform="translate(99.999985 0)"/>
     <use xlink:href="#HiraginoSansGB-W3-20" transform="translate(199.999969 0)"/>
     <use xlink:href="#HiraginoSansGB-W3-31" transform="translate(233.299957 0)"/>
     <use xlink:href="#HiraginoSansGB-W3-6708" transform="translate(298.999954 0)"/>
     <use xlink:href="#HiraginoSansGB-W3-5404" transform="translate(398.999939 0)"/>
     <use xlink:href="#HiraginoSansGB-W3-5e02" transform="translate(498.999924 0)"/>
     <use xlink:href="#HiraginoSansGB-W3-6708" transform="translate(598.999908 0)"/>
     <use xlink:href="#HiraginoSansGB-W3-5747" transform="translate(698.999893 0)"/>
     <use xlink:href="#HiraginoSansGB-W3-6e29" transform="translate(798.999878 0)"/>
    </g>
   </g>
  </g>
 </g>
 <defs>
  <clipPath id="pa4a9056bbc">
   <rect x="47.77" y="25.94625" width="805.43" height="486.49375"/>
  </clipPath>
 </defs>
</svg>
