<svg xmlns="http://www.w3.org/2000/svg" width="1200" height="556">
<style>text{font-family:Arial,sans-serif;font-size:12px;}</style>
<text x="600.0" y="30" text-anchor="middle" font-size="16">新疆 各市全年均温</text>
<line x1="170" y1="496" x2="1170" y2="496" stroke="#333"/>
<line x1="288.15824067804533" y1="50" x2="288.15824067804533" y2="496" stroke="#666" stroke-dasharray="4"/>
<text x="164" y="74" text-anchor="end">吐鲁番</text>
<rect x="288.15824067804533" y="60" width="881.8417593219547" height="18" fill="#4C78A8"/>
<text x="1174.0" y="74">176.40</text>
<text x="164" y="98" text-anchor="end">和田</text>
<rect x="288.15824067804533" y="84" width="743.5625916637077" height="18" fill="#4C78A8"/>
<text x="1035.720832341753" y="98">148.74</text>
<text x="164" y="122" text-anchor="end">喀什</text>
<rect x="288.15824067804533" y="108" width="702.2816136402012" height="18" fill="#4C78A8"/>
<text x="994.4398543182465" y="122">140.48</text>
<text x="164" y="146" text-anchor="end">皮山</text>
<rect x="288.15824067804533" y="132" width="679.7745827877039" height="18" fill="#4C78A8"/>
<text x="971.9328234657493" y="146">135.98</text>
<text x="164" y="170" text-anchor="end">莎车</text>
<rect x="288.15824067804533" y="156" width="669.7047124438111" height="18" fill="#4C78A8"/>
<text x="961.8629531218564" y="170">133.96</text>
<text x="164" y="194" text-anchor="end">淖毛湖</text>
<rect x="288.15824067804533" y="180" width="639.9975973778925" height="18" fill="#4C78A8"/>
<text x="932.1558380559378" y="194">128.02</text>
<text x="164" y="218" text-anchor="end">铁干里克</text>
<rect x="288.15824067804533" y="204" width="639.1833004532269" height="18" fill="#4C78A8"/>
<text x="931.3415411312723" y="218">127.86</text>
<text x="164" y="242" text-anchor="end">阿拉尔</text>
<rect x="288.15824067804533" y="228" width="623.6310382315368" height="18" fill="#4C78A8"/>
<text x="915.7892789095821" y="242">124.75</text>
<text x="164" y="266" text-anchor="end">哈密</text>
<rect x="288.15824067804533" y="252" width="612.6015021604018" height="18" fill="#4C78A8"/>
<text x="904.7597428384471" y="266">122.54</text>
<text x="164" y="290" text-anchor="end">库尔勒</text>
<rect x="288.15824067804533" y="276" width="607.898929296737" height="18" fill="#4C78A8"/>
<text x="900.0571699747824" y="290">121.60</text>
<text x="164" y="314" text-anchor="end">塔中</text>
<rect x="288.15824067804533" y="300" width="592.5733230924994" height="18" fill="#4C78A8"/>
<text x="884.7315637705448" y="314">118.53</text>
<text x="164" y="338" text-anchor="end">克拉玛依</text>
<rect x="288.15824067804533" y="324" width="487.43961303952904" height="18" fill="#4C78A8"/>
<text x="779.5978537175744" y="338">97.50</text>
<text x="164" y="362" text-anchor="end">精河</text>
<rect x="288.15824067804533" y="348" width="477.5369372320556" height="18" fill="#4C78A8"/>
<text x="769.6951779101009" y="362">95.52</text>
<text x="164" y="386" text-anchor="end">塔城</text>
<rect x="288.15824067804533" y="372" width="450.8689191668303" height="18" fill="#4C78A8"/>
<text x="743.0271598448757" y="386">90.19</text>
<text x="164" y="410" text-anchor="end">哈巴河</text>
<rect x="288.15824067804533" y="396" width="347.21396403035743" height="18" fill="#4C78A8"/>
<text x="639.3722047084027" y="410">69.45</text>
<text x="164" y="434" text-anchor="end">富蕴</text>
<rect x="288.15824067804533" y="420" width="293.25987510930986" height="18" fill="#4C78A8"/>
<text x="585.4181157873552" y="434">58.66</text>
<text x="164" y="458" text-anchor="end">阿勒泰</text>
<rect x="288.15824067804533" y="444" width="284.4887963204854" height="18" fill="#4C78A8"/>
<text x="576.6470369985307" y="458">56.91</text>
<text x="164" y="482" text-anchor="end">和布克赛尔</text>
<rect x="288.15824067804533" y="468" width="237.6202096346945" height="18" fill="#4C78A8"/>
<text x="529.7784503127398" y="482">47.53</text>
<text x="164" y="506" text-anchor="end">巴音布鲁克</text>
<rect x="170.0" y="492" width="118.15824067804533" height="18" fill="#4C78A8"/>
<text x="292.15824067804533" y="506">-23.64</text>
<text x="1170" y="526" text-anchor="end">全年均温 ((原始单位))</text>
</svg>