<svg xmlns="http://www.w3.org/2000/svg" width="1200" height="628">
<style>text{font-family:Arial,sans-serif;font-size:12px;}</style>
<text x="600.0" y="30" text-anchor="middle" font-size="16">四川 各市全年均温</text>
<line x1="170" y1="568" x2="1170" y2="568" stroke="#333"/>
<line x1="45.557067331512215" y1="50" x2="45.557067331512215" y2="568" stroke="#666" stroke-dasharray="4"/>
<text x="164" y="74" text-anchor="end">东兴区</text>
<rect x="45.557067331512215" y="60" width="1124.4429326684879" height="18" fill="#4C78A8"/>
<text x="1174.0" y="74">190.96</text>
<text x="164" y="98" text-anchor="end">达川</text>
<rect x="45.557067331512215" y="84" width="1124.36569731721" height="18" fill="#4C78A8"/>
<text x="1173.9227646487223" y="98">190.95</text>
<text x="164" y="122" text-anchor="end">阆中</text>
<rect x="45.557067331512215" y="108" width="1110.769871088114" height="18" fill="#4C78A8"/>
<text x="1160.3269384196262" y="122">188.64</text>
<text x="164" y="146" text-anchor="end">宜宾</text>
<rect x="45.557067331512215" y="132" width="1095.8441149189405" height="18" fill="#4C78A8"/>
<text x="1145.4011822504526" y="146">186.10</text>
<text x="164" y="170" text-anchor="end">高坪</text>
<rect x="45.557067331512215" y="156" width="1092.8332120254167" height="18" fill="#4C78A8"/>
<text x="1142.3902793569289" y="170">185.59</text>
<text x="164" y="194" text-anchor="end">西昌</text>
<rect x="45.557067331512215" y="180" width="1039.2254501375883" height="18" fill="#4C78A8"/>
<text x="1088.7825174691004" y="194">176.49</text>
<text x="164" y="218" text-anchor="end">温江</text>
<rect x="45.557067331512215" y="204" width="1031.728861324712" height="18" fill="#4C78A8"/>
<text x="1081.285928656224" y="218">175.22</text>
<text x="164" y="242" text-anchor="end">会理</text>
<rect x="45.557067331512215" y="228" width="998.0574376833634" height="18" fill="#4C78A8"/>
<text x="1047.6145050148757" y="242">169.50</text>
<text x="164" y="266" text-anchor="end">万源</text>
<rect x="45.557067331512215" y="252" width="973.0785240628602" height="18" fill="#4C78A8"/>
<text x="1022.6355913943725" y="266">165.26</text>
<text x="164" y="290" text-anchor="end">巴塘</text>
<rect x="45.557067331512215" y="276" width="833.9981674514429" height="18" fill="#4C78A8"/>
<text x="883.5552347829552" y="290">141.64</text>
<text x="164" y="314" text-anchor="end">九龙</text>
<rect x="45.557067331512215" y="300" width="574.1148517152408" height="18" fill="#4C78A8"/>
<text x="623.671919046753" y="314">97.50</text>
<text x="164" y="338" text-anchor="end">马尔康</text>
<rect x="45.557067331512215" y="324" width="554.9736990075552" height="18" fill="#4C78A8"/>
<text x="604.5307663390674" y="338">94.25</text>
<text x="164" y="362" text-anchor="end">道孚</text>
<rect x="45.557067331512215" y="348" width="517.0955003341876" height="18" fill="#4C78A8"/>
<text x="566.6525676656998" y="362">87.82</text>
<text x="164" y="386" text-anchor="end">康定</text>
<rect x="45.557067331512215" y="372" width="502.4838035162106" height="18" fill="#4C78A8"/>
<text x="552.0408708477229" y="386">85.34</text>
<text x="164" y="410" text-anchor="end">德格</text>
<rect x="45.557067331512215" y="396" width="447.54039018769515" height="18" fill="#4C78A8"/>
<text x="497.09745751920735" y="410">76.00</text>
<text x="164" y="434" text-anchor="end">甘孜</text>
<rect x="45.557067331512215" y="420" width="413.32616003056836" height="18" fill="#4C78A8"/>
<text x="462.88322736208056" y="434">70.19</text>
<text x="164" y="458" text-anchor="end">松潘</text>
<rect x="45.557067331512215" y="444" width="405.86745285122845" height="18" fill="#4C78A8"/>
<text x="455.42452018274065" y="458">68.93</text>
<text x="164" y="482" text-anchor="end">稻城</text>
<rect x="45.557067331512215" y="468" width="382.62177117344106" height="18" fill="#4C78A8"/>
<text x="432.17883850495326" y="482">64.98</text>
<text x="164" y="506" text-anchor="end">理塘</text>
<rect x="45.557067331512215" y="492" width="316.76749543862445" height="18" fill="#4C78A8"/>
<text x="366.32456277013665" y="506">53.80</text>
<text x="164" y="530" text-anchor="end">峨眉山</text>
<rect x="45.557067331512215" y="516" width="252.41479466216384" height="18" fill="#4C78A8"/>
<text x="301.97186199367604" y="530">42.87</text>
<text x="164" y="554" text-anchor="end">若尔盖</text>
<rect x="45.557067331512215" y="540" width="205.21740009418394" height="18" fill="#4C78A8"/>
<text x="254.77446742569617" y="554">34.85</text>
<text x="164" y="578" text-anchor="end">色达</text>
<rect x="45.557067331512215" y="564" width="124.44293266848779" height="18" fill="#4C78A8"/>
<text x="174.0" y="578">21.13</text>
<text x="1170" y="598" text-anchor="end">全年均温 ((原始单位))</text>
</svg>