<svg xmlns="http://www.w3.org/2000/svg" width="1200" height="628">
<style>text{font-family:Arial,sans-serif;font-size:12px;}</style>
<text x="600.0" y="30" text-anchor="middle" font-size="16">四川 8月各市月均温</text>
<line x1="170" y1="568" x2="1170" y2="568" stroke="#333"/>
<line x1="-492.99938960757686" y1="50" x2="-492.99938960757686" y2="568" stroke="#666" stroke-dasharray="4"/>
<text x="164" y="74" text-anchor="end">达川</text>
<rect x="-492.99938960757686" y="60" width="1662.9993896075769" height="18" fill="#4C78A8"/>
<text x="1174.0" y="74">337.83</text>
<text x="164" y="98" text-anchor="end">东兴区</text>
<rect x="-492.99938960757686" y="84" width="1621.5714651387166" height="18" fill="#4C78A8"/>
<text x="1132.5720755311397" y="98">329.42</text>
<text x="164" y="122" text-anchor="end">高坪</text>
<rect x="-492.99938960757686" y="108" width="1608.4627955972987" height="18" fill="#4C78A8"/>
<text x="1119.4634059897219" y="122">326.76</text>
<text x="164" y="146" text-anchor="end">阆中</text>
<rect x="-492.99938960757686" y="132" width="1586.8332447279818" height="18" fill="#4C78A8"/>
<text x="1097.833855120405" y="146">322.36</text>
<text x="164" y="170" text-anchor="end">宜宾</text>
<rect x="-492.99938960757686" y="156" width="1532.0702148187531" height="18" fill="#4C78A8"/>
<text x="1043.0708252111763" y="170">311.24</text>
<text x="164" y="194" text-anchor="end">万源</text>
<rect x="-492.99938960757686" y="180" width="1446.1525587256583" height="18" fill="#4C78A8"/>
<text x="957.1531691180815" y="194">293.78</text>
<text x="164" y="218" text-anchor="end">温江</text>
<rect x="-492.99938960757686" y="204" width="1421.05755409849" height="18" fill="#4C78A8"/>
<text x="932.0581644909132" y="218">288.69</text>
<text x="164" y="242" text-anchor="end">西昌</text>
<rect x="-492.99938960757686" y="228" width="1237.3589698151104" height="18" fill="#4C78A8"/>
<text x="748.3595802075336" y="242">251.37</text>
<text x="164" y="266" text-anchor="end">巴塘</text>
<rect x="-492.99938960757686" y="252" width="1150.0383956524308" height="18" fill="#4C78A8"/>
<text x="661.039006044854" y="266">233.63</text>
<text x="164" y="290" text-anchor="end">会理</text>
<rect x="-492.99938960757686" y="276" width="1102.6739126154332" height="18" fill="#4C78A8"/>
<text x="613.6745230078564" y="290">224.01</text>
<text x="164" y="314" text-anchor="end">马尔康</text>
<rect x="-492.99938960757686" y="300" width="986.6747395987163" height="18" fill="#4C78A8"/>
<text x="497.67534999113946" y="314">200.44</text>
<text x="164" y="338" text-anchor="end">道孚</text>
<rect x="-492.99938960757686" y="324" width="970.9029869848584" height="18" fill="#4C78A8"/>
<text x="481.9035973772816" y="338">197.24</text>
<text x="164" y="362" text-anchor="end">康定</text>
<rect x="-492.99938960757686" y="348" width="953.5904857542286" height="18" fill="#4C78A8"/>
<text x="464.5910961466517" y="362">193.72</text>
<text x="164" y="386" text-anchor="end">甘孜</text>
<rect x="-492.99938960757686" y="372" width="898.157993187233" height="18" fill="#4C78A8"/>
<text x="409.1586035796562" y="386">182.46</text>
<text x="164" y="410" text-anchor="end">九龙</text>
<rect x="-492.99938960757686" y="396" width="890.1244412940321" height="18" fill="#4C78A8"/>
<text x="401.1250516864552" y="410">180.83</text>
<text x="164" y="434" text-anchor="end">松潘</text>
<rect x="-492.99938960757686" y="420" width="880.8061118002639" height="18" fill="#4C78A8"/>
<text x="391.80672219268706" y="434">178.93</text>
<text x="164" y="458" text-anchor="end">德格</text>
<rect x="-492.99938960757686" y="444" width="875.829444542895" height="18" fill="#4C78A8"/>
<text x="386.8300549353181" y="458">177.92</text>
<text x="164" y="482" text-anchor="end">稻城</text>
<rect x="-492.99938960757686" y="468" width="737.8807568866049" height="18" fill="#4C78A8"/>
<text x="248.88136727902804" y="482">149.90</text>
<text x="164" y="506" text-anchor="end">若尔盖</text>
<rect x="-492.99938960757686" y="492" width="714.5283241774471" height="18" fill="#4C78A8"/>
<text x="225.52893456987022" y="506">145.16</text>
<text x="164" y="530" text-anchor="end">理塘</text>
<rect x="-492.99938960757686" y="516" width="698.4956780278418" height="18" fill="#4C78A8"/>
<text x="209.49628842026493" y="530">141.90</text>
<text x="164" y="554" text-anchor="end">峨眉山</text>
<rect x="-492.99938960757686" y="540" width="682.1184555102684" height="18" fill="#4C78A8"/>
<text x="193.11906590269155" y="554">138.57</text>
<text x="164" y="578" text-anchor="end">色达</text>
<rect x="-492.99938960757686" y="564" width="662.9993896075769" height="18" fill="#4C78A8"/>
<text x="174.0" y="578">134.69</text>
<text x="1170" y="598" text-anchor="end">8月均温 ((原始单位))</text>
</svg>