<svg xmlns="http://www.w3.org/2000/svg" width="1200" height="628">
<style>text{font-family:Arial,sans-serif;font-size:12px;}</style>
<text x="600.0" y="30" text-anchor="middle" font-size="16">四川 7月各市月均温</text>
<line x1="170" y1="568" x2="1170" y2="568" stroke="#333"/>
<line x1="-441.6291680843824" y1="50" x2="-441.6291680843824" y2="568" stroke="#666" stroke-dasharray="4"/>
<text x="164" y="74" text-anchor="end">达川</text>
<rect x="-441.6291680843824" y="60" width="1611.6291680843824" height="18" fill="#4C78A8"/>
<text x="1174.0" y="74">303.14</text>
<text x="164" y="98" text-anchor="end">阆中</text>
<rect x="-441.6291680843824" y="84" width="1608.9922167403877" height="18" fill="#4C78A8"/>
<text x="1171.3630486560053" y="98">302.64</text>
<text x="164" y="122" text-anchor="end">东兴区</text>
<rect x="-441.6291680843824" y="108" width="1600.77300952705" height="18" fill="#4C78A8"/>
<text x="1163.1438414426675" y="122">301.10</text>
<text x="164" y="146" text-anchor="end">高坪</text>
<rect x="-441.6291680843824" y="132" width="1562.2075961211294" height="18" fill="#4C78A8"/>
<text x="1124.578428036747" y="146">293.85</text>
<text x="164" y="170" text-anchor="end">宜宾</text>
<rect x="-441.6291680843824" y="156" width="1555.514205512079" height="18" fill="#4C78A8"/>
<text x="1117.8850374276965" y="170">292.59</text>
<text x="164" y="194" text-anchor="end">万源</text>
<rect x="-441.6291680843824" y="180" width="1473.609220823409" height="18" fill="#4C78A8"/>
<text x="1035.9800527390266" y="194">277.18</text>
<text x="164" y="218" text-anchor="end">温江</text>
<rect x="-441.6291680843824" y="204" width="1470.754295678802" height="18" fill="#4C78A8"/>
<text x="1033.1251275944196" y="218">276.64</text>
<text x="164" y="242" text-anchor="end">西昌</text>
<rect x="-441.6291680843824" y="228" width="1325.7751361007145" height="18" fill="#4C78A8"/>
<text x="888.1459680163321" y="242">249.37</text>
<text x="164" y="266" text-anchor="end">会理</text>
<rect x="-441.6291680843824" y="252" width="1209.2388992854712" height="18" fill="#4C78A8"/>
<text x="771.6097312010888" y="266">227.45</text>
<text x="164" y="290" text-anchor="end">巴塘</text>
<rect x="-441.6291680843824" y="276" width="1185.314945559714" height="18" fill="#4C78A8"/>
<text x="747.6857774753316" y="290">222.95</text>
<text x="164" y="314" text-anchor="end">康定</text>
<rect x="-441.6291680843824" y="300" width="966.8839316093909" height="18" fill="#4C78A8"/>
<text x="529.2547635250085" y="314">181.87</text>
<text x="164" y="338" text-anchor="end">马尔康</text>
<rect x="-441.6291680843824" y="324" width="958.8986474991493" height="18" fill="#4C78A8"/>
<text x="521.2694794147669" y="338">180.37</text>
<text x="164" y="362" text-anchor="end">道孚</text>
<rect x="-441.6291680843824" y="348" width="890.130571623001" height="18" fill="#4C78A8"/>
<text x="452.50140353861855" y="362">167.43</text>
<text x="164" y="386" text-anchor="end">九龙</text>
<rect x="-441.6291680843824" y="372" width="878.8225161619598" height="18" fill="#4C78A8"/>
<text x="441.1933480775774" y="386">165.30</text>
<text x="164" y="410" text-anchor="end">德格</text>
<rect x="-441.6291680843824" y="396" width="850.0978223885675" height="18" fill="#4C78A8"/>
<text x="412.46865430418507" y="410">159.90</text>
<text x="164" y="434" text-anchor="end">甘孜</text>
<rect x="-441.6291680843824" y="420" width="843.1758251105819" height="18" fill="#4C78A8"/>
<text x="405.54665702619945" y="434">158.60</text>
<text x="164" y="458" text-anchor="end">松潘</text>
<rect x="-441.6291680843824" y="444" width="835.8444624021776" height="18" fill="#4C78A8"/>
<text x="398.21529431779516" y="458">157.22</text>
<text x="164" y="482" text-anchor="end">峨眉山</text>
<rect x="-441.6291680843824" y="468" width="745.2098928206872" height="18" fill="#4C78A8"/>
<text x="307.5807247363048" y="482">140.17</text>
<text x="164" y="506" text-anchor="end">稻城</text>
<rect x="-441.6291680843824" y="492" width="743.9233157536577" height="18" fill="#4C78A8"/>
<text x="306.2941476692753" y="506">139.93</text>
<text x="164" y="530" text-anchor="end">若尔盖</text>
<rect x="-441.6291680843824" y="516" width="708.0692837699897" height="18" fill="#4C78A8"/>
<text x="270.44011568560734" y="530">133.19</text>
<text x="164" y="554" text-anchor="end">理塘</text>
<rect x="-441.6291680843824" y="540" width="689.4670806396733" height="18" fill="#4C78A8"/>
<text x="251.83791255529093" y="554">129.69</text>
<text x="164" y="578" text-anchor="end">色达</text>
<rect x="-441.6291680843824" y="564" width="611.6291680843824" height="18" fill="#4C78A8"/>
<text x="174.0" y="578">115.05</text>
<text x="1170" y="598" text-anchor="end">7月均温 ((原始单位))</text>
</svg>