<svg xmlns="http://www.w3.org/2000/svg" width="1200" height="628">
<style>text{font-family:Arial,sans-serif;font-size:12px;}</style>
<text x="600.0" y="30" text-anchor="middle" font-size="16">四川 1月各市月均温</text>
<line x1="170" y1="568" x2="1170" y2="568" stroke="#333"/>
<line x1="662.3895580464521" y1="50" x2="662.3895580464521" y2="568" stroke="#666" stroke-dasharray="4"/>
<text x="164" y="74" text-anchor="end">西昌</text>
<rect x="662.3895580464521" y="60" width="507.610441953548" height="18" fill="#4C78A8"/>
<text x="1174.0" y="74">109.32</text>
<text x="164" y="98" text-anchor="end">会理</text>
<rect x="662.3895580464521" y="84" width="503.15747439195417" height="18" fill="#4C78A8"/>
<text x="1169.5470324384062" y="98">108.36</text>
<text x="164" y="122" text-anchor="end">宜宾</text>
<rect x="662.3895580464521" y="108" width="387.05203332064156" height="18" fill="#4C78A8"/>
<text x="1053.4415913670937" y="122">83.36</text>
<text x="164" y="146" text-anchor="end">东兴区</text>
<rect x="662.3895580464521" y="132" width="384.5771305987129" height="18" fill="#4C78A8"/>
<text x="1050.966688645165" y="146">82.82</text>
<text x="164" y="170" text-anchor="end">阆中</text>
<rect x="662.3895580464521" y="156" width="361.27357658268403" height="18" fill="#4C78A8"/>
<text x="1027.663134629136" y="170">77.80</text>
<text x="164" y="194" text-anchor="end">高坪</text>
<rect x="662.3895580464521" y="180" width="357.3494859817426" height="18" fill="#4C78A8"/>
<text x="1023.7390440281947" y="194">76.96</text>
<text x="164" y="218" text-anchor="end">达川</text>
<rect x="662.3895580464521" y="204" width="356.82339502790654" height="18" fill="#4C78A8"/>
<text x="1023.2129530743587" y="218">76.85</text>
<text x="164" y="242" text-anchor="end">温江</text>
<rect x="662.3895580464521" y="228" width="337.51683212451604" height="18" fill="#4C78A8"/>
<text x="1003.906390170968" y="242">72.69</text>
<text x="164" y="266" text-anchor="end">万源</text>
<rect x="662.3895580464521" y="252" width="234.1973050027396" height="18" fill="#4C78A8"/>
<text x="900.5868630491916" y="266">50.44</text>
<text x="164" y="290" text-anchor="end">巴塘</text>
<rect x="662.3895580464521" y="276" width="192.9272573620231" height="18" fill="#4C78A8"/>
<text x="859.3168154084751" y="290">41.55</text>
<text x="164" y="314" text-anchor="end">九龙</text>
<rect x="662.3895580464521" y="300" width="91.5727937147687" height="18" fill="#4C78A8"/>
<text x="757.9623517612208" y="314">19.72</text>
<text x="164" y="338" text-anchor="end">马尔康</text>
<rect x="642.9027405020386" y="324" width="19.486817544413555" height="18" fill="#4C78A8"/>
<text x="666.3895580464521" y="338">-4.20</text>
<text x="164" y="362" text-anchor="end">康定</text>
<rect x="616.064579638005" y="348" width="46.32497840844718" height="18" fill="#4C78A8"/>
<text x="666.3895580464521" y="362">-9.98</text>
<text x="164" y="386" text-anchor="end">道孚</text>
<rect x="573.2591636407537" y="372" width="89.13039440569833" height="18" fill="#4C78A8"/>
<text x="666.3895580464521" y="386">-19.20</text>
<text x="164" y="410" text-anchor="end">德格</text>
<rect x="512.8088520723248" y="396" width="149.58070597412723" height="18" fill="#4C78A8"/>
<text x="666.3895580464521" y="410">-32.21</text>
<text x="164" y="434" text-anchor="end">松潘</text>
<rect x="505.66042291583483" y="420" width="156.72913513061724" height="18" fill="#4C78A8"/>
<text x="666.3895580464521" y="434">-33.75</text>
<text x="164" y="458" text-anchor="end">稻城</text>
<rect x="487.95117058719745" y="444" width="174.4383874592546" height="18" fill="#4C78A8"/>
<text x="666.3895580464521" y="458">-37.57</text>
<text x="164" y="482" text-anchor="end">甘孜</text>
<rect x="474.71949554703247" y="468" width="187.6700624994196" height="18" fill="#4C78A8"/>
<text x="666.3895580464521" y="482">-40.42</text>
<text x="164" y="506" text-anchor="end">峨眉山</text>
<rect x="444.6923784140193" y="492" width="217.69717963243278" height="18" fill="#4C78A8"/>
<text x="666.3895580464521" y="506">-46.88</text>
<text x="164" y="530" text-anchor="end">理塘</text>
<rect x="434.97385796937255" y="516" width="227.41570007707952" height="18" fill="#4C78A8"/>
<text x="666.3895580464521" y="530">-48.98</text>
<text x="164" y="554" text-anchor="end">若尔盖</text>
<rect x="322.1726209823461" y="540" width="340.216937064106" height="18" fill="#4C78A8"/>
<text x="666.3895580464521" y="554">-73.27</text>
<text x="164" y="578" text-anchor="end">色达</text>
<rect x="170.00000000000006" y="564" width="492.389558046452" height="18" fill="#4C78A8"/>
<text x="666.3895580464521" y="578">-106.04</text>
<text x="1170" y="598" text-anchor="end">1月均温 ((原始单位))</text>
</svg>